<svg width="32" height="32" viewBox="0 0 32 32" fill="none" xmlns="http://www.w3.org/2000/svg">
<path d="M21.6015 19.8037C17.61 24.0038 7.42878 13.9137 11.4353 9.69695C13.8818 7.12193 11.1186 4.18023 9.58868 2.01521C6.71715 -2.04316 0.415773 3.56023 0.605765 7.12526C1.21074 18.3687 13.3718 31.6922 25.148 30.5288C28.8311 30.1655 33.0643 23.5121 28.8395 21.0804C26.7262 19.8637 23.8247 17.4637 21.6015 19.8021M18.9349 0.600195C22.029 0.600195 24.9963 1.82937 27.1841 4.01732C29.3719 6.20526 30.601 9.17276 30.601 12.267M18.9349 7.26693C20.2609 7.26693 21.5327 7.79372 22.4703 8.73141C23.4079 9.6691 23.9347 10.9409 23.9347 12.267" stroke="#013A65" stroke-width="1.2" stroke-linecap="round" stroke-linejoin="round"/>
</svg>
