<svg width="16" height="16" viewBox="0 0 16 16" fill="none" xmlns="http://www.w3.org/2000/svg">
<path d="M12.1667 3.41667H12.5833M0.5 5.83333C0.5 3.96667 0.5 3.03333 0.863333 2.32C1.18291 1.69282 1.69282 1.18291 2.32 0.863333C3.03333 0.5 3.96667 0.5 5.83333 0.5H10.1667C12.0333 0.5 12.9667 0.5 13.68 0.863333C14.3072 1.18291 14.8171 1.69282 15.1367 2.32C15.5 3.03333 15.5 3.96667 15.5 5.83333V10.1667C15.5 12.0333 15.5 12.9667 15.1367 13.68C14.8171 14.3072 14.3072 14.8171 13.68 15.1367C12.9667 15.5 12.0333 15.5 10.1667 15.5H5.83333C3.96667 15.5 3.03333 15.5 2.32 15.1367C1.69282 14.8171 1.18291 14.3072 0.863333 13.68C0.5 12.9667 0.5 12.0333 0.5 10.1667V5.83333ZM10.885 7.5725C10.9411 7.95142 10.9221 8.33768 10.829 8.70924C10.7358 9.0808 10.5704 9.43038 10.3422 9.73801C10.1139 10.0456 9.82733 10.3053 9.49874 10.5022C9.17015 10.6991 8.806 10.8293 8.42708 10.8854C8.04816 10.9416 7.6619 10.9225 7.29034 10.8294C6.91878 10.7362 6.56921 10.5708 6.26157 10.3426C5.64028 9.88164 5.22755 9.19276 5.11417 8.4275C5.00079 7.66224 5.19605 6.88328 5.657 6.26199C6.11795 5.6407 6.80682 5.22796 7.57208 5.11458C8.33734 5.0012 9.1163 5.19646 9.73759 5.65741C10.3589 6.11836 10.7716 6.80724 10.885 7.5725Z" stroke="black" stroke-linecap="round" stroke-linejoin="round"/>
</svg>
