<svg width="49" height="49" viewBox="0 0 49 49" fill="none" xmlns="http://www.w3.org/2000/svg">
<g clip-path="url(#clip0_1_85)">
<path d="M3.08594 11.8344L3.20395 37.1987C3.20573 37.5249 3.38542 37.8237 3.67185 37.9779L23.9302 48.5854C24.0625 48.656 24.2072 48.6916 24.3519 48.6916H24.3536C24.4147 48.7609 24.4829 48.8262 24.5642 48.8748C24.6964 48.9537 24.8469 48.9969 25.0009 49.0001C25.1548 49.0034 25.307 48.9665 25.4424 48.8932L45.4446 38.0455C45.7317 37.8896 45.9113 37.5889 45.9113 37.2633V10.8737C45.9113 10.8659 45.9084 10.8588 45.9084 10.8505C45.9078 10.844 45.9102 10.8381 45.9102 10.831C45.909 10.8055 45.8989 10.7823 45.8971 10.7574C45.8894 10.7088 45.8841 10.6602 45.8692 10.6133C45.8586 10.5807 45.8449 10.5516 45.8313 10.5202C45.8141 10.4785 45.7934 10.4382 45.7696 10.3998C45.7512 10.3702 45.7293 10.3435 45.7073 10.3162C45.6575 10.254 45.599 10.1993 45.5336 10.1537C45.5146 10.1407 45.4986 10.1223 45.4778 10.1104C45.4589 10.0986 45.4369 10.0938 45.4162 10.0837C45.399 10.0748 45.3853 10.0624 45.3681 10.0547L24.7557 0.0698996C24.637 0.0198749 24.5088 -0.00380356 24.38 0.000496379C24.2512 0.00479631 24.1248 0.0369724 24.0097 0.0948067L3.63449 10.7165C3.3356 10.8671 3.14702 11.1731 3.14524 11.507C3.14524 11.5123 3.14761 11.5171 3.14761 11.5218C3.10857 11.6215 3.08768 11.7273 3.08594 11.8344ZM42.967 10.9715L25.0101 21.0114L5.99473 11.5195L24.442 1.86855L42.967 10.9715ZM25.9092 46.6177V22.5474L44.1323 12.3633V36.7308L25.9092 46.6177Z" fill="black"/>
</g>
<defs>
<clipPath id="clip0_1_85">
<rect width="49" height="49" fill="white"/>
</clipPath>
</defs>
</svg>
