<svg width="23" height="25" viewBox="0 0 23 25" fill="none" xmlns="http://www.w3.org/2000/svg">
<path d="M5.38889 11.3V6.5C5.38889 4.9087 6.03274 3.38258 7.17879 2.25736C8.32485 1.13214 9.87923 0.5 11.5 0.5C13.1208 0.5 14.6752 1.13214 15.8212 2.25736C16.9673 3.38258 17.6111 4.9087 17.6111 6.5V11.3M2.94444 11.3H20.0556C21.4056 11.3 22.5 12.3745 22.5 13.7V22.1C22.5 23.4255 21.4056 24.5 20.0556 24.5H2.94444C1.59441 24.5 0.5 23.4255 0.5 22.1V13.7C0.5 12.3745 1.59441 11.3 2.94444 11.3Z" stroke="#013A65" stroke-linecap="round" stroke-linejoin="round"/>
</svg>
