<svg width="37" height="37" viewBox="0 0 37 37" fill="none" xmlns="http://www.w3.org/2000/svg">
<path d="M6.98125 9.2375H3.0625C1.75625 9.2375 0.80625 8.16875 0.80625 6.98125V2.94375C0.6875 1.75625 1.6375 0.687499 2.94375 0.687499H6.8625C8.16875 0.687499 9.11875 1.75625 9.11875 2.94375V6.98125C9.2375 8.16875 8.16875 9.2375 6.98125 9.2375ZM6.8625 2.94375L2.94375 3.0625L3.0625 6.98125L6.8625 6.8625V2.94375ZM6.98125 6.8625C6.8625 6.8625 6.8625 6.8625 6.98125 6.8625V6.8625ZM36.3125 5.31875C36.3125 4.60625 35.8375 4.13125 35.125 4.13125H13.75C13.0375 4.13125 12.5625 4.60625 12.5625 5.31875C12.5625 6.03125 13.0375 6.50625 13.75 6.50625H35.125C35.8375 6.50625 36.3125 5.9125 36.3125 5.31875ZM6.98125 22.775H3.0625C1.75625 22.775 0.80625 21.7063 0.80625 20.5188V16.6C0.80625 15.2937 1.875 14.3437 3.0625 14.3437H6.98125C8.2875 14.3437 9.2375 15.4125 9.2375 16.6V20.5188C9.2375 21.7063 8.16875 22.775 6.98125 22.775ZM6.8625 16.4812L2.94375 16.6L3.0625 20.5188L6.8625 20.4V16.4812ZM6.98125 20.4C6.8625 20.4 6.8625 20.4 6.98125 20.4V20.4ZM36.3125 18.8562C36.3125 18.1437 35.8375 17.6687 35.125 17.6687H13.75C13.0375 17.6687 12.5625 18.1437 12.5625 18.8562C12.5625 19.5687 13.0375 20.0437 13.75 20.0437H35.125C35.8375 20.0437 36.3125 19.45 36.3125 18.8562ZM6.98125 36.3125H3.0625C1.6375 36.3125 0.6875 35.2437 0.6875 34.0562V30.0188C0.6875 28.7125 1.75625 27.7625 2.94375 27.7625H6.8625C8.16875 27.7625 9.11875 28.8313 9.11875 30.0188V34.0562C9.2375 35.2437 8.16875 36.3125 6.98125 36.3125ZM6.8625 30.0188L2.94375 30.1375L3.0625 34.0562L6.8625 33.9375V30.0188ZM6.98125 33.9375C6.8625 33.9375 6.8625 33.9375 6.98125 33.9375V33.9375ZM36.3125 32.3938C36.3125 31.6813 35.8375 31.2063 35.125 31.2063H13.75C13.0375 31.2063 12.5625 31.6813 12.5625 32.3938C12.5625 33.1062 13.0375 33.5812 13.75 33.5812H35.125C35.8375 33.5812 36.3125 32.9875 36.3125 32.3938Z" fill="black"/>
</svg>
