<svg width="37" height="47" viewBox="0 0 37 47" fill="none" xmlns="http://www.w3.org/2000/svg">
<path d="M33.5356 17.5156C32.6215 17.4293 31.7079 17.6855 30.9719 18.2345C30.9523 17.3286 30.6067 16.4601 29.9985 15.7885C29.3902 15.1169 28.5602 14.6871 27.6606 14.5781C27.1523 14.5296 26.6394 14.587 26.1544 14.7468C25.6694 14.9066 25.2228 15.1652 24.8428 15.5063C24.6512 14.9683 24.3355 14.483 23.9214 14.0898C23.5072 13.6965 23.0062 13.4064 22.4591 13.2428C21.9119 13.0793 21.3338 13.0469 20.7718 13.1484C20.2098 13.2498 19.6796 13.4822 19.2241 13.8268V7.47006C19.2338 6.54252 18.9012 5.64396 18.2898 4.94632C17.6785 4.24868 16.8314 3.80094 15.9106 3.68876C15.4006 3.63875 14.8857 3.69605 14.3992 3.85697C13.9127 4.0179 13.4652 4.27889 13.0856 4.62316C12.7059 4.96743 12.4026 5.38735 12.195 5.8559C11.9875 6.32446 11.8803 6.83128 11.8804 7.34375V20.5625C11.8804 20.7573 11.9577 20.9441 12.0955 21.0818C12.2332 21.2195 12.42 21.2969 12.6147 21.2969C12.8095 21.2969 12.9963 21.2195 13.134 21.0818C13.2718 20.9441 13.3491 20.7573 13.3491 20.5625V7.34375C13.3494 7.03662 13.4137 6.73292 13.538 6.45207C13.6623 6.17122 13.8438 5.9194 14.071 5.7127C14.2985 5.50407 14.5677 5.34616 14.8607 5.24943C15.1538 5.15271 15.4641 5.11937 15.7711 5.15164C16.3288 5.22679 16.8393 5.50474 17.205 5.9324C17.5708 6.36006 17.7662 6.90746 17.7539 7.47006V25.7031C17.7539 25.8979 17.8313 26.0847 17.969 26.2224C18.1067 26.3601 18.2935 26.4375 18.4883 26.4375C18.683 26.4375 18.8698 26.3601 19.0076 26.2224C19.1453 26.0847 19.2227 25.8979 19.2227 25.7031V16.7643C19.2229 16.4572 19.2872 16.1535 19.4115 15.8726C19.5358 15.5918 19.7174 15.34 19.9445 15.1333C20.1719 14.9245 20.4411 14.7665 20.7342 14.6696C21.0273 14.5727 21.3376 14.5393 21.6446 14.5715C22.2028 14.6463 22.7139 14.9241 23.0802 15.3519C23.4466 15.7798 23.6424 16.3275 23.6304 16.8906V25.7031C23.6304 25.8979 23.7077 26.0847 23.8455 26.2224C23.9832 26.3601 24.17 26.4375 24.3647 26.4375C24.5595 26.4375 24.7463 26.3601 24.884 26.2224C25.0218 26.0847 25.0991 25.8979 25.0991 25.7031V18.2331C25.0994 17.9259 25.1637 17.6222 25.288 17.3414C25.4123 17.0605 25.5938 16.8087 25.821 16.602C26.0482 16.3929 26.3173 16.2346 26.6105 16.1377C26.9036 16.0409 27.2141 16.0076 27.5211 16.0402C28.079 16.1154 28.5898 16.3934 28.9558 16.8211C29.3218 17.2489 29.5174 17.7965 29.5054 18.3594V25.7031C29.5054 25.8979 29.5827 26.0847 29.7205 26.2224C29.8582 26.3601 30.045 26.4375 30.2397 26.4375C30.4345 26.4375 30.6213 26.3601 30.759 26.2224C30.8968 26.0847 30.9741 25.8979 30.9741 25.7031V21.1706C30.9744 20.8634 31.0387 20.5597 31.163 20.2789C31.2873 19.998 31.4688 19.7462 31.696 19.5395C31.9232 19.3305 32.1924 19.1723 32.4855 19.0754C32.7786 18.9785 33.0891 18.9452 33.3961 18.9777C33.954 19.0529 34.4648 19.3309 34.8308 19.7586C35.1968 20.1864 35.3924 20.734 35.3804 21.2969V31.5781C35.3761 35.2774 33.9047 38.824 31.2889 41.4398C28.6731 44.0555 25.1265 45.527 21.4272 45.5313H21.1768C18.7107 45.5286 16.2892 44.8736 14.158 43.6327C12.0268 42.3918 10.2617 40.6092 9.04201 38.4658L1.92372 25.9234C1.62987 25.4022 1.54428 24.789 1.68418 24.2072C1.82408 23.6254 2.17909 23.1182 2.6778 22.7875C3.17651 22.4568 3.78193 22.3272 4.3723 22.4248C4.96267 22.5224 5.49419 22.8399 5.85997 23.3135L12.0375 31.2932C12.1317 31.4129 12.2607 31.5004 12.4068 31.5435C12.5529 31.5866 12.7087 31.5833 12.8528 31.5339C12.9969 31.4845 13.1221 31.3916 13.211 31.2679C13.2999 31.1443 13.3482 30.9961 13.3491 30.8438V23.5C13.3491 23.3052 13.2718 23.1184 13.134 22.9807C12.9963 22.843 12.8095 22.7656 12.6147 22.7656C12.42 22.7656 12.2332 22.843 12.0955 22.9807C11.9577 23.1184 11.8804 23.3052 11.8804 23.5V28.695L7.02101 22.4161C6.42765 21.6501 5.56642 21.1369 4.61031 20.9798C3.65419 20.8227 2.67403 21.0331 1.86671 21.5689C1.05939 22.1047 0.484714 22.9261 0.25812 23.8682C0.0315274 24.8103 0.169802 25.8032 0.64517 26.6475L7.76861 39.1907C9.11626 41.5592 11.0664 43.5292 13.4212 44.9007C15.776 46.2722 18.4517 46.9965 21.1768 47H21.4272C25.516 46.9953 29.4359 45.369 32.327 42.4779C35.2182 39.5867 36.8445 35.6668 36.8491 31.5781V21.2969C36.8588 20.3693 36.5262 19.4708 35.9148 18.7731C35.3035 18.0755 34.4564 17.6277 33.5356 17.5156Z" fill="black"/>
<path d="M9.67798 13.1916C9.81436 13.1916 9.94805 13.1536 10.0641 13.0819C10.1801 13.0102 10.2738 12.9076 10.3348 12.7856C10.3958 12.6636 10.4216 12.5271 10.4094 12.3913C10.3971 12.2554 10.3473 12.1257 10.2655 12.0166C9.41233 10.8809 8.95171 9.49856 8.95315 8.07813C8.95348 7.09799 9.1718 6.13018 9.5923 5.24482C10.0128 4.35946 10.6249 3.57871 11.3844 2.95911C12.1439 2.33952 13.0316 1.89659 13.9834 1.66241C14.9351 1.42823 15.9271 1.40866 16.8873 1.60513C17.8476 1.80159 18.7521 2.20916 19.5354 2.79833C20.3187 3.38749 20.9612 4.1435 21.4163 5.01159C21.8714 5.87968 22.1277 6.83811 22.1667 7.81748C22.2057 8.79685 22.0263 9.77263 21.6417 10.6741C21.5701 10.8523 21.5712 11.0515 21.6447 11.2289C21.7182 11.4063 21.8582 11.5479 22.0348 11.6233C22.2114 11.6986 22.4106 11.7019 22.5895 11.6322C22.7685 11.5626 22.913 11.4256 22.9922 11.2506C23.5501 9.94785 23.7555 8.52122 23.5877 7.11397C23.4199 5.70671 22.8848 4.36837 22.0362 3.23331C21.1876 2.09825 20.0553 1.20642 18.753 0.647361C17.4507 0.0883036 16.0243 -0.118304 14.6169 0.0482824C13.2095 0.214869 11.8707 0.748785 10.7349 1.59643C9.59909 2.44407 8.70628 3.5756 8.14611 4.87741C7.58593 6.17922 7.3781 7.6055 7.54347 9.01304C7.70885 10.4206 8.24161 11.7598 9.08827 12.8964C9.15675 12.9881 9.24573 13.0626 9.34812 13.1139C9.45051 13.1651 9.56347 13.1918 9.67798 13.1916Z" fill="black"/>
</svg>
