<svg width="25" height="20" viewBox="0 0 25 20" fill="none" xmlns="http://www.w3.org/2000/svg">
<path d="M20.6243 20L19.7083 19.1279L22.4437 16.4677H15.9672V15.201H22.4437L19.7083 12.5408L20.6243 11.6687L25 15.8343L20.6243 20ZM2.14942 16.4677C1.55832 16.4677 1.05232 16.2673 0.631404 15.8666C0.210468 15.4659 0 14.9842 0 14.4214V2.04627C0 1.48354 0.210468 1.00182 0.631404 0.601104C1.05232 0.200368 1.55832 0 2.14942 0H19.1402C19.7313 0 20.2373 0.200368 20.6582 0.601104C21.0792 1.00182 21.2896 1.48354 21.2896 2.04627V8.89646C21.1788 8.8867 21.0679 8.8794 20.957 8.87454C20.8461 8.86967 20.7352 8.86723 20.6243 8.86723C20.5135 8.86723 20.4026 8.86844 20.2917 8.87087C20.1808 8.87332 20.0699 8.87941 19.959 8.88914V2.21193L10.5118 8.72108L1.3306 2.21925V14.4214C1.3306 14.6488 1.40737 14.8356 1.5609 14.9817C1.71443 15.1279 1.9106 15.201 2.14942 15.201H13.329C13.3188 15.3065 13.3124 15.4121 13.3099 15.5176C13.3073 15.6232 13.306 15.7288 13.306 15.8343C13.306 15.9399 13.3086 16.0455 13.3137 16.151C13.3188 16.2566 13.3265 16.3621 13.3367 16.4677H2.14942ZM2.18528 1.26675L10.5118 7.1766L19.089 1.26675H2.18528Z" fill="#013A65"/>
</svg>
