<svg width="57" height="57" viewBox="0 0 57 57" fill="none" xmlns="http://www.w3.org/2000/svg">
<path d="M25.0222 8.19374C25.1325 8.1929 25.2427 8.19206 25.3564 8.19119C25.5394 8.19124 25.5394 8.19124 25.7262 8.19129C25.8551 8.19059 25.9841 8.1899 26.117 8.18918C26.476 8.18745 26.8351 8.18658 27.1941 8.18608C27.5809 8.18534 27.9677 8.18352 28.3546 8.18187C29.2893 8.17812 30.224 8.17622 31.1588 8.17453C31.5987 8.1737 32.0387 8.17269 32.4787 8.17169C33.9409 8.16847 35.4032 8.16573 36.8654 8.16435C37.245 8.16399 37.6246 8.16363 38.0042 8.16326C38.1457 8.16312 38.1457 8.16312 38.2901 8.16298C39.8188 8.16141 41.3475 8.15661 42.8762 8.15046C44.445 8.1442 46.0138 8.14078 47.5826 8.14018C48.4637 8.13977 49.3448 8.1381 50.2259 8.13327C50.9762 8.12916 51.7265 8.12763 52.4768 8.12947C52.8597 8.13034 53.2425 8.12997 53.6254 8.1263C54.0405 8.12297 54.4554 8.12428 54.8705 8.12678C54.9916 8.1247 55.1126 8.12262 55.2373 8.12048C55.9074 8.13026 56.3095 8.20288 56.8169 8.97684C56.9903 9.5684 56.9448 10.198 56.945 10.8475C56.9455 11.0034 56.946 11.1593 56.9465 11.3199C56.948 11.8453 56.9487 12.3706 56.9494 12.896C56.9502 13.2715 56.9512 13.647 56.9521 14.0225C56.955 15.2581 56.9567 16.4937 56.9583 17.7293C56.9589 18.1542 56.9595 18.579 56.9601 19.0039C56.9625 20.7706 56.9646 22.5374 56.9658 24.3041C56.9676 26.8389 56.9713 29.3735 56.9776 31.9083C56.9819 33.689 56.9841 35.4698 56.9847 37.2506C56.9851 38.3149 56.9865 39.3792 56.99 40.4436C56.9934 41.4447 56.9941 42.4457 56.9928 43.4468C56.9927 43.8145 56.9937 44.1821 56.9956 44.5498C56.9981 45.0514 56.9972 45.5526 56.9955 46.0542C56.997 46.2001 56.9985 46.346 57.0001 46.4962C56.9935 47.2558 56.9456 47.5813 56.66 48.1776C56.2792 48.6915 56.1063 48.7784 55.6309 48.7806C55.5206 48.7816 55.4103 48.7826 55.2967 48.7835C55.1747 48.7836 55.0526 48.7837 54.9269 48.7838C54.798 48.7847 54.669 48.7855 54.5361 48.7864C54.1771 48.7884 53.818 48.7897 53.459 48.7906C53.0722 48.7917 52.6853 48.7939 52.2985 48.7959C51.3638 48.8006 50.4291 48.8033 49.4943 48.8058C49.2304 48.8065 48.9665 48.8072 48.7025 48.808C47.0643 48.8128 45.426 48.817 43.7877 48.8193C43.4081 48.8199 43.0285 48.8204 42.6489 48.821C42.5546 48.8211 42.4602 48.8213 42.363 48.8214C40.8343 48.8238 39.3056 48.8301 37.7769 48.838C36.2081 48.846 34.6393 48.8505 33.0705 48.8515C32.1894 48.8521 31.3083 48.8544 30.4272 48.8606C29.6769 48.8659 28.9266 48.868 28.1763 48.8659C27.7934 48.8649 27.4106 48.8654 27.0277 48.8701C26.6126 48.8744 26.1977 48.8729 25.7826 48.8698C25.6615 48.8725 25.5405 48.8751 25.4158 48.8778C24.5068 48.8615 24.5068 48.8615 24.0963 48.2976C23.7405 47.6273 23.6813 47.2245 23.6852 46.3122C23.7558 45.6073 23.985 45.2688 24.2804 44.7769C24.5444 44.5517 24.7034 44.5639 24.998 44.5642C25.1554 44.5636 25.1554 44.5636 25.3159 44.563C25.4319 44.5636 25.5479 44.5641 25.6674 44.5647C25.8514 44.5645 25.8514 44.5645 26.039 44.5642C26.4527 44.5639 26.8663 44.5649 27.28 44.566C27.5754 44.566 27.8708 44.566 28.1662 44.5659C28.8037 44.5658 29.4411 44.5664 30.0786 44.5675C31.0002 44.569 31.9219 44.5695 32.8435 44.5697C34.3387 44.5701 35.8339 44.5714 37.3291 44.5732C38.7818 44.5749 40.2345 44.5763 41.6872 44.5771C41.7777 44.5771 41.8681 44.5772 41.9612 44.5772C42.6683 44.5776 43.3753 44.578 44.0824 44.5784C47.5499 44.5801 51.0174 44.584 54.4849 44.5875C54.4849 33.9611 54.4849 23.3347 54.4849 12.3864C52.3283 12.3974 50.1717 12.4083 47.9497 12.4197C46.5863 12.4245 45.223 12.4291 43.8596 12.4326C43.1436 12.4345 42.4276 12.4364 41.7116 12.4384C41.6219 12.4386 41.5322 12.4389 41.4397 12.4392C39.9906 12.4433 38.5415 12.4507 37.0924 12.4594C35.6054 12.4683 34.1184 12.4736 32.6314 12.4755C31.7137 12.4768 30.7961 12.4809 29.8784 12.4886C29.2493 12.4936 28.6201 12.4951 27.991 12.4939C27.6279 12.4933 27.2649 12.4947 26.9018 12.4993C26.5081 12.504 26.1145 12.5029 25.7208 12.5003C25.5488 12.5044 25.5488 12.5044 25.3732 12.5086C24.8657 12.4996 24.505 12.4858 24.1001 11.9294C23.7397 11.2602 23.6813 10.8603 23.6852 9.94391C23.7558 9.23901 23.985 8.90048 24.2804 8.40859C24.5499 8.17871 24.7209 8.19481 25.0222 8.19374Z" fill="black"/>
<path d="M1.44508 8.19003C1.6347 8.18759 1.6347 8.18759 1.82815 8.1851C1.96752 8.18429 2.1069 8.18348 2.25049 8.18265C2.39676 8.1811 2.54302 8.17955 2.69371 8.17796C3.17961 8.17299 3.6655 8.17009 4.1514 8.16739C4.31865 8.16638 4.48591 8.16536 4.65316 8.16433C5.34894 8.16024 6.04472 8.15669 6.74051 8.15456C7.73765 8.15148 8.73474 8.1452 9.73186 8.1344C10.433 8.12707 11.134 8.12337 11.8351 8.12237C12.2539 8.12168 12.6725 8.1194 13.0912 8.11326C13.4854 8.10756 13.8794 8.10637 14.2736 8.1086C14.4867 8.10866 14.6998 8.10403 14.9129 8.09924C15.9584 8.11215 15.9584 8.11215 16.3698 8.67263C16.6883 9.30584 16.7262 9.65784 16.7482 10.4641C16.7126 11.2223 16.5189 11.6301 16.1965 12.1231C15.9016 12.4403 15.7348 12.4566 15.3883 12.4547C15.2181 12.4559 15.2181 12.4559 15.0445 12.4571C14.9202 12.455 14.796 12.453 14.6679 12.4509C14.4681 12.451 14.4681 12.451 14.2642 12.4511C13.8325 12.4507 13.4008 12.4464 12.9692 12.4419C12.7028 12.441 12.4364 12.4405 12.1701 12.4401C11.182 12.4372 10.1938 12.4292 9.20573 12.4219C5.89392 12.4043 5.89392 12.4043 2.5152 12.3864C2.5152 23.0128 2.5152 33.6391 2.5152 44.5875C6.90721 44.55 6.90721 44.55 11.2992 44.5022C12.1491 44.4979 12.1491 44.4979 12.5471 44.4971C12.8248 44.4956 13.1025 44.4923 13.3801 44.4875C13.801 44.4806 14.2218 44.4796 14.6427 44.48C14.7662 44.4766 14.8897 44.4732 15.0169 44.4696C15.9496 44.4803 15.9496 44.4803 16.3604 45.0408C16.69 45.6725 16.726 46.0168 16.7482 46.8324C16.7127 47.5884 16.519 47.995 16.2002 48.4911C15.8888 48.8216 15.6949 48.8266 15.3295 48.8281C15.1394 48.8309 15.1394 48.8309 14.9455 48.8338C14.7377 48.8325 14.7377 48.8325 14.5256 48.8312C14.3061 48.8332 14.3061 48.8332 14.0823 48.8352C13.6812 48.8386 13.2802 48.8383 12.8791 48.8373C12.5441 48.8367 12.2091 48.8378 11.8741 48.839C11.0835 48.8416 10.293 48.8413 9.50249 48.8392C8.6875 48.837 7.87256 48.8397 7.05758 48.8448C6.35743 48.849 5.6573 48.8502 4.95714 48.8491C4.53917 48.8485 4.12123 48.8489 3.70326 48.8522C3.31004 48.8551 2.91687 48.8543 2.52365 48.8508C2.31106 48.8498 2.09847 48.8525 1.88588 48.8553C1.18106 48.845 0.710771 48.8367 0.183234 47.997C0.0098346 47.4055 0.0553416 46.7759 0.0550976 46.1264C0.0546109 45.9705 0.0541243 45.8146 0.0536229 45.654C0.0521331 45.1286 0.0514494 44.6032 0.05077 44.0778C0.0498929 43.7023 0.0489746 43.3269 0.0480182 42.9514C0.0451039 41.7158 0.0434066 40.4802 0.0418234 39.2446C0.0412284 38.8197 0.0406312 38.3949 0.040032 37.97C0.0376299 36.2032 0.0355491 34.4365 0.0342995 32.6697C0.0324951 30.135 0.0288087 27.6003 0.0224841 25.0656C0.0181917 23.2848 0.0160182 21.5041 0.0154304 19.7233C0.0150241 18.6589 0.0136823 17.5946 0.0100888 16.5303C0.00675731 15.5292 0.00604446 14.5282 0.00735531 13.5271C0.00737989 13.1594 0.00645165 12.7917 0.00450655 12.4241C0.00199703 11.9225 0.00290297 11.4212 0.00467133 10.9196C0.00312978 10.7738 0.00158827 10.6279 0 10.4776C0.0066088 9.71802 0.0545166 9.39259 0.340142 8.79624C0.745387 8.24942 0.935811 8.19491 1.44508 8.19003Z" fill="black"/>
<path d="M18.0364 0.0220732C18.1409 0.0202676 18.2455 0.0184621 18.3531 0.0166018C18.5215 0.0168608 18.5215 0.0168608 18.6932 0.017125C18.8673 0.0159075 18.8673 0.0159075 19.045 0.0146654C19.2905 0.013578 19.536 0.0134823 19.7815 0.0143041C20.1563 0.0149018 20.531 0.0104611 20.9059 0.0056563C21.1446 0.00522566 21.3833 0.00509255 21.622 0.00528635C21.7338 0.00354185 21.8455 0.00179736 21.9607 0C22.5565 0.00668082 22.9935 0.0547885 23.5037 0.642353C23.8296 1.41343 23.8684 1.99962 23.816 2.91019C23.7258 3.29421 23.7258 3.29421 23.1706 4.2413C22.5843 4.2413 21.9979 4.2413 21.3939 4.2413C21.3939 20.2434 21.3939 36.2454 21.3939 52.7324C21.9435 52.7324 22.4932 52.7324 23.0595 52.7324C23.4726 53.096 23.6457 53.2903 23.8 54.0398C23.8781 54.7268 23.8451 55.1536 23.7119 55.8223C23.4671 56.4209 23.3407 56.6034 22.9485 56.8996C22.5415 56.9856 22.1371 56.9837 21.7274 56.9817C21.609 56.9827 21.4906 56.9837 21.3686 56.9847C21.1186 56.9859 20.8685 56.9857 20.6185 56.9841C20.2365 56.9825 19.8548 56.9879 19.4729 56.9939C19.2296 56.9942 18.9863 56.9941 18.7431 56.9935C18.6292 56.9957 18.5154 56.9978 18.3981 57C17.733 56.989 17.3484 56.8959 16.841 56.1419C16.5537 55.4961 16.5783 54.8465 16.6189 54.0583C16.8023 53.388 16.9205 53.1471 17.2851 52.7324C17.8348 52.7324 18.3845 52.7324 18.9508 52.7324C18.9508 36.7303 18.9508 20.7283 18.9508 4.2413C18.4012 4.2413 17.8515 4.2413 17.2851 4.2413C16.6307 3.12494 16.6307 3.12494 16.5842 2.29976C16.6252 1.46052 16.7486 1.09359 17.0631 0.452935C17.3947 0.099646 17.6484 0.0257658 18.0364 0.0220732Z" fill="black"/>
<path d="M7.59618 20.1188C7.67331 20.1176 7.75043 20.1163 7.82989 20.115C8.08559 20.1113 8.34128 20.1091 8.59698 20.1072C8.68429 20.1064 8.77161 20.1056 8.86156 20.1049C9.32373 20.1009 9.78589 20.0982 10.2481 20.0964C10.7253 20.0943 11.2025 20.0878 11.6797 20.0803C12.0467 20.0753 12.4138 20.0737 12.7809 20.0731C12.9568 20.0721 13.1327 20.0699 13.3085 20.0664C13.555 20.0618 13.8013 20.062 14.0477 20.0633C14.2579 20.0616 14.2579 20.0616 14.4724 20.0599C14.9074 20.1689 15.0869 20.3881 15.3964 20.91C15.6002 21.4947 15.6187 21.8351 15.6115 22.5201C15.4878 23.3083 15.3165 23.6148 14.9522 24.1301C14.6624 24.3773 14.4495 24.3409 14.1254 24.338C14.0059 24.3374 13.8864 24.3368 13.7632 24.3362C13.638 24.3346 13.5127 24.333 13.3837 24.3314C13.1945 24.3301 13.1945 24.3301 13.0015 24.3288C12.6893 24.3265 12.3772 24.3234 12.065 24.3195C12.0657 24.4859 12.0665 24.6523 12.0672 24.8237C12.0739 26.3928 12.079 27.9618 12.0823 29.5309C12.084 30.3376 12.0864 31.1442 12.0901 31.9509C12.0938 32.7295 12.0957 33.5082 12.0966 34.2868C12.0972 34.5837 12.0984 34.8806 12.1002 35.1774C12.1027 35.5937 12.103 36.0099 12.1028 36.4262C12.1036 36.663 12.1043 36.8998 12.1051 37.1438C12.0616 37.821 11.9692 38.1738 11.7319 38.7153C11.2875 39.2269 10.8063 39.2265 10.2883 39.0942C9.96953 38.7543 9.78952 38.5292 9.62199 37.9576C9.61176 37.5263 9.60894 37.0944 9.60938 36.6627C9.60937 36.5296 9.60935 36.3965 9.60933 36.2594C9.60941 35.8187 9.61028 35.378 9.61115 34.9373C9.61135 34.6321 9.61151 34.3269 9.61162 34.0216C9.61205 33.2176 9.61314 32.4136 9.61437 31.6095C9.6155 30.7893 9.61601 29.9691 9.61657 29.149C9.61776 27.5391 9.61966 25.9293 9.62199 24.3195C9.50108 24.327 9.50108 24.327 9.37772 24.3346C9.01036 24.3543 8.64303 24.3666 8.27556 24.3787C8.08532 24.3906 8.08532 24.3906 7.89123 24.4028C6.83584 24.4289 6.83584 24.4289 6.43028 23.866C6.08686 23.19 6.02475 22.7806 6.02861 21.8771C6.09914 21.1722 6.32834 20.8336 6.62374 20.3417C6.94771 20.0654 7.23436 20.1236 7.59618 20.1188Z" fill="black"/>
</svg>
