<svg width="45" height="45" viewBox="0 0 45 45" fill="none" xmlns="http://www.w3.org/2000/svg">
<path d="M6.80057 20.8697L3.99634 14.0083C3.63904 13.1341 2.64988 12.7041 1.76689 13.0392M10.1564 36.9941H19.4075M10.1564 36.9941C10.1564 35.2807 9.44188 33.6448 8.1849 32.4804L5.87724 30.3426C4.23436 28.8207 3.09514 26.8335 2.61187 24.6468L0.546032 15.2992C0.335653 14.3473 0.855415 13.3851 1.76689 13.0392M10.1564 36.9941C9.38497 37.3319 8.8866 38.0942 8.8866 38.9363V43.6392C8.8866 43.8915 8.99731 44.1312 9.18947 44.2948C9.34524 44.4274 9.54314 44.5003 9.74773 44.5003H19.4412C19.6516 44.5003 19.8532 44.4155 20.0004 44.2651C20.1436 44.1188 20.2237 43.9223 20.2237 43.7177V38.5378C20.2237 37.9199 19.9181 37.342 19.4075 36.9941M19.4075 36.9941V30.7005C19.4075 29.2876 19.152 27.8631 18.2698 26.7593C16.8815 25.0222 14.2453 22.6233 9.88427 20.499M9.88427 20.499L6.45761 11.4854C5.92499 10.0844 4.91327 8.60512 3.45346 8.94507C1.97196 9.29008 1.55327 11.262 1.7348 12.7722L1.76689 13.0392M9.88427 20.499C6.85698 20.5143 7.26953 23.6827 9.63961 25.5661L12.2424 27.6345" stroke="#013A65"/>
<path d="M37.5588 20.8697L40.363 14.0083C40.7203 13.1341 41.7095 12.7041 42.5925 13.0392M34.203 36.9941H24.9519M34.203 36.9941C34.203 35.2807 34.9175 33.6448 36.1745 32.4804L38.4821 30.3426C40.125 28.8207 41.2642 26.8335 41.7475 24.6468L43.8133 15.2992C44.0237 14.3473 43.504 13.3851 42.5925 13.0392M34.203 36.9941C34.9744 37.3319 35.4728 38.0942 35.4728 38.9363V43.6392C35.4728 43.8915 35.3621 44.1312 35.1699 44.2948C35.0141 44.4274 34.8162 44.5003 34.6116 44.5003H24.9182C24.7078 44.5003 24.5062 44.4155 24.3589 44.2651C24.2158 44.1188 24.1356 43.9223 24.1356 43.7177V38.5378C24.1356 37.9199 24.4412 37.342 24.9519 36.9941M24.9519 36.9941V30.7005C24.9519 29.2876 25.2074 27.8631 26.0896 26.7593C27.4779 25.0222 30.1141 22.6233 34.4751 20.499M34.4751 20.499L37.9018 11.4854C38.4344 10.0844 39.4461 8.60512 40.9059 8.94507C42.3874 9.29008 42.8061 11.262 42.6246 12.7722L42.5925 13.0392M34.4751 20.499C37.5024 20.5143 37.0898 23.6827 34.7198 25.5661L32.117 27.6345" stroke="#013A65"/>
<path d="M32.7556 2.33514C32.1839 1.75335 31.505 1.29183 30.7578 0.976949C30.0107 0.662069 29.2098 0.5 28.401 0.5C27.5922 0.5 26.7914 0.662069 26.0442 0.976949C25.297 1.29183 24.6181 1.75335 24.0464 2.33514L22.8598 3.542L21.6732 2.33514C20.5182 1.16051 18.9518 0.500609 17.3185 0.500609C15.6852 0.500609 14.1188 1.16051 12.9639 2.33514C11.809 3.50977 11.1602 5.10292 11.1602 6.7641C11.1602 8.42528 11.809 10.0184 12.9639 11.1931L22.8598 21.2578L32.7556 11.1931C33.3277 10.6115 33.7815 9.92108 34.091 9.16115C34.4006 8.40121 34.56 7.58669 34.56 6.7641C34.56 5.94151 34.4006 5.12698 34.091 4.36705C33.7815 3.60711 33.3277 2.91666 32.7556 2.33514Z" stroke="#013A65" stroke-linecap="round" stroke-linejoin="round"/>
<path d="M22.8904 6.3667V14.1889M19.1055 10.2778H26.6754" stroke="#013A65" stroke-linecap="round" stroke-linejoin="round"/>
</svg>
