<svg width="51" height="47" viewBox="0 0 51 47" fill="none" xmlns="http://www.w3.org/2000/svg">
<path d="M0.515397 27.8802V40.8304C0.445391 41.32 0.578403 42.3524 1.6705 42.566C2.7626 42.7797 6.95598 42.6551 8.91616 42.566C9.30119 42.477 10.0503 42.0053 9.96626 40.8304C9.88225 39.6556 9.93125 24.409 9.96626 16.9325C9.68623 16.5765 9.06317 15.8912 8.81115 15.998C8.55913 16.1048 3.80569 16.0425 1.46047 15.998C1.14545 16.176 0.515397 16.719 0.515397 17.4666C0.515397 18.2143 0.515397 21.6054 0.515397 23.2075" stroke="#013A65"/>
<path d="M10.4922 21.0723H15.5327L24.7735 25.0775H33.6993L35.0645 27.4806L34.3294 30.2843H23.9334C22.8483 30.5068 20.7411 31.9398 20.9932 35.8916" stroke="#013A65"/>
<path d="M34.4321 30.0171L48.5034 24.6768L50.4986 26.1453V30.0171L28.8666 45.504L13.3252 38.6951H9.96484" stroke="#013A65"/>
<path d="M41.7089 2.31767C41.2573 1.74142 40.7212 1.28429 40.131 0.972408C39.5409 0.660526 38.9083 0.5 38.2696 0.5C37.6308 0.5 36.9982 0.660526 36.4081 0.972408C35.8179 1.28429 35.2818 1.74142 34.8302 2.31767L33.893 3.51304L32.9558 2.31767C32.0436 1.15422 30.8064 0.500603 29.5164 0.500603C28.2263 0.500603 26.9892 1.15422 26.077 2.31767C25.1648 3.48112 24.6523 5.0591 24.6523 6.70446C24.6523 8.34983 25.1648 9.9278 26.077 11.0913L33.893 21.0602L41.7089 11.0913C42.1607 10.5153 42.5191 9.83139 42.7637 9.07869C43.0082 8.32599 43.1341 7.51922 43.1341 6.70446C43.1341 5.88971 43.0082 5.08293 42.7637 4.33023C42.5191 3.57753 42.1607 2.89366 41.7089 2.31767Z" stroke="#013A65" stroke-linecap="round" stroke-linejoin="round"/>
</svg>
