<svg width="79" height="14" viewBox="0 0 79 14" fill="none" xmlns="http://www.w3.org/2000/svg">
<path d="M6.5 0L8.32243 4.29869L12.6819 4.83688L9.44875 8.03181L10.3206 12.6631L6.5 10.339L2.6794 12.6631L3.55125 8.03181L0.318133 4.83688L4.67757 4.29869L6.5 0Z" fill="#FD9B2C"/>
<path d="M22.5 0L24.3224 4.29869L28.6819 4.83688L25.4488 8.03181L26.3206 12.6631L22.5 10.339L18.6794 12.6631L19.5512 8.03181L16.3181 4.83688L20.6776 4.29869L22.5 0Z" fill="#FD9B2C"/>
<path d="M39.5 0L41.6028 4.29869L46.6329 4.83688L42.9024 8.03181L43.9084 12.6631L39.5 10.339L35.0916 12.6631L36.0976 8.03181L32.3671 4.83688L37.3972 4.29869L39.5 0Z" fill="#FD9B2C"/>
<path d="M56.5 0L58.3224 4.29869L62.6819 4.83688L59.4488 8.03181L60.3206 12.6631L56.5 10.339L52.6794 12.6631L53.5512 8.03181L50.3181 4.83688L54.6776 4.29869L56.5 0Z" fill="#FD9B2C"/>
<path d="M72.5 0L74.3224 4.29869L78.6819 4.83688L75.4488 8.03181L76.3206 12.6631L72.5 10.339L68.6794 12.6631L69.5512 8.03181L66.3181 4.83688L70.6776 4.29869L72.5 0Z" fill="#FD9B2C"/>
</svg>
