<svg width="44" height="45" viewBox="0 0 44 45" fill="none" xmlns="http://www.w3.org/2000/svg">
<path d="M0.554688 29.7998H6.5513C7.56612 29.1285 10.0939 28.0881 12.0866 29.2964C14.0794 30.5046 15.0696 32.5519 15.3156 33.4245C17.4375 34.3306 21.755 36.4249 22.0503 37.5526C22.3455 38.6802 22.4193 40.3046 22.4193 40.9759C22.4193 40.9759 17.0777 38.4599 13.655 36.8478" stroke="#013A65"/>
<path d="M0 39.8684H5.62759L15.4067 44.4999H25.3703L31.8282 41.0766C32.2587 40.0698 32.4924 38.0359 29.9831 37.9554C27.4737 37.8748 25.7393 38.8616 25.1858 39.365" stroke="#013A65"/>
<path d="M43.4453 15.2002H37.4487C36.4339 15.8714 33.9061 16.9118 31.9134 15.7036C29.9206 14.4954 28.9304 12.4481 28.6844 11.5755C26.5625 10.6693 22.245 8.57505 21.9497 7.44737C21.6545 6.3197 21.5807 4.69531 21.5807 4.02407C21.5807 4.02407 26.9223 6.54005 30.345 8.15217" stroke="#013A65"/>
<path d="M44 5.13153H38.3724L28.5933 0.499996H18.6297L12.1718 3.9233C11.7413 4.93015 11.5076 6.964 14.0169 7.04455C16.5263 7.1251 18.2607 6.13838 18.8142 5.63495" stroke="#013A65"/>
<path d="M7.10485 26.4771C6.85884 22.7518 7.21556 14.7171 10.6106 12.3812" stroke="#013A65"/>
<mask id="path-6-inside-1_1345_1578" fill="white">
<ellipse cx="12.4529" cy="10.5685" rx="0.738045" ry="0.805483"/>
</mask>
<ellipse cx="12.4529" cy="10.5685" rx="0.738045" ry="0.805483" fill="#D9D9D9"/>
<path d="M13.1909 10.5685H12.1909C12.1909 10.5424 12.201 10.5023 12.2375 10.4625C12.2753 10.4212 12.3507 10.374 12.4529 10.374V11.374V12.374C13.4933 12.374 14.1909 11.4815 14.1909 10.5685H13.1909ZM12.4529 11.374V10.374C12.5551 10.374 12.6305 10.4212 12.6683 10.4625C12.7048 10.5023 12.7148 10.5424 12.7148 10.5685H11.7148H10.7148C10.7148 11.4815 11.4125 12.374 12.4529 12.374V11.374ZM11.7148 10.5685H12.7148C12.7148 10.5945 12.7048 10.6346 12.6683 10.6745C12.6305 10.7158 12.5551 10.763 12.4529 10.763V9.763V8.763C11.4125 8.763 10.7148 9.65545 10.7148 10.5685H11.7148ZM12.4529 9.763V10.763C12.3507 10.763 12.2753 10.7158 12.2375 10.6745C12.201 10.6346 12.1909 10.5945 12.1909 10.5685H13.1909H14.1909C14.1909 9.65545 13.4933 8.763 12.4529 8.763V9.763Z" fill="#013A65" mask="url(#path-6-inside-1_1345_1578)"/>
<path d="M36.8092 19.0262C37.0552 22.7515 36.6985 30.7862 33.3035 33.1221" stroke="#013A65"/>
<mask id="path-9-inside-2_1345_1578" fill="white">
<ellipse cx="31.4612" cy="34.9344" rx="0.738045" ry="0.805483" transform="rotate(180 31.4612 34.9344)"/>
</mask>
<ellipse cx="31.4612" cy="34.9344" rx="0.738045" ry="0.805483" transform="rotate(180 31.4612 34.9344)" fill="#D9D9D9"/>
<path d="M30.7231 34.9344H31.7231C31.7231 34.9605 31.7131 35.0006 31.6766 35.0405C31.6387 35.0818 31.5633 35.129 31.4612 35.129V34.129V33.129C30.4208 33.129 29.7231 34.0214 29.7231 34.9344H30.7231ZM31.4612 34.129V35.129C31.359 35.129 31.2836 35.0818 31.2458 35.0405C31.2092 35.0006 31.1992 34.9605 31.1992 34.9344H32.1992H33.1992C33.1992 34.0214 32.5016 33.129 31.4612 33.129V34.129ZM32.1992 34.9344H31.1992C31.1992 34.9084 31.2092 34.8683 31.2458 34.8284C31.2836 34.7871 31.359 34.7399 31.4612 34.7399V35.7399V36.7399C32.5016 36.7399 33.1992 35.8475 33.1992 34.9344H32.1992ZM31.4612 35.7399V34.7399C31.5633 34.7399 31.6387 34.7871 31.6766 34.8284C31.7131 34.8683 31.7231 34.9084 31.7231 34.9344H30.7231H29.7231C29.7231 35.8475 30.4208 36.7399 31.4612 36.7399V35.7399Z" fill="#013A65" mask="url(#path-9-inside-2_1345_1578)"/>
<path d="M19.8339 30.0009V24.866H15.1289V20.0331H19.8339V15.4016H23.9854V20.3351H28.2292V24.866H23.9854V30.0009H19.8339Z" stroke="#013A65"/>
</svg>
