<svg width="43" height="43" viewBox="0 0 43 43" fill="none" xmlns="http://www.w3.org/2000/svg">
<path d="M21.5 0.40625C9.87174 0.40625 0.411194 9.8668 0.411194 21.4951C0.411194 28.2809 3.70182 34.6794 9.21362 38.626C9.26002 38.6703 9.31627 38.7209 9.39784 38.7702C12.9451 41.2719 17.1294 42.5938 21.5 42.5938C25.8707 42.5938 30.055 41.2719 33.6022 38.7702C33.6838 38.7216 33.74 38.671 33.7864 38.626C36.5077 36.6738 38.7252 34.1021 40.2558 31.1232C41.7864 28.1444 42.5861 24.8441 42.5889 21.4951C42.5889 9.8668 33.1283 0.40625 21.5 0.40625ZM10.3316 37.7077C10.321 37.622 10.3098 37.5369 10.3021 37.4476C10.2964 37.385 10.2901 37.3231 10.2859 37.2584C10.2725 37.0475 10.2641 36.8281 10.2641 36.5863C10.2641 30.4016 15.3041 25.37 21.4993 25.37C27.6946 25.37 32.7346 30.4016 32.7346 36.5863C32.7346 36.8281 32.7261 37.0475 32.7128 37.2584C32.7085 37.3231 32.7022 37.385 32.6966 37.4476C32.6889 37.5369 32.6776 37.622 32.6671 37.7077C29.3849 39.9852 25.5275 41.1875 21.4986 41.1875C17.4697 41.1875 13.6131 39.9845 10.3302 37.7077H10.3316ZM15.1888 17.6434C15.1888 14.1636 18.0196 11.3321 21.5 11.3321C24.9805 11.3321 27.8113 14.1629 27.8113 17.6434C27.8113 21.1238 24.9805 23.9546 21.5 23.9546C18.0196 23.9546 15.1888 21.1238 15.1888 17.6434ZM34.1415 36.5757C34.1415 36.3458 34.119 36.1215 34.1064 35.8944C34.0951 35.694 34.0958 35.4908 34.0754 35.2932C34.0508 35.0563 34.0051 34.8256 33.9678 34.5922C33.9383 34.4094 33.92 34.2223 33.8828 34.0416C33.8321 33.7941 33.7597 33.5551 33.695 33.3132C33.6521 33.1536 33.6198 32.9905 33.5706 32.8337C33.4953 32.5925 33.3997 32.3612 33.3104 32.1263C33.2535 31.9766 33.2071 31.8219 33.1445 31.6749C33.0362 31.4204 32.9089 31.1771 32.7852 30.9317C32.7254 30.8129 32.6748 30.6891 32.6115 30.5731C32.4688 30.3116 32.3085 30.0627 32.1482 29.8123C32.0891 29.7202 32.0385 29.6225 31.9773 29.5325C31.8135 29.2906 31.6328 29.0621 31.4528 28.8329C31.3832 28.7436 31.3206 28.648 31.2489 28.5608C31.0618 28.3344 30.8579 28.122 30.6554 27.9097C30.5795 27.8295 30.5106 27.743 30.4318 27.6643C30.2265 27.4597 30.0064 27.2705 29.7878 27.08C29.7013 27.0048 29.6218 26.9225 29.5332 26.8494C29.3167 26.6708 29.086 26.5091 28.8575 26.3445C28.757 26.2721 28.6628 26.1913 28.5594 26.1223C28.3344 25.9705 28.0967 25.8362 27.8619 25.6991C27.7459 25.6309 27.6355 25.5542 27.5167 25.4895C27.2678 25.3545 27.0083 25.2385 26.7503 25.1204C26.6364 25.0684 26.5281 25.0065 26.4121 24.958C26.1079 24.833 25.799 24.7199 25.486 24.6191C25.4066 24.5923 25.3314 24.5579 25.2519 24.5333C25.1886 24.5136 25.1225 24.5023 25.0592 24.4834C27.5251 23.1938 29.2147 20.6141 29.2147 17.6441C29.2147 13.3888 25.7525 9.92656 21.4972 9.92656C17.2419 9.92656 13.7797 13.3888 13.7797 17.6441C13.7797 20.6141 15.4693 23.1938 17.9352 24.4834C17.8719 24.5016 17.8051 24.5136 17.7425 24.5333C17.668 24.5565 17.5977 24.5888 17.5239 24.6134C17.2053 24.7189 16.8882 24.8286 16.5817 24.9587C16.4867 24.9987 16.3974 25.0501 16.3032 25.0923C16.0241 25.2188 15.7449 25.3447 15.4771 25.4902C15.3582 25.5549 15.2485 25.6316 15.1318 25.6998C14.897 25.8369 14.6593 25.9712 14.4343 26.123C14.3317 26.1927 14.2367 26.2728 14.1362 26.3452C13.9077 26.5091 13.6778 26.6715 13.4605 26.8501C13.3719 26.9232 13.2924 27.0055 13.206 27.0807C12.9873 27.2713 12.7672 27.4604 12.5619 27.665C12.4839 27.743 12.4149 27.8302 12.3383 27.9104C12.1358 28.1234 11.9326 28.3351 11.7449 28.5615C11.6724 28.6487 11.6106 28.7443 11.541 28.8336C11.361 29.0628 11.1803 29.292 11.0164 29.5332C10.9553 29.6232 10.9046 29.7209 10.8456 29.813C10.686 30.0627 10.5249 30.3123 10.3822 30.5738C10.3224 30.6835 10.2753 30.8002 10.2184 30.912C10.0904 31.1645 9.96034 31.4148 9.84924 31.6763C9.79229 31.8106 9.7501 31.952 9.69737 32.0884C9.60245 32.3352 9.5026 32.5805 9.42315 32.8344C9.37393 32.9912 9.34159 33.155 9.2987 33.3139C9.2333 33.5558 9.16159 33.7948 9.11096 34.0423C9.0737 34.223 9.05541 34.4094 9.02588 34.5929C8.98862 34.8263 8.94291 35.0563 8.9183 35.2939C8.89791 35.4915 8.89791 35.6947 8.88737 35.8951C8.87471 36.1222 8.85221 36.3465 8.85221 36.5764C6.64942 34.7288 4.87767 32.4215 3.6613 29.8164C2.44494 27.2113 1.81344 24.3716 1.81112 21.4965C1.81112 10.643 10.641 1.81391 21.4937 1.81391C32.3464 1.81391 41.1763 10.6438 41.1763 21.4965C41.1763 27.3324 38.5698 32.8625 34.1352 36.5764L34.1415 36.5757Z" fill="black"/>
</svg>
