<svg width="40" height="40" viewBox="0 0 40 40" fill="none" xmlns="http://www.w3.org/2000/svg">
<g clip-path="url(#clip0_20_16)">
<path d="M34.139 5.86097C26.3251 -1.95311 13.6764 -1.95436 5.86119 5.86097C-1.95298 13.6751 -1.95415 26.3236 5.86119 34.1389C13.6751 41.953 26.3238 41.9542 34.139 34.1389C41.9532 26.3248 41.9543 13.6762 34.139 5.86097ZM33.3033 31.2886C32.3691 30.4532 31.3697 29.7138 30.3164 29.0767C31.0126 26.6717 31.4251 24.0252 31.5226 21.2742H37.4013C37.1355 24.9823 35.7107 28.4608 33.3033 31.2886ZM2.59885 21.2742H8.47756C8.57506 24.0252 8.98754 26.6717 9.68377 29.0767C8.63041 29.7138 7.63107 30.4532 6.69683 31.2886C4.28942 28.4608 2.86473 24.9823 2.59885 21.2742ZM6.69691 8.7113C7.63115 9.54671 8.63049 10.286 9.68384 10.9232C8.98762 13.3282 8.57514 15.9747 8.47764 18.7257H2.59885C2.86473 15.0176 4.28942 11.5391 6.69691 8.7113ZM18.7259 11.1865C16.6478 11.0379 14.644 10.5261 12.7864 9.68168C13.8668 6.89966 15.8584 3.56293 18.7259 2.73602V11.1865ZM18.7259 13.7398V18.7258H11.0271C11.1153 16.3986 11.4451 14.164 11.9934 12.1193C14.1045 13.0421 16.3748 13.5933 18.7259 13.7398ZM18.7259 21.2742V26.2602C16.3748 26.4067 14.1045 26.9578 11.9934 27.8806C11.4451 25.836 11.1153 23.6013 11.0271 21.2742H18.7259ZM18.7259 28.8134V37.2638C15.8586 36.4369 13.8669 33.1006 12.7864 30.3183C14.644 29.4739 16.6478 28.962 18.7259 28.8134ZM21.2743 28.8134C23.3524 28.962 25.3562 29.4739 27.2138 30.3183C26.1334 33.1004 24.1418 36.4369 21.2743 37.2638V28.8134ZM21.2743 26.2602V21.2742H28.9731C28.8849 23.6013 28.5552 25.836 28.0068 27.8806C25.8958 26.9578 23.6254 26.4067 21.2743 26.2602ZM21.2743 18.7258V13.7398C23.6254 13.5933 25.8958 13.0421 28.0068 12.1193C28.5552 14.164 28.8849 16.3986 28.9731 18.7258H21.2743ZM21.2743 11.1865V2.7361C24.1418 3.56301 26.1335 6.89973 27.2138 9.68176C25.3562 10.5261 23.3524 11.0379 21.2743 11.1865ZM26.9978 4.00827C28.6288 4.72253 30.1506 5.69103 31.5147 6.89271C30.8705 7.46089 30.1853 7.98091 29.4648 8.44855C28.8295 6.87546 28.0179 5.34671 26.9978 4.00827ZM10.5353 8.44855C9.81483 7.98089 9.12968 7.46087 8.48545 6.89271C9.84957 5.69103 11.3713 4.72253 13.0024 4.00827C11.9823 5.34686 11.1707 6.87561 10.5353 8.44855ZM10.5354 31.5514C11.1707 33.1244 11.9824 34.6532 13.0025 35.9917C11.3714 35.2774 9.84965 34.3089 8.48553 33.1072C9.12974 32.5391 9.81489 32.019 10.5354 31.5514ZM29.4648 31.5514C30.1853 32.019 30.8705 32.539 31.5147 33.1072C30.1506 34.3088 28.6288 35.2773 26.9978 35.9916C28.0178 34.6533 28.8295 33.1245 29.4648 31.5514ZM31.5227 18.7258C31.4252 15.9747 31.0127 13.3282 30.3164 10.9232C31.3698 10.2861 32.3691 9.54679 33.3034 8.71138C35.7108 11.5391 37.1355 15.0176 37.4014 18.7258H31.5227Z" fill="black"/>
</g>
<defs>
<clipPath id="clip0_20_16">
<rect width="40" height="40" fill="white"/>
</clipPath>
</defs>
</svg>
