<svg width="46" height="47" viewBox="0 0 46 47" fill="none" xmlns="http://www.w3.org/2000/svg">
<path d="M0.574219 30.8083H6.77723C7.82697 30.1139 10.4418 29.0377 12.5031 30.2875C14.5644 31.5374 15.5887 33.6551 15.8432 34.5578C18.0381 35.4951 22.5042 37.6615 22.8096 38.828C23.115 39.9945 23.1913 41.6748 23.1913 42.3691C23.1913 42.3691 17.6659 39.7665 14.1254 38.0989" stroke="#013A65"/>
<path d="M0 41.2234H5.82129L15.937 46.0144H26.2435L32.9237 42.4733C33.369 41.4317 33.6108 39.3279 31.0151 39.2446C28.4193 39.1612 26.6252 40.1819 26.0526 40.7027" stroke="#013A65"/>
<path d="M44.9414 15.7061H38.7384C37.6887 16.4005 35.0738 17.4767 33.0125 16.2269C30.9512 14.9771 29.9269 12.8593 29.6725 11.9566C27.4775 11.0193 23.0114 8.85293 22.706 7.68643C22.4006 6.51993 22.3243 4.83961 22.3243 4.14527C22.3243 4.14527 27.8497 6.74786 31.3902 8.41549" stroke="#013A65"/>
<path d="M45.5156 5.29097H39.6943L29.5787 0.499989H19.2721L12.592 4.04115C12.1466 5.08267 11.9048 7.18653 14.5006 7.26985C17.0963 7.35317 18.8904 6.33249 19.463 5.81173" stroke="#013A65"/>
<path d="M7.34527 27.3712C7.09078 23.5175 7.45978 15.2062 10.9716 12.7899" stroke="#013A65"/>
<mask id="path-6-inside-1_1445_1323" fill="white">
<ellipse cx="12.8845" cy="10.915" rx="0.763447" ry="0.833214"/>
</mask>
<ellipse cx="12.8845" cy="10.915" rx="0.763447" ry="0.833214" fill="#D9D9D9"/>
<path d="M13.648 10.915H12.648C12.648 10.8966 12.6552 10.8634 12.6871 10.8286C12.7203 10.7923 12.7894 10.7482 12.8845 10.7482V11.7482V12.7482C13.939 12.7482 14.648 11.8433 14.648 10.915H13.648ZM12.8845 11.7482V10.7482C12.9797 10.7482 13.0488 10.7923 13.082 10.8286C13.1139 10.8634 13.1211 10.8966 13.1211 10.915H12.1211H11.1211C11.1211 11.8433 11.8301 12.7482 12.8845 12.7482V11.7482ZM12.1211 10.915H13.1211C13.1211 10.9334 13.1139 10.9666 13.082 11.0014C13.0488 11.0377 12.9797 11.0818 12.8845 11.0818V10.0818V9.08179C11.8301 9.08179 11.1211 9.98666 11.1211 10.915H12.1211ZM12.8845 10.0818V11.0818C12.7894 11.0818 12.7203 11.0377 12.6871 11.0014C12.6552 10.9666 12.648 10.9334 12.648 10.915H13.648H14.648C14.648 9.98666 13.939 9.08179 12.8845 9.08179V10.0818Z" fill="#013A65" mask="url(#path-6-inside-1_1445_1323)"/>
<path d="M38.0766 19.6639C38.3311 23.5175 37.9621 31.8288 34.4502 34.2451" stroke="#013A65"/>
<mask id="path-9-inside-2_1445_1323" fill="white">
<ellipse cx="32.5412" cy="36.1198" rx="0.763447" ry="0.833214" transform="rotate(180 32.5412 36.1198)"/>
</mask>
<ellipse cx="32.5412" cy="36.1198" rx="0.763447" ry="0.833214" transform="rotate(180 32.5412 36.1198)" fill="#D9D9D9"/>
<path d="M31.7778 36.1198H32.7778C32.7778 36.1382 32.7706 36.1714 32.7387 36.2062C32.7055 36.2425 32.6364 36.2866 32.5412 36.2866V35.2866V34.2866C31.4868 34.2866 30.7778 35.1914 30.7778 36.1198H31.7778ZM32.5412 35.2866V36.2866C32.4461 36.2866 32.377 36.2425 32.3438 36.2062C32.3119 36.1714 32.3047 36.1382 32.3047 36.1198H33.3047H34.3047C34.3047 35.1914 33.5957 34.2866 32.5412 34.2866V35.2866ZM33.3047 36.1198H32.3047C32.3047 36.1014 32.3119 36.0682 32.3438 36.0334C32.377 35.9971 32.4461 35.953 32.5412 35.953V36.953V37.953C33.5957 37.953 34.3047 37.0481 34.3047 36.1198H33.3047ZM32.5412 36.953V35.953C32.6364 35.953 32.7055 35.9971 32.7387 36.0334C32.7706 36.0682 32.7778 36.1014 32.7778 36.1198H31.7778H30.7778C30.7778 37.0481 31.4868 37.953 32.5412 37.953V36.953Z" fill="#013A65" mask="url(#path-9-inside-2_1445_1323)"/>
<path d="M20.5193 31.0164V25.7047H15.6523V20.7054H20.5193V15.9144H24.8137V21.0179H29.2035V25.7047H24.8137V31.0164H20.5193Z" stroke="#013A65"/>
</svg>
