<svg width="47" height="47" viewBox="0 0 47 47" fill="none" xmlns="http://www.w3.org/2000/svg">
<path d="M27.2519 37.4399C29.1553 37.9079 32.6064 37.9454 31.1836 34.3507M31.1836 34.3507L23.3203 25.6448M31.1836 34.3507C33.5238 34.6003 37.8112 33.9575 36.2385 29.3893" stroke="#013A65"/>
<path d="M4.59698 22.7424C2.28792 20.1837 -1.50641 13.7931 1.78867 8.70068C5.08375 3.60821 9.40226 1.83583 11.1496 1.5862C13.7083 1.21176 19.406 1.53003 21.7276 5.79872M21.7276 5.79872C24.2863 3.67686 30.321 -0.323463 33.9905 0.650096C38.5774 1.86705 42.7899 2.99039 45.9726 9.26236C46.8775 12.2579 47.2644 19.2414 41.5729 23.2105M21.7276 5.79872L17.9832 10.8538L25.8464 14.5982L29.2164 10.8538L41.5729 23.2105M41.5729 23.2105C41.9474 25.8316 41.3483 30.7368 35.9563 29.3888L27.9059 20.9638" stroke="#013A65"/>
<rect x="0.706873" y="0.0179965" width="9.94924" height="7.04015" rx="3.52007" transform="matrix(0.72487 -0.688886 0.688876 0.724879 0.846147 27.408)" stroke="#013A65"/>
<rect x="0.706873" y="0.0179965" width="9.94924" height="6.04396" rx="3.02198" transform="matrix(0.72487 -0.688886 0.688876 0.724879 6.08833 33.5857)" stroke="#013A65"/>
<rect x="0.706873" y="0.0179965" width="9.94924" height="6.04396" rx="3.02198" transform="matrix(0.72487 -0.688886 0.688876 0.724879 10.9555 38.4535)" stroke="#013A65"/>
<rect x="0.706873" y="0.0179965" width="9.94924" height="6.04396" rx="3.02198" transform="matrix(0.72487 -0.688886 0.688876 0.724879 16.5727 41.8226)" stroke="#013A65"/>
</svg>
