<svg width="57" height="57" viewBox="0 0 57 57" fill="none" xmlns="http://www.w3.org/2000/svg">
<g clip-path="url(#clip0_31_7)">
<path d="M54.1498 37.9999H44.9462L52.9126 33.3998C53.2378 33.2138 53.523 32.9654 53.752 32.6689C53.981 32.3724 54.1491 32.0336 54.2469 31.672C54.3448 31.3104 54.3704 30.933 54.3221 30.5615C54.2738 30.19 54.1526 29.8317 53.9654 29.5072L47.3136 17.9891C47.126 17.6648 46.8763 17.3807 46.5788 17.153C46.2813 16.9253 45.9418 16.7586 45.5797 16.6623C45.2179 16.5641 44.8401 16.5392 44.4684 16.5888C44.0968 16.6385 43.7388 16.7618 43.4154 16.9515L35.4471 21.5529L40.046 13.5885C40.2349 13.2642 40.358 12.9057 40.408 12.5337C40.4581 12.1617 40.4342 11.7834 40.3376 11.4207C40.2411 11.058 40.0738 10.7179 39.8455 10.42C39.6172 10.122 39.3322 9.87215 39.007 9.68466L27.4907 3.0328C27.1663 2.84649 26.8083 2.72591 26.4373 2.67794C26.0662 2.62998 25.6894 2.65558 25.3282 2.75327C24.9671 2.85097 24.6287 3.01885 24.3324 3.24732C24.0362 3.47579 23.7878 3.76039 23.6016 4.08485L19.0001 12.0556V2.85022C18.9984 1.27682 17.7233 0.00178125 16.1499 0H2.85022C1.27682 0.00178125 0.00178125 1.27682 0 2.85022V54.1498C0.00178125 55.7232 1.27682 56.9982 2.85022 57H54.1498C55.7232 56.9982 56.9982 55.7232 57 54.1498V40.8501C56.9982 39.2767 55.7232 38.0016 54.1498 37.9999ZM2.85022 37.9999C2.52581 38.0033 2.20441 38.0625 1.89993 38.1751V28.5H9.50553L4.02084 37.9999H2.85022ZM41.1462 37.9999H28.1551L23.803 30.4708L33.6742 24.7708L41.2706 37.9285L41.1462 37.9999ZM32.1551 23.4537L20.9084 29.9486L13.3746 25.5985L19.0724 15.7299L32.2292 23.3258L32.1551 23.4537ZM17.1002 15.3459L11.2624 25.4576C11.2594 25.4624 11.2546 25.4645 11.2515 25.4699L11.2464 25.485L10.6027 26.6001H1.89993V15.2002H17.1002V15.3459ZM12.4248 27.2441L19.0084 31.0457L6.96536 37.9999H6.21478L12.4248 27.2441ZM21.3711 31.8755L21.3833 31.8686L22.1577 31.421L25.9607 37.9999H10.7654L21.3711 31.8755ZM17.1002 39.8998H28.5V55.1001H17.1002V39.8998ZM30.3999 39.8998H41.7998V55.1001H30.3999V39.8998ZM44.369 18.5949C44.4764 18.5316 44.5953 18.4903 44.7188 18.4735C44.8423 18.4567 44.9679 18.4647 45.0882 18.4969C45.3335 18.563 45.5428 18.7232 45.6706 18.9427L52.3187 30.4549C52.3813 30.5632 52.4219 30.6828 52.4381 30.8068C52.4542 30.9308 52.4456 31.0569 52.4127 31.1775C52.3798 31.2982 52.3233 31.4112 52.2465 31.5099C52.1697 31.6086 52.074 31.6911 51.9651 31.7526L42.9158 36.9775L35.3199 23.8204L44.369 18.5949ZM25.2489 5.03181C25.3106 4.92359 25.3931 4.82863 25.4916 4.75237C25.5901 4.6761 25.7027 4.62004 25.8229 4.58739C25.9431 4.55463 26.0686 4.5459 26.1922 4.56172C26.3158 4.57754 26.435 4.61759 26.5431 4.67957L38.0533 11.3275C38.2747 11.4549 38.4365 11.665 38.5031 11.9116C38.5683 12.1565 38.5321 12.417 38.4025 12.6347L33.1797 21.6802L20.0226 14.0842L25.2489 5.03181ZM2.85022 1.89993H16.1499C16.4018 1.90031 16.6433 2.00055 16.8215 2.17868C16.9996 2.35682 17.0998 2.59831 17.1002 2.85022V13.2998H1.89993V2.85022C1.90031 2.59831 2.00055 2.35682 2.17868 2.17868C2.35682 2.00055 2.59831 1.90031 2.85022 1.89993ZM1.89993 54.1498V40.8501C1.90031 40.5982 2.00055 40.3567 2.17868 40.1785C2.35682 40.0004 2.59831 39.9002 2.85022 39.8998H15.2002V55.1001H2.85022C2.59831 55.0997 2.35682 54.9994 2.17868 54.8213C2.00055 54.6432 1.90031 54.4017 1.89993 54.1498ZM55.1001 54.1498C55.0997 54.4017 54.9994 54.6432 54.8213 54.8213C54.6432 54.9994 54.4017 55.0997 54.1498 55.1001H43.7002V39.8998H54.1498C54.4017 39.9002 54.6432 40.0004 54.8213 40.1785C54.9994 40.3567 55.0997 40.5982 55.1001 40.8501V54.1498Z" fill="black"/>
<path d="M9.49985 43.7002C7.4011 43.7002 5.69989 45.4014 5.69989 47.5002C5.69989 49.5989 7.4011 51.3001 9.49985 51.3001C11.5986 51.3001 13.2998 49.5989 13.2998 47.5002C13.2976 45.4023 11.5976 43.7024 9.49985 43.7002ZM9.49985 49.4002C8.45047 49.4002 7.59993 48.5495 7.59993 47.5002C7.59993 46.4508 8.45047 45.6002 9.49985 45.6002C10.5492 45.6002 11.3998 46.4508 11.3998 47.5002C11.399 48.5491 10.5488 49.399 9.49985 49.4002Z" fill="black"/>
</g>
<defs>
<clipPath id="clip0_31_7">
<rect width="57" height="57" fill="white"/>
</clipPath>
</defs>
</svg>
