<svg width="17" height="17" viewBox="0 0 17 17" fill="none" xmlns="http://www.w3.org/2000/svg">
<path d="M12.779 3.91667H13.1956M1.1123 6.33333C1.1123 4.46667 1.1123 3.53333 1.47564 2.82C1.79521 2.19282 2.30513 1.68291 2.9323 1.36333C3.64564 1 4.57897 1 6.44564 1H10.779C12.6456 1 13.579 1 14.2923 1.36333C14.9195 1.68291 15.4294 2.19282 15.749 2.82C16.1123 3.53333 16.1123 4.46667 16.1123 6.33333V10.6667C16.1123 12.5333 16.1123 13.4667 15.749 14.18C15.4294 14.8072 14.9195 15.3171 14.2923 15.6367C13.579 16 12.6456 16 10.779 16H6.44564C4.57897 16 3.64564 16 2.9323 15.6367C2.30513 15.3171 1.79521 14.8072 1.47564 14.18C1.1123 13.4667 1.1123 12.5333 1.1123 10.6667V6.33333ZM11.4973 8.0725C11.5534 8.45142 11.5344 8.83768 11.4413 9.20924C11.3481 9.5808 11.1827 9.93038 10.9545 10.238C10.7262 10.5456 10.4396 10.8053 10.111 11.0022C9.78246 11.1991 9.41831 11.3293 9.03939 11.3854C8.66047 11.4416 8.2742 11.4225 7.90265 11.3294C7.53109 11.2362 7.18151 11.0708 6.87388 10.8426C6.25259 10.3816 5.83985 9.69276 5.72647 8.9275C5.61309 8.16224 5.80835 7.38328 6.2693 6.76199C6.73025 6.1407 7.41913 5.72796 8.18439 5.61458C8.94965 5.5012 9.72861 5.69646 10.3499 6.15741C10.9712 6.61836 11.3839 7.30724 11.4973 8.0725Z" stroke="#181927" stroke-linecap="round" stroke-linejoin="round"/>
</svg>
