<svg width="26" height="20" viewBox="0 0 26 20" fill="none" xmlns="http://www.w3.org/2000/svg">
<path d="M8.86383 8.68718C7.71048 8.34222 5.03571 8.58792 3.34733 8.68718V6.60274C3.6639 2.13607 7.46276 4.51829 7.91397 2.13607C8.36518 -0.246155 6.54216 -0.047636 5.69797 0.0516224C2.53226 0.528069 0.181622 4.22051 -0.00030899 6.45385V15.5361C-0.00030899 18.2161 0.656479 19.2583 3.00712 19.2583H8.23054C10.4702 19.2583 11.2616 18.8116 11.5547 16.2805V12.5583C11.5544 9.72941 9.36186 8.83614 8.86383 8.68718Z" fill="#334658" fill-opacity="0.6"/>
<path d="M23.3091 8.68718C22.1558 8.34222 19.481 8.58792 17.7926 8.68718V6.60274C18.1092 2.13607 21.9081 4.51829 22.3593 2.13607C22.8105 -0.246155 20.9875 -0.047636 20.1433 0.0516224C16.9776 0.528069 14.6269 4.22051 14.445 6.45385V15.5361C14.445 18.2161 15.1018 19.2583 17.4524 19.2583H22.6759C24.9155 19.2583 25.7069 18.8116 26 16.2805V12.5583C25.9997 9.72941 23.8072 8.83614 23.3091 8.68718Z" fill="#334658" fill-opacity="0.6"/>
</svg>
