<svg width="25" height="25" viewBox="0 0 25 25" fill="none" xmlns="http://www.w3.org/2000/svg">
<rect width="25" height="25" rx="12.5" fill="white"/>
<path d="M11.0685 12.6087C10.6692 12.4654 9.74332 12.5675 9.15885 12.6087V11.7428C9.26844 9.88734 10.5835 10.8769 10.7397 9.88734C10.8959 8.89776 10.2648 8.98022 9.97258 9.02145C8.8767 9.21937 8.06298 10.7532 8 11.681V15.4538C8 16.5671 8.22736 17 9.04108 17H10.8493C11.6246 17 11.8985 16.8145 12 15.763V14.2168C11.9999 13.0417 11.2409 12.6706 11.0685 12.6087Z" fill="#4BBEDD"/>
<path d="M16.8356 12.6087C16.3366 12.4654 15.1792 12.5675 14.4486 12.6087V11.7428C14.5856 9.88734 16.2294 10.8769 16.4246 9.88734C16.6199 8.89776 15.831 8.98022 15.4657 9.02145C14.0959 9.21937 13.0787 10.7532 13 11.681V15.4538C13 16.5671 13.2842 17 14.3014 17H16.5616C17.5307 17 17.8732 16.8145 18 15.763V14.2168C17.9999 13.0417 17.0511 12.6706 16.8356 12.6087Z" fill="#4BBEDD"/>
</svg>
