<svg width="51" height="51" viewBox="0 0 51 51" fill="none" xmlns="http://www.w3.org/2000/svg">
<path d="M0.261719 13.4902C5.20933 16.5238 15.3093 22.303 21.6657 24.6766C23.0601 25.1974 23.74 27.039 23.0988 28.3823C22.268 30.1226 21.6145 32.2626 21.9514 34.1623C22.5148 37.3395 20.4021 44.7869 19.2754 48.1134" stroke="#013A65"/>
<path d="M43.0268 22.6893C43.6744 23.5431 43.0536 24.7678 41.9821 24.7501C40.7798 24.7304 40.2612 23.2172 41.1986 22.4641C41.7627 22.0109 42.5896 22.1128 43.0268 22.6893Z" stroke="#013A65"/>
<path d="M6.31641 9.82348L24.2033 18.2756C25.9873 18.9545 29.3158 20.8635 29.9779 22.8581C30.8229 25.4039 34.7878 23.4414 34.9073 23.3673C35.8932 22.7563 35.7993 21.7719 36.0341 21.1269L38.5692 19.294C40.2593 17.8683 39.527 14.5282 33.7806 15.017C28.0343 15.5058 15.2364 9.24643 9.55577 6.05566" stroke="#013A65"/>
<path d="M33.9237 47.604L37.4066 36.5089C37.483 35.0524 38.8532 32.6346 40.5433 31.3107C42.9994 29.3869 39.8649 27.5624 39.1355 27.3297C37.9476 26.9506 36.7601 27.437 35.8542 27.5624L32.4729 26.7007C29.9645 26.2143 26.1142 28.1343 29.2056 31.6706C32.2969 35.2069 30.2395 42.0117 28.7124 47.0942" stroke="#013A65"/>
<path d="M12.5176 0.455078L44.0662 14.8135C47.4464 16.5447 51.0238 20.9439 50.1224 25.0987C49.221 29.2534 44.8643 43.7341 42.7986 50.4551" stroke="#013A65"/>
</svg>
