<svg width="51" height="51" viewBox="0 0 51 51" fill="none" xmlns="http://www.w3.org/2000/svg">
<path d="M17.3013 50.5C17.5436 48.5455 17.1187 44.6491 13.5823 44.2797C13.3816 44.2587 13.18 44.2835 12.984 44.3316C10.7099 44.8892 6.50955 45.4874 5.80538 43.8803C5.41782 42.9958 5.3535 42.1222 5.42423 41.4044C5.5097 40.537 5.10736 39.4837 4.57882 38.7907C4.0784 38.1345 4.04007 37.2045 3.726 36.4413C3.61574 36.1734 3.52301 35.9011 3.46519 35.6448C3.26675 34.7653 4.51943 33.6537 3.93525 32.9669C3.67736 32.6637 3.20093 32.326 2.36907 31.9685C1.19307 31.463 0.56313 30.1026 1.15646 28.9684L5.19334 21.2514C5.40354 20.8496 5.46591 20.3907 5.4071 19.941C4.98673 16.727 5.43445 10.7126 10.1739 7.71426C16.5541 3.67787 19.7154 0.394936 30.6365 0.502573C41.5576 0.610211 48.7426 10.6742 49.2599 13.3113C49.7772 15.9484 51.1567 21.3303 47.9378 28.7034C46.0027 32.0761 41.845 37.7988 40.638 41.3508C39.8891 43.5545 40.9445 48.2934 41.845 50.5" stroke="#013A65"/>
<path d="M27.4937 6.8831C25.9035 5.65687 22.2401 3.91717 20.5387 7.45791M20.5387 7.45791C18.8335 7.63033 15.4805 8.7454 15.7105 11.8263C15.9404 14.9072 18.1821 15.984 19.2742 16.1373M20.5387 7.45791C21.7266 8.2626 24.1944 10.3548 24.5623 12.2861" stroke="#013A65"/>
<path d="M15.595 11.4812C13.0098 12.0391 8.77071 14.807 11.8477 21.4461C12.0328 21.8457 12.094 22.2916 12.0609 22.7307C11.8849 25.0663 12.7717 28.7939 17.6068 29.1274M17.6068 29.1274C19.2174 31.3053 23.2478 34.5568 26.9722 30.9955C27.3223 30.6607 27.4933 30.1824 27.4933 29.6979V6.88281M17.6068 29.1274C18.3541 27.0389 20.9751 23.184 25.4815 24.4715" stroke="#013A65"/>
<path d="M19.676 21.6553C17.8367 22.2493 14.3074 22.4715 14.9052 18.6089" stroke="#013A65"/>
<path d="M19.332 18.9536C20.2709 19.1261 22.344 20.0457 23.1257 22.3449" stroke="#013A65"/>
<path d="M22.8379 13.7803C23.0486 14.7191 23.999 16.6887 26.1142 17.0566" stroke="#013A65"/>
<path d="M27.4399 6.8831C29.0301 5.65687 32.6935 3.91717 34.3949 7.45791M34.3949 7.45791C36.1001 7.63033 39.453 8.7454 39.2231 11.8263C38.9932 14.9072 36.7515 15.984 35.6594 16.1373M34.3949 7.45791C33.207 8.2626 30.7392 10.3548 30.3713 12.2861" stroke="#013A65"/>
<path d="M39.3386 11.4812C41.9238 12.0391 46.1629 14.807 43.0859 21.4461C42.9008 21.8457 42.8395 22.2916 42.8726 22.7307C43.0487 25.0663 42.1619 28.7939 37.3268 29.1274M37.3268 29.1274C35.7162 31.3053 31.6858 34.5568 27.9614 30.9955C27.6113 30.6607 27.4403 30.1824 27.4403 29.6979V6.88281M37.3268 29.1274C36.5795 27.0389 33.9585 23.184 29.4521 24.4715" stroke="#013A65"/>
<path d="M35.2576 21.6553C37.0969 22.2493 40.6262 22.4715 40.0284 18.6089" stroke="#013A65"/>
<path d="M35.6035 18.9536C34.6647 19.1261 32.5916 20.0457 31.8099 22.3449" stroke="#013A65"/>
<path d="M32.0957 13.7803C31.8849 14.7191 30.9346 16.6887 28.8194 17.0566" stroke="#013A65"/>
</svg>
