<svg width="25" height="25" viewBox="0 0 25 25" fill="none" xmlns="http://www.w3.org/2000/svg">
<rect width="25" height="25" rx="12.5" fill="white"/>
<path d="M11.7387 6.89405C12.1379 6.42517 12.8621 6.42517 13.2613 6.89405L14.8917 8.80855C14.9946 8.92945 15.1249 9.02409 15.2717 9.08464L17.5963 10.0436C18.1656 10.2784 18.3894 10.9671 18.0668 11.4917L16.7498 13.6339C16.6667 13.7692 16.6169 13.9223 16.6047 14.0806L16.411 16.5878C16.3636 17.2018 15.7778 17.6275 15.1792 17.4828L12.7349 16.8922C12.5805 16.855 12.4195 16.855 12.2651 16.8922L9.82085 17.4828C9.22222 17.6275 8.63639 17.2018 8.58896 16.5878L8.3953 14.0806C8.38307 13.9223 8.33332 13.7692 8.25015 13.6339L6.93315 11.4917C6.61061 10.9671 6.83438 10.2784 7.40369 10.0436L9.7283 9.08464C9.87509 9.02409 10.0054 8.92945 10.1083 8.80855L11.7387 6.89405Z" fill="#4BBEDD"/>
</svg>
