<svg width="51" height="51" viewBox="0 0 51 51" fill="none" xmlns="http://www.w3.org/2000/svg">
<path d="M29.5782 40.6517C31.6471 41.1604 35.3983 41.2011 33.8517 37.2939M33.8517 37.2939L25.3047 27.8311M33.8517 37.2939C36.3955 37.5652 41.0556 36.8665 39.3462 31.9011" stroke="#013A65"/>
<path d="M4.95323 24.6764C2.4434 21.8952 -1.68088 14.949 1.90073 9.41372C5.48234 3.87847 10.1764 1.95198 12.0757 1.68065C14.8569 1.27364 21.05 1.6196 23.5735 6.25944M23.5735 6.25944C26.3546 3.95309 32.9141 -0.395063 36.9027 0.663147C41.8885 1.98591 46.4673 3.20693 49.9268 10.0242C50.9103 13.2803 51.3309 20.8709 45.1445 25.1851M23.5735 6.25944L19.5034 11.754L28.0505 15.8241L31.7135 11.754L45.1445 25.1851M45.1445 25.1851C45.5515 28.0342 44.9003 33.3659 39.0395 31.9007L30.289 22.7431" stroke="#013A65"/>
<rect x="0.706875" y="0.0179966" width="10.9013" height="7.73926" rx="3.86963" transform="matrix(0.724872 -0.688884 0.688878 0.724877 0.861771 29.7048)" stroke="#013A65"/>
<rect x="0.706875" y="0.0179966" width="10.9013" height="6.65645" rx="3.32822" transform="matrix(0.724872 -0.688884 0.688878 0.724877 6.55904 36.4196)" stroke="#013A65"/>
<rect x="0.706875" y="0.0179966" width="10.9013" height="6.65645" rx="3.32822" transform="matrix(0.724872 -0.688884 0.688878 0.724877 11.8501 41.7107)" stroke="#013A65"/>
<rect x="0.706875" y="0.0179966" width="10.9013" height="6.65645" rx="3.32822" transform="matrix(0.724872 -0.688884 0.688878 0.724877 17.9555 45.3728)" stroke="#013A65"/>
</svg>
