<svg width="124" height="17" viewBox="0 0 124 17" fill="none" xmlns="http://www.w3.org/2000/svg">
<path d="M9.41016 0.214844C10.291 0.214844 11.1898 0.297201 12.1064 0.461914C13.0231 0.619466 13.9147 0.862956 14.7812 1.19238C15.6478 1.52181 16.4642 1.93717 17.2305 2.43848C17.9967 2.93262 18.6663 3.5127 19.2393 4.17871C19.8122 4.84473 20.2633 5.59668 20.5928 6.43457C20.9294 7.27246 21.0977 8.19987 21.0977 9.2168C21.0977 10.2337 20.9186 11.1755 20.5605 12.042C20.2025 12.9085 19.7012 13.6569 19.0566 14.2871C18.4121 14.9173 17.6423 15.4115 16.7471 15.7695C15.8519 16.1276 14.8672 16.3066 13.793 16.3066C13.2845 16.3066 12.7581 16.2673 12.2139 16.1885C11.6696 16.1169 11.1253 16.0023 10.5811 15.8447C10.0368 15.6872 9.49967 15.4938 8.96973 15.2646C8.44694 15.0283 7.94564 14.749 7.46582 14.4268C6.90007 14.9854 6.24479 15.4222 5.5 15.7373C4.76237 16.0452 3.98177 16.1992 3.1582 16.1992C2.71419 16.1992 2.29883 16.1491 1.91211 16.0488C1.52539 15.9486 1.1888 15.8053 0.902344 15.6191C0.623047 15.4329 0.401042 15.2074 0.236328 14.9424C0.078776 14.6774 0 14.3838 0 14.0615C0 13.7822 0.0680339 13.5208 0.204102 13.2773C0.347331 13.0339 0.544271 12.819 0.794922 12.6328C1.05273 12.4466 1.3571 12.2998 1.70801 12.1924C2.06608 12.085 2.45638 12.0312 2.87891 12.0312C4.125 12.0312 5.60026 12.4896 7.30469 13.4062C7.61979 13.0124 7.8776 12.5684 8.07812 12.0742C8.30013 11.5228 8.47201 10.957 8.59375 10.377C8.72266 9.78971 8.83366 9.20605 8.92676 8.62598C9.02702 8.0459 9.12728 7.48014 9.22754 6.92871C9.33496 6.37728 9.47819 5.85807 9.65723 5.37109C9.84342 4.88411 10.0833 4.4401 10.377 4.03906C10.6777 3.63086 11.068 3.28353 11.5479 2.99707C11.6195 2.96126 11.6839 2.94336 11.7412 2.94336C11.8415 2.94336 11.9346 2.97917 12.0205 3.05078C12.1136 3.1224 12.1602 3.22266 12.1602 3.35156C12.1602 3.50195 12.0921 3.61654 11.9561 3.69531C11.5765 3.91732 11.265 4.19661 11.0215 4.5332C10.7852 4.86263 10.5882 5.23503 10.4307 5.65039C10.2731 6.06576 10.1478 6.51335 10.0547 6.99316C9.96159 7.47298 9.87207 7.97428 9.78613 8.49707C9.71452 8.92676 9.63574 9.37793 9.5498 9.85059C9.46387 10.3161 9.35645 10.7816 9.22754 11.2471C9.09863 11.7054 8.93392 12.1566 8.7334 12.6006C8.54004 13.0374 8.30013 13.4421 8.01367 13.8145C8.02799 13.8216 8.03516 13.8288 8.03516 13.8359C8.04232 13.8359 8.05306 13.8395 8.06738 13.8467C8.97689 14.391 9.9222 14.8027 10.9033 15.082C11.8844 15.3613 12.8441 15.501 13.7822 15.501C14.7992 15.501 15.7087 15.3327 16.5107 14.9961C17.32 14.6595 18.0039 14.2083 18.5625 13.6426C19.1211 13.0697 19.5472 12.4036 19.8408 11.6445C20.1344 10.8854 20.2812 10.0833 20.2812 9.23828C20.2812 8.37891 20.138 7.5804 19.8516 6.84277C19.5651 6.09798 19.1712 5.42122 18.6699 4.8125C18.1758 4.20378 17.585 3.66309 16.8975 3.19043C16.2171 2.71777 15.4795 2.32389 14.6846 2.00879C13.8968 1.68652 13.0661 1.44303 12.1924 1.27832C11.3258 1.10645 10.4557 1.02051 9.58203 1.02051C8.40755 1.02051 7.33333 1.12077 6.35938 1.32129C5.39258 1.51465 4.55827 1.80111 3.85645 2.18066C3.16178 2.56022 2.62109 3.02572 2.23438 3.57715C1.84766 4.12858 1.6543 4.75521 1.6543 5.45703C1.6543 5.85807 1.71159 6.21257 1.82617 6.52051C1.94792 6.82845 2.09831 7.09701 2.27734 7.32617C2.46354 7.54818 2.66406 7.73796 2.87891 7.89551C3.09375 8.05306 3.29427 8.18197 3.48047 8.28223C3.66667 8.37533 3.82422 8.44336 3.95312 8.48633C4.08919 8.5293 4.16797 8.55436 4.18945 8.56152C4.28255 8.58301 4.35417 8.63314 4.4043 8.71191C4.46159 8.78353 4.49023 8.86589 4.49023 8.95898C4.49023 9.08073 4.44727 9.17383 4.36133 9.23828C4.27539 9.30273 4.18229 9.33496 4.08203 9.33496C3.9388 9.33496 3.75977 9.30273 3.54492 9.23828C3.33008 9.16667 3.10091 9.06283 2.85742 8.92676C2.62109 8.78353 2.38118 8.60807 2.1377 8.40039C1.90137 8.18555 1.68652 7.9349 1.49316 7.64844C1.2998 7.36198 1.14225 7.03613 1.02051 6.6709C0.905924 6.30566 0.848633 5.90104 0.848633 5.45703C0.848633 4.64779 1.05273 3.9209 1.46094 3.27637C1.8763 2.62467 2.45996 2.07324 3.21191 1.62207C3.96387 1.1709 4.86263 0.823568 5.9082 0.580078C6.96094 0.336589 8.12826 0.214844 9.41016 0.214844ZM6.72461 14.0186C5.97982 13.6247 5.28874 13.3275 4.65137 13.127C4.014 12.9264 3.43034 12.8262 2.90039 12.8262C2.59961 12.8262 2.32031 12.862 2.0625 12.9336C1.81185 12.998 1.59342 13.0876 1.40723 13.2021C1.22103 13.3167 1.07422 13.4492 0.966797 13.5996C0.859375 13.75 0.805664 13.9076 0.805664 14.0723C0.805664 14.2298 0.852214 14.3874 0.945312 14.5449C1.04557 14.7025 1.19238 14.8421 1.38574 14.9639C1.58626 15.0856 1.83333 15.1859 2.12695 15.2646C2.42057 15.3434 2.76432 15.3828 3.1582 15.3828C3.83138 15.3828 4.47233 15.2646 5.08105 15.0283C5.69694 14.7848 6.24479 14.4482 6.72461 14.0186ZM23.8154 11.6016C23.7868 11.7949 23.751 11.9775 23.708 12.1494C23.665 12.3141 23.6221 12.4609 23.5791 12.5898C23.5433 12.7116 23.5111 12.8118 23.4824 12.8906C23.4538 12.9694 23.4359 13.0124 23.4287 13.0195C23.3571 13.1842 23.2318 13.2666 23.0527 13.2666C22.9525 13.2666 22.8594 13.2308 22.7734 13.1592C22.6875 13.0804 22.6445 12.9837 22.6445 12.8691C22.6445 12.8262 22.6517 12.7939 22.666 12.7725C22.6803 12.751 22.7018 12.708 22.7305 12.6436C22.7591 12.5791 22.7949 12.4717 22.8379 12.3213C22.8809 12.1709 22.9346 11.9382 22.999 11.623C22.8773 11.623 22.752 11.6195 22.623 11.6123C22.4941 11.6051 22.376 11.5801 22.2686 11.5371C22.154 11.4941 22.0609 11.4261 21.9893 11.333C21.9176 11.2399 21.8818 11.111 21.8818 10.9463C21.8818 10.8245 21.9176 10.6598 21.9893 10.4521C22.0537 10.2445 22.1432 10.0404 22.2578 9.83984C22.3724 9.63932 22.5013 9.46745 22.6445 9.32422C22.7878 9.17383 22.931 9.09863 23.0742 9.09863C23.2389 9.09863 23.3714 9.15951 23.4717 9.28125C23.5791 9.40299 23.6615 9.55339 23.7188 9.73242C23.776 9.9043 23.8154 10.0869 23.8369 10.2803C23.8656 10.4736 23.8799 10.6419 23.8799 10.7852C24.0016 10.7852 24.1198 10.7852 24.2344 10.7852C24.3561 10.778 24.4707 10.7744 24.5781 10.7744C24.9863 10.7744 25.2979 10.8639 25.5127 11.043C25.7275 11.222 25.835 11.5156 25.835 11.9238C25.835 12.0885 25.8242 12.2604 25.8027 12.4395C25.7812 12.6185 25.7562 12.8047 25.7275 12.998C25.6989 13.1842 25.6738 13.3704 25.6523 13.5566C25.6309 13.7428 25.6201 13.9255 25.6201 14.1045C25.6201 14.3623 25.6559 14.5771 25.7275 14.749C25.7992 14.9137 25.8887 15.0462 25.9961 15.1465C26.1035 15.2467 26.2181 15.3184 26.3398 15.3613C26.4616 15.3971 26.5726 15.415 26.6729 15.415C26.9808 15.415 27.2708 15.3148 27.543 15.1143C27.8151 14.9137 28.0658 14.6738 28.2949 14.3945C28.5241 14.1081 28.7282 13.8073 28.9072 13.4922C29.0934 13.1771 29.2474 12.9014 29.3691 12.665C29.4049 12.6006 29.4551 12.5505 29.5195 12.5146C29.584 12.4788 29.652 12.4609 29.7236 12.4609C29.8525 12.4609 29.9528 12.5039 30.0244 12.5898C30.096 12.6686 30.1318 12.7581 30.1318 12.8584C30.1318 12.93 30.1175 12.9945 30.0889 13.0518C29.9242 13.3454 29.7308 13.6784 29.5088 14.0508C29.2939 14.416 29.0469 14.7598 28.7676 15.082C28.4883 15.4043 28.1732 15.6764 27.8223 15.8984C27.4785 16.1204 27.099 16.2314 26.6836 16.2314C26.4258 16.2314 26.1823 16.1813 25.9531 16.0811C25.724 15.988 25.5234 15.8519 25.3516 15.6729C25.1868 15.4867 25.0544 15.2611 24.9541 14.9961C24.8538 14.724 24.8037 14.4196 24.8037 14.083C24.8037 13.7249 24.8395 13.3704 24.9111 13.0195C24.9827 12.6615 25.0186 12.3213 25.0186 11.999C25.0186 11.863 24.9863 11.7627 24.9219 11.6982C24.8646 11.6266 24.7321 11.5908 24.5244 11.5908C24.4242 11.5908 24.3132 11.5908 24.1914 11.5908C24.0768 11.5908 23.9515 11.5944 23.8154 11.6016ZM23.0957 10.8066C23.0957 10.7565 23.0921 10.6921 23.085 10.6133C23.085 10.5273 23.0778 10.445 23.0635 10.3662C23.0563 10.2874 23.042 10.2194 23.0205 10.1621C23.0062 10.1048 22.9883 10.0762 22.9668 10.0762C22.9453 10.0762 22.9167 10.1048 22.8809 10.1621C22.8522 10.2122 22.82 10.2767 22.7842 10.3555C22.7484 10.4271 22.7161 10.5059 22.6875 10.5918C22.6589 10.6777 22.6374 10.7493 22.623 10.8066H23.0957ZM31.5176 15.7051C31.5176 15.8698 31.4603 16.0059 31.3457 16.1133C31.2383 16.2279 31.1022 16.2852 30.9375 16.2852C30.7728 16.2852 30.6331 16.2279 30.5186 16.1133C30.4111 16.0059 30.3574 15.8698 30.3574 15.7051C30.3574 15.5475 30.4111 15.415 30.5186 15.3076C30.6331 15.193 30.7728 15.1357 30.9375 15.1357C31.1022 15.1357 31.2383 15.193 31.3457 15.3076C31.4603 15.415 31.5176 15.5475 31.5176 15.7051ZM53.9258 15.9629C53.9544 16.013 53.9688 16.0739 53.9688 16.1455C53.9688 16.2529 53.9294 16.346 53.8506 16.4248C53.779 16.5036 53.6823 16.543 53.5605 16.543C53.4818 16.543 53.4102 16.5251 53.3457 16.4893C53.2884 16.4535 53.2419 16.3997 53.2061 16.3281C53.07 16.0632 52.9482 15.7337 52.8408 15.3398C52.7406 14.9388 52.651 14.4948 52.5723 14.0078C52.5007 13.5208 52.4398 12.998 52.3896 12.4395C52.3467 11.8737 52.3109 11.29 52.2822 10.6885C51.7451 10.7601 51.14 10.8389 50.4668 10.9248C49.8008 11.0107 49.0381 11.111 48.1787 11.2256C47.5771 11.3115 46.9648 11.3867 46.3418 11.4512C44.8092 13.1198 43.1943 14.3874 41.4971 15.2539C39.807 16.1133 38.1097 16.543 36.4053 16.543C35.6462 16.543 34.9873 16.4678 34.4287 16.3174C33.8773 16.1742 33.4189 16.013 33.0537 15.834C32.6956 15.6478 32.4271 15.4759 32.248 15.3184C32.0618 15.1608 31.9616 15.0749 31.9473 15.0605C31.8757 14.9889 31.8398 14.8958 31.8398 14.7812C31.8398 14.6667 31.8792 14.57 31.958 14.4912C32.0368 14.4124 32.1299 14.373 32.2373 14.373C32.359 14.373 32.4593 14.416 32.5381 14.502C32.5524 14.5163 32.6383 14.5915 32.7959 14.7275C32.9535 14.8564 33.1862 14.9961 33.4941 15.1465C33.8092 15.2969 34.2067 15.4329 34.6865 15.5547C35.1663 15.6764 35.7357 15.7373 36.3945 15.7373C37.2969 15.7373 38.1598 15.6156 38.9834 15.3721C39.807 15.1286 40.584 14.8135 41.3145 14.4268C42.0521 14.0329 42.736 13.5853 43.3662 13.084C44.0036 12.5827 44.5801 12.0742 45.0957 11.5586C44.5872 11.6016 44.0824 11.6338 43.5811 11.6553C43.0798 11.6768 42.5856 11.6875 42.0986 11.6875C41.139 11.6875 40.2259 11.6338 39.3594 11.5264C38.4928 11.4189 37.7301 11.2399 37.0713 10.9893C36.4124 10.7314 35.8861 10.3913 35.4922 9.96875C35.1055 9.54622 34.9121 9.01986 34.9121 8.38965C34.9121 8.10319 34.9694 7.81673 35.084 7.53027C35.2057 7.24382 35.349 6.986 35.5137 6.75684C35.6784 6.52051 35.8503 6.33073 36.0293 6.1875C36.2083 6.03711 36.3623 5.96191 36.4912 5.96191C36.5915 5.96191 36.6846 5.99772 36.7705 6.06934C36.8564 6.14095 36.8994 6.23763 36.8994 6.35938C36.8994 6.42383 36.8851 6.48828 36.8564 6.55273C36.8278 6.61003 36.7848 6.65658 36.7275 6.69238C36.7132 6.70671 36.6523 6.75684 36.5449 6.84277C36.4375 6.92871 36.3229 7.04688 36.2012 7.19727C36.0794 7.34049 35.9684 7.51595 35.8682 7.72363C35.7679 7.92415 35.7178 8.14258 35.7178 8.37891C35.7178 8.78711 35.8574 9.14876 36.1367 9.46387C36.4232 9.77181 36.835 10.0332 37.3721 10.248C37.9163 10.4557 38.5824 10.6133 39.3701 10.7207C40.1579 10.8281 41.0566 10.8818 42.0664 10.8818C42.6465 10.8818 43.2588 10.8639 43.9033 10.8281C44.5479 10.7923 45.2282 10.7386 45.9443 10.667C46.2881 10.2874 46.5924 9.92936 46.8574 9.59277C47.1224 9.25618 47.348 8.9554 47.5342 8.69043C47.8421 8.25358 48.1644 7.78809 48.501 7.29395C48.8376 6.7998 49.1706 6.2985 49.5 5.79004C49.8366 5.28158 50.1624 4.78027 50.4775 4.28613C50.7998 3.78483 51.1006 3.31576 51.3799 2.87891C51.6592 2.4349 51.9098 2.03385 52.1318 1.67578C52.3538 1.31055 52.5365 1.00977 52.6797 0.773438C52.7227 0.580078 52.7871 0.404622 52.873 0.24707C52.959 0.0823568 53.0986 0 53.292 0C53.3994 0 53.5033 0.0465495 53.6035 0.139648C53.7038 0.225586 53.7539 0.336589 53.7539 0.472656C53.7539 0.572917 53.7181 0.680339 53.6465 0.794922C53.5749 0.909505 53.5068 1.00618 53.4424 1.08496C53.4209 1.22103 53.3851 1.51107 53.335 1.95508C53.292 2.39909 53.2454 2.94336 53.1953 3.58789C53.1523 4.22526 53.113 4.93066 53.0771 5.7041C53.0485 6.47038 53.0342 7.2474 53.0342 8.03516C53.0342 8.32878 53.0342 8.61882 53.0342 8.90527C53.0342 9.19173 53.0413 9.48177 53.0557 9.77539C54.1299 9.63932 54.9141 9.54622 55.4082 9.49609C55.9023 9.4388 56.1637 9.41016 56.1924 9.41016C56.2855 9.41016 56.375 9.44954 56.4609 9.52832C56.554 9.59993 56.6006 9.69661 56.6006 9.81836C56.6006 9.91862 56.5648 10.0081 56.4932 10.0869C56.4287 10.1585 56.3428 10.2015 56.2354 10.2158C56.1064 10.2301 55.9561 10.248 55.7842 10.2695C55.6123 10.291 55.401 10.3161 55.1504 10.3447C54.8997 10.3734 54.6061 10.4092 54.2695 10.4521C53.9329 10.488 53.5391 10.5345 53.0879 10.5918C53.1094 11.179 53.1416 11.7448 53.1846 12.2891C53.2347 12.8262 53.292 13.3275 53.3564 13.793C53.4281 14.2585 53.5104 14.6774 53.6035 15.0498C53.6966 15.4222 53.804 15.7266 53.9258 15.9629ZM48.0713 10.4199C48.9163 10.3053 49.6826 10.2051 50.3701 10.1191C51.0648 10.026 51.6914 9.94368 52.25 9.87207C52.2428 9.56413 52.2357 9.25618 52.2285 8.94824C52.2285 8.6403 52.2285 8.32878 52.2285 8.01367C52.2285 7.00391 52.2464 6.04069 52.2822 5.12402C52.318 4.2002 52.3682 3.39811 52.4326 2.71777C52.1462 3.16895 51.8275 3.67025 51.4766 4.22168C51.1328 4.76595 50.7747 5.32454 50.4023 5.89746C50.0299 6.46322 49.654 7.02539 49.2744 7.58398C48.8949 8.14258 48.5332 8.66536 48.1895 9.15234C48.0176 9.39583 47.8421 9.63216 47.6631 9.86133C47.484 10.0905 47.305 10.3161 47.126 10.5381C47.2835 10.5238 47.4375 10.5059 47.5879 10.4844C47.7454 10.4629 47.9066 10.4414 48.0713 10.4199ZM58.7383 15.7051C58.7383 15.8698 58.681 16.0059 58.5664 16.1133C58.459 16.2279 58.3229 16.2852 58.1582 16.2852C57.9935 16.2852 57.8538 16.2279 57.7393 16.1133C57.6318 16.0059 57.5781 15.8698 57.5781 15.7051C57.5781 15.5475 57.6318 15.415 57.7393 15.3076C57.8538 15.193 57.9935 15.1357 58.1582 15.1357C58.3229 15.1357 58.459 15.193 58.5664 15.3076C58.681 15.415 58.7383 15.5475 58.7383 15.7051ZM63.0244 15.0605C63.1318 14.8457 63.2679 14.5807 63.4326 14.2656C63.6045 13.9434 63.7799 13.6211 63.959 13.2988C64.1452 12.9766 64.3242 12.6722 64.4961 12.3857C64.6751 12.0993 64.8255 11.8809 64.9473 11.7305C65.1549 11.4798 65.3698 11.3008 65.5918 11.1934C65.8138 11.0859 66.0179 11.0322 66.2041 11.0322C66.3903 11.0322 66.5479 11.0716 66.6768 11.1504C66.8128 11.2292 66.9238 11.3366 67.0098 11.4727C67.0957 11.6016 67.1602 11.7555 67.2031 11.9346C67.2461 12.1064 67.2676 12.2926 67.2676 12.4932C67.2676 12.6077 67.2604 12.7581 67.2461 12.9443C67.2389 13.1305 67.2282 13.3311 67.2139 13.5459C67.2067 13.7607 67.196 13.9827 67.1816 14.2119C67.1745 14.4411 67.1673 14.6559 67.1602 14.8564C67.2676 14.6416 67.3893 14.4053 67.5254 14.1475C67.6615 13.8825 67.7975 13.6211 67.9336 13.3633C68.0768 13.1055 68.2129 12.8656 68.3418 12.6436C68.4707 12.4144 68.5889 12.2282 68.6963 12.085C69.0042 11.6624 69.2907 11.3796 69.5557 11.2363C69.8278 11.0931 70.0677 11.0215 70.2754 11.0215C70.5189 11.0215 70.7194 11.068 70.877 11.1611C71.0345 11.2471 71.1562 11.3617 71.2422 11.5049C71.3353 11.641 71.3997 11.7949 71.4355 11.9668C71.4714 12.1387 71.4893 12.3034 71.4893 12.4609C71.4893 12.7044 71.4714 12.9587 71.4355 13.2236C71.3997 13.4886 71.3818 13.8037 71.3818 14.1689C71.3818 14.3193 71.389 14.4697 71.4033 14.6201C71.4176 14.7705 71.4463 14.903 71.4893 15.0176C71.5394 15.1322 71.6146 15.2253 71.7148 15.2969C71.8151 15.3685 71.9512 15.4043 72.123 15.4043C72.3092 15.4043 72.4919 15.3577 72.6709 15.2646C72.8499 15.1644 73.0218 15.0355 73.1865 14.8779C73.3512 14.7204 73.5052 14.5413 73.6484 14.3408C73.7988 14.1403 73.9349 13.9398 74.0566 13.7393C74.1784 13.5387 74.2858 13.349 74.3789 13.1699C74.472 12.9837 74.5472 12.8262 74.6045 12.6973C74.6403 12.6185 74.6904 12.5576 74.7549 12.5146C74.8193 12.4717 74.891 12.4502 74.9697 12.4502C75.0915 12.4502 75.1882 12.4967 75.2598 12.5898C75.3385 12.6758 75.3779 12.7689 75.3779 12.8691C75.3779 12.9193 75.3672 12.9694 75.3457 13.0195C75.3171 13.0768 75.2598 13.1986 75.1738 13.3848C75.0879 13.5638 74.9733 13.7715 74.8301 14.0078C74.6868 14.237 74.5186 14.4805 74.3252 14.7383C74.139 14.9961 73.9313 15.236 73.7021 15.458C73.473 15.6729 73.2259 15.8519 72.9609 15.9951C72.696 16.1312 72.4167 16.1992 72.123 16.1992C71.8079 16.1992 71.5501 16.1419 71.3496 16.0273C71.1562 15.9199 70.9987 15.7731 70.877 15.5869C70.7624 15.4007 70.6836 15.1859 70.6406 14.9424C70.5977 14.6989 70.5762 14.4447 70.5762 14.1797C70.5762 13.8288 70.5941 13.5065 70.6299 13.2129C70.6657 12.9121 70.6836 12.6794 70.6836 12.5146C70.6836 12.3356 70.6657 12.1995 70.6299 12.1064C70.6012 12.0133 70.5618 11.9489 70.5117 11.9131C70.4688 11.8701 70.4258 11.8486 70.3828 11.8486C70.3398 11.8415 70.3076 11.8379 70.2861 11.8379C70.1143 11.8379 69.9316 11.9346 69.7383 12.1279C69.5521 12.3141 69.3587 12.5648 69.1582 12.8799C68.9577 13.195 68.75 13.5531 68.5352 13.9541C68.3275 14.3551 68.1162 14.7633 67.9014 15.1787C67.7796 15.4079 67.6758 15.5977 67.5898 15.748C67.5111 15.8984 67.4323 16.0166 67.3535 16.1025C67.2819 16.1885 67.2103 16.2493 67.1387 16.2852C67.0671 16.321 66.9883 16.3389 66.9023 16.3389C66.7161 16.3389 66.5729 16.2744 66.4727 16.1455C66.3796 16.0166 66.333 15.8483 66.333 15.6406C66.333 15.5332 66.3366 15.39 66.3438 15.2109C66.3509 15.0319 66.3581 14.835 66.3652 14.6201C66.3724 14.4053 66.3831 14.1833 66.3975 13.9541C66.4118 13.7249 66.4225 13.5065 66.4297 13.2988C66.4368 13.084 66.444 12.8942 66.4512 12.7295C66.4583 12.5648 66.4619 12.4395 66.4619 12.3535C66.4619 12.1673 66.4297 12.0348 66.3652 11.9561C66.3008 11.8701 66.2256 11.8271 66.1396 11.8271C66.0609 11.8271 65.9714 11.8558 65.8711 11.9131C65.778 11.9704 65.667 12.0814 65.5381 12.2461C65.4378 12.375 65.3089 12.5648 65.1514 12.8154C65.001 13.0589 64.8398 13.3311 64.668 13.6318C64.4961 13.9326 64.3242 14.2406 64.1523 14.5557C63.9876 14.8708 63.8444 15.1536 63.7227 15.4043C63.5723 15.7051 63.4219 15.9092 63.2715 16.0166C63.1211 16.1312 62.9743 16.1885 62.8311 16.1885C62.6234 16.1885 62.4694 16.1276 62.3691 16.0059C62.2689 15.877 62.2188 15.7087 62.2188 15.501C62.2188 15.4795 62.2223 15.3506 62.2295 15.1143C62.2438 14.8779 62.2581 14.5915 62.2725 14.2549C62.2868 13.9111 62.3011 13.5459 62.3154 13.1592C62.3369 12.7725 62.3548 12.4108 62.3691 12.0742C62.3763 11.8952 62.3691 11.7305 62.3477 11.5801C62.3262 11.4297 62.2975 11.3402 62.2617 11.3115C62.2044 11.3258 62.0898 11.4583 61.918 11.709C61.7533 11.9596 61.542 12.3965 61.2842 13.0195C61.2484 13.0983 61.1947 13.1592 61.123 13.2021C61.0514 13.2451 60.9762 13.2666 60.8975 13.2666C60.7757 13.2666 60.679 13.2272 60.6074 13.1484C60.5358 13.0625 60.5 12.9658 60.5 12.8584C60.5 12.8083 60.5107 12.7546 60.5322 12.6973C60.8545 11.931 61.1624 11.3688 61.4561 11.0107C61.7497 10.6455 62.0361 10.4629 62.3154 10.4629C62.4801 10.4629 62.6162 10.5023 62.7236 10.5811C62.8382 10.6527 62.9277 10.7493 62.9922 10.8711C63.0566 10.9857 63.1032 11.1182 63.1318 11.2686C63.1605 11.4189 63.1748 11.5658 63.1748 11.709C63.1748 12.3464 63.1569 12.93 63.1211 13.46C63.0924 13.9899 63.0602 14.5234 63.0244 15.0605ZM82.9189 13.0195C82.8903 13.0768 82.8294 13.1986 82.7363 13.3848C82.6504 13.5638 82.5358 13.7715 82.3926 14.0078C82.2565 14.2441 82.0954 14.4912 81.9092 14.749C81.723 15.0068 81.5153 15.2432 81.2861 15.458C81.057 15.6729 80.8099 15.8519 80.5449 15.9951C80.2799 16.1312 80.0007 16.1992 79.707 16.1992C79.2917 16.1992 78.9408 16.0667 78.6543 15.8018C78.375 15.5368 78.1709 15.2038 78.042 14.8027C77.7985 15.2109 77.5085 15.5368 77.1719 15.7803C76.8353 16.0166 76.4987 16.1348 76.1621 16.1348C75.8971 16.1348 75.6572 16.0882 75.4424 15.9951C75.2275 15.8949 75.0449 15.7588 74.8945 15.5869C74.7441 15.4079 74.626 15.2002 74.54 14.9639C74.4613 14.7275 74.4219 14.4697 74.4219 14.1904C74.4219 13.6318 74.515 13.1413 74.7012 12.7188C74.8945 12.2891 75.138 11.931 75.4316 11.6445C75.7253 11.3581 76.0475 11.1432 76.3984 11C76.7565 10.8568 77.1003 10.7852 77.4297 10.7852C77.6517 10.7852 77.8558 10.8174 78.042 10.8818C78.2282 10.9391 78.3857 11.0036 78.5146 11.0752C78.6507 11.1468 78.7546 11.2148 78.8262 11.2793C78.8978 11.3366 78.9372 11.3688 78.9443 11.376C79.0231 11.4691 79.0625 11.5658 79.0625 11.666C79.0625 11.7734 79.0231 11.8701 78.9443 11.9561C78.8656 12.0348 78.7725 12.0742 78.665 12.0742C78.5505 12.0742 78.4538 12.0348 78.375 11.9561C78.3607 11.9417 78.3285 11.9167 78.2783 11.8809C78.2282 11.8379 78.1602 11.7949 78.0742 11.752C77.9883 11.709 77.8844 11.6732 77.7627 11.6445C77.6481 11.6087 77.5156 11.5908 77.3652 11.5908C77.1432 11.5908 76.9069 11.641 76.6562 11.7412C76.4056 11.8415 76.1764 11.999 75.9688 12.2139C75.7611 12.4215 75.5856 12.6865 75.4424 13.0088C75.3063 13.3239 75.2383 13.6999 75.2383 14.1367C75.2383 14.2728 75.2526 14.4124 75.2812 14.5557C75.3099 14.6917 75.36 14.8171 75.4316 14.9316C75.5033 15.0462 75.5999 15.1393 75.7217 15.2109C75.8434 15.2826 75.9938 15.3184 76.1729 15.3184C76.3018 15.3184 76.4486 15.2754 76.6133 15.1895C76.7852 15.1035 76.9463 14.971 77.0967 14.792C77.2542 14.613 77.3939 14.3874 77.5156 14.1152C77.6445 13.8431 77.734 13.5208 77.7842 13.1484C77.7985 13.0482 77.8451 12.9658 77.9238 12.9014C78.0026 12.8298 78.0957 12.7939 78.2031 12.7939C78.3034 12.7939 78.3893 12.8333 78.4609 12.9121C78.5397 12.9909 78.5827 13.0804 78.5898 13.1807C78.597 13.3167 78.6113 13.5101 78.6328 13.7607C78.6543 14.0042 78.7008 14.2477 78.7725 14.4912C78.8512 14.7347 78.9658 14.946 79.1162 15.125C79.2666 15.304 79.4743 15.3936 79.7393 15.3936C79.9111 15.3936 80.0794 15.347 80.2441 15.2539C80.416 15.1608 80.5807 15.0391 80.7383 14.8887C80.903 14.7311 81.057 14.5557 81.2002 14.3623C81.3506 14.1618 81.4867 13.9613 81.6084 13.7607C81.7301 13.5602 81.8376 13.3669 81.9307 13.1807C82.0238 12.9945 82.1025 12.8333 82.167 12.6973C82.2028 12.6185 82.2529 12.5576 82.3174 12.5146C82.389 12.4717 82.4642 12.4502 82.543 12.4502C82.6647 12.4502 82.7614 12.4967 82.833 12.5898C82.9118 12.6758 82.9512 12.7689 82.9512 12.8691C82.9512 12.9193 82.9404 12.9694 82.9189 13.0195ZM83.3057 11.6016C83.277 11.7949 83.2412 11.9775 83.1982 12.1494C83.1553 12.3141 83.1123 12.4609 83.0693 12.5898C83.0335 12.7116 83.0013 12.8118 82.9727 12.8906C82.944 12.9694 82.9261 13.0124 82.9189 13.0195C82.8473 13.1842 82.722 13.2666 82.543 13.2666C82.4427 13.2666 82.3496 13.2308 82.2637 13.1592C82.1777 13.0804 82.1348 12.9837 82.1348 12.8691C82.1348 12.8262 82.1419 12.7939 82.1562 12.7725C82.1706 12.751 82.1921 12.708 82.2207 12.6436C82.2493 12.5791 82.2852 12.4717 82.3281 12.3213C82.3711 12.1709 82.4248 11.9382 82.4893 11.623C82.3675 11.623 82.2422 11.6195 82.1133 11.6123C81.9844 11.6051 81.8662 11.5801 81.7588 11.5371C81.6442 11.4941 81.5511 11.4261 81.4795 11.333C81.4079 11.2399 81.3721 11.111 81.3721 10.9463C81.3721 10.8245 81.4079 10.6598 81.4795 10.4521C81.5439 10.2445 81.6335 10.0404 81.748 9.83984C81.8626 9.63932 81.9915 9.46745 82.1348 9.32422C82.278 9.17383 82.4212 9.09863 82.5645 9.09863C82.7292 9.09863 82.8617 9.15951 82.9619 9.28125C83.0693 9.40299 83.1517 9.55339 83.209 9.73242C83.2663 9.9043 83.3057 10.0869 83.3271 10.2803C83.3558 10.4736 83.3701 10.6419 83.3701 10.7852C83.4919 10.7852 83.61 10.7852 83.7246 10.7852C83.8464 10.778 83.9609 10.7744 84.0684 10.7744C84.4766 10.7744 84.7881 10.8639 85.0029 11.043C85.2178 11.222 85.3252 11.5156 85.3252 11.9238C85.3252 12.0885 85.3145 12.2604 85.293 12.4395C85.2715 12.6185 85.2464 12.8047 85.2178 12.998C85.1891 13.1842 85.1641 13.3704 85.1426 13.5566C85.1211 13.7428 85.1104 13.9255 85.1104 14.1045C85.1104 14.3623 85.1462 14.5771 85.2178 14.749C85.2894 14.9137 85.3789 15.0462 85.4863 15.1465C85.5938 15.2467 85.7083 15.3184 85.8301 15.3613C85.9518 15.3971 86.0628 15.415 86.1631 15.415C86.471 15.415 86.7611 15.3148 87.0332 15.1143C87.3053 14.9137 87.556 14.6738 87.7852 14.3945C88.0143 14.1081 88.2184 13.8073 88.3975 13.4922C88.5837 13.1771 88.7376 12.9014 88.8594 12.665C88.8952 12.6006 88.9453 12.5505 89.0098 12.5146C89.0742 12.4788 89.1423 12.4609 89.2139 12.4609C89.3428 12.4609 89.443 12.5039 89.5146 12.5898C89.5863 12.6686 89.6221 12.7581 89.6221 12.8584C89.6221 12.93 89.6077 12.9945 89.5791 13.0518C89.4144 13.3454 89.221 13.6784 88.999 14.0508C88.7842 14.416 88.5371 14.7598 88.2578 15.082C87.9785 15.4043 87.6634 15.6764 87.3125 15.8984C86.9688 16.1204 86.5892 16.2314 86.1738 16.2314C85.916 16.2314 85.6725 16.1813 85.4434 16.0811C85.2142 15.988 85.0137 15.8519 84.8418 15.6729C84.6771 15.4867 84.5446 15.2611 84.4443 14.9961C84.3441 14.724 84.2939 14.4196 84.2939 14.083C84.2939 13.7249 84.3298 13.3704 84.4014 13.0195C84.473 12.6615 84.5088 12.3213 84.5088 11.999C84.5088 11.863 84.4766 11.7627 84.4121 11.6982C84.3548 11.6266 84.2223 11.5908 84.0146 11.5908C83.9144 11.5908 83.8034 11.5908 83.6816 11.5908C83.5671 11.5908 83.4417 11.5944 83.3057 11.6016ZM82.5859 10.8066C82.5859 10.7565 82.5824 10.6921 82.5752 10.6133C82.5752 10.5273 82.568 10.445 82.5537 10.3662C82.5465 10.2874 82.5322 10.2194 82.5107 10.1621C82.4964 10.1048 82.4785 10.0762 82.457 10.0762C82.4355 10.0762 82.4069 10.1048 82.3711 10.1621C82.3424 10.2122 82.3102 10.2767 82.2744 10.3555C82.2386 10.4271 82.2064 10.5059 82.1777 10.5918C82.1491 10.6777 82.1276 10.7493 82.1133 10.8066H82.5859ZM91.5664 14.6953C91.6882 14.9674 91.8887 15.1859 92.168 15.3506C92.4473 15.5081 92.7624 15.5869 93.1133 15.5869C93.2207 15.5869 93.3962 15.5726 93.6396 15.5439C93.8831 15.5081 94.1624 15.4007 94.4775 15.2217C94.7998 15.0355 95.14 14.7454 95.498 14.3516C95.8561 13.9577 96.2035 13.4027 96.54 12.6865C96.5758 12.6077 96.626 12.5505 96.6904 12.5146C96.7549 12.4717 96.8265 12.4502 96.9053 12.4502C97.027 12.4502 97.1237 12.4932 97.1953 12.5791C97.2741 12.665 97.3135 12.7581 97.3135 12.8584C97.3135 12.9014 97.2992 12.9587 97.2705 13.0303C97.0199 13.5531 96.7406 14.0221 96.4326 14.4375C96.1247 14.8457 95.7917 15.1966 95.4336 15.4902C95.0755 15.7767 94.6995 15.9951 94.3057 16.1455C93.9189 16.3031 93.5215 16.3818 93.1133 16.3818C92.791 16.3818 92.4867 16.3317 92.2002 16.2314C91.9209 16.1312 91.6774 15.9987 91.4697 15.834C91.2692 15.6621 91.1081 15.4723 90.9863 15.2646C90.8717 15.0498 90.8145 14.8314 90.8145 14.6094C90.8145 14.5807 90.818 14.5413 90.8252 14.4912C90.8324 14.4411 90.8503 14.3874 90.8789 14.3301C90.9147 14.2656 90.9613 14.2083 91.0186 14.1582C91.083 14.1009 91.1689 14.0544 91.2764 14.0186C91.57 13.9326 91.8385 13.8288 92.082 13.707C92.3327 13.5781 92.5475 13.4349 92.7266 13.2773C92.9056 13.1198 93.0452 12.9479 93.1455 12.7617C93.2458 12.5684 93.2959 12.3607 93.2959 12.1387C93.2959 11.9453 93.2314 11.7878 93.1025 11.666C92.9736 11.5443 92.8161 11.4834 92.6299 11.4834C92.4365 11.4834 92.2467 11.5514 92.0605 11.6875C91.8743 11.8164 91.6917 11.9919 91.5127 12.2139C91.3408 12.4287 91.1761 12.6794 91.0186 12.9658C90.861 13.2451 90.7142 13.5387 90.5781 13.8467C90.4492 14.1546 90.3346 14.4626 90.2344 14.7705C90.1341 15.0713 90.0518 15.3506 89.9873 15.6084C89.9658 15.6872 89.9408 15.7731 89.9121 15.8662C89.8906 15.9593 89.8548 16.0452 89.8047 16.124C89.7546 16.21 89.6937 16.278 89.6221 16.3281C89.5505 16.3854 89.4574 16.4141 89.3428 16.4141C89.2354 16.4141 89.1315 16.3675 89.0312 16.2744C88.931 16.1885 88.8809 16.0381 88.8809 15.8232C88.8809 15.7803 88.8809 15.6156 88.8809 15.3291C88.888 15.0426 88.8952 14.6702 88.9023 14.2119C88.9095 13.7464 88.9167 13.2165 88.9238 12.6221C88.9382 12.0205 88.9489 11.3867 88.9561 10.7207C88.9632 10.0475 88.974 9.35645 88.9883 8.64746C89.0026 7.93848 89.0133 7.2474 89.0205 6.57422C89.0277 5.90104 89.0348 5.26367 89.042 4.66211C89.0563 4.05339 89.0671 3.51628 89.0742 3.05078C89.0814 2.57812 89.085 2.19499 89.085 1.90137C89.0921 1.60059 89.0957 1.42155 89.0957 1.36426C89.0957 1.24967 89.1387 1.15658 89.2246 1.08496C89.3105 1.00618 89.4036 0.966797 89.5039 0.966797C89.6185 0.966797 89.7152 1.00618 89.7939 1.08496C89.8727 1.15658 89.9121 1.25326 89.9121 1.375C89.9121 1.38932 89.9085 1.53255 89.9014 1.80469C89.9014 2.06966 89.8978 2.42773 89.8906 2.87891C89.8835 3.33008 89.8727 3.85645 89.8584 4.45801C89.8512 5.05957 89.8405 5.70052 89.8262 6.38086C89.819 7.05404 89.8083 7.7487 89.7939 8.46484C89.7868 9.18099 89.776 9.87923 89.7617 10.5596C89.7546 11.2399 89.7474 11.888 89.7402 12.5039C89.7331 13.1198 89.7259 13.6641 89.7188 14.1367C89.8333 13.7715 89.9801 13.3883 90.1592 12.9873C90.3382 12.5791 90.5495 12.2031 90.793 11.8594C91.0365 11.5156 91.3086 11.2327 91.6094 11.0107C91.9173 10.7887 92.2575 10.6777 92.6299 10.6777C92.8376 10.6777 93.0309 10.7171 93.21 10.7959C93.389 10.8675 93.543 10.9714 93.6719 11.1074C93.8079 11.2363 93.9118 11.3903 93.9834 11.5693C94.0622 11.7484 94.1016 11.9417 94.1016 12.1494C94.1016 12.4717 94.0299 12.7689 93.8867 13.041C93.7435 13.306 93.5537 13.5459 93.3174 13.7607C93.0811 13.9684 92.8089 14.151 92.501 14.3086C92.2002 14.4661 91.8887 14.5951 91.5664 14.6953ZM97.8398 14.835C97.9902 15.0426 98.1836 15.2109 98.4199 15.3398C98.6562 15.4616 98.9463 15.5225 99.29 15.5225C99.641 15.5225 99.9596 15.4401 100.246 15.2754C100.533 15.1035 100.794 14.8815 101.03 14.6094C101.267 14.3372 101.478 14.0329 101.664 13.6963C101.85 13.3597 102.019 13.0231 102.169 12.6865C102.205 12.6077 102.255 12.5505 102.319 12.5146C102.384 12.4717 102.455 12.4502 102.534 12.4502C102.656 12.4502 102.753 12.4932 102.824 12.5791C102.903 12.665 102.942 12.7581 102.942 12.8584C102.942 12.8942 102.939 12.9264 102.932 12.9551C102.924 12.9766 102.914 13.0016 102.899 13.0303C102.405 14.1188 101.865 14.9388 101.277 15.4902C100.697 16.0417 100.038 16.3245 99.3008 16.3389C98.8281 16.3389 98.4199 16.2458 98.0762 16.0596C97.7324 15.8805 97.4495 15.6478 97.2275 15.3613C97.0055 15.0677 96.8408 14.7383 96.7334 14.373C96.626 14.0078 96.5723 13.6426 96.5723 13.2773C96.5723 12.9121 96.6152 12.5755 96.7012 12.2676C96.7943 11.9596 96.9232 11.6911 97.0879 11.4619C97.2598 11.2327 97.4603 11.0537 97.6895 10.9248C97.9258 10.7959 98.1836 10.7314 98.4629 10.7314C98.6276 10.7314 98.7887 10.7673 98.9463 10.8389C99.111 10.9033 99.2578 11 99.3867 11.1289C99.5156 11.2507 99.6195 11.401 99.6982 11.5801C99.777 11.7591 99.8164 11.9632 99.8164 12.1924C99.8164 12.486 99.7663 12.7617 99.666 13.0195C99.5658 13.2773 99.4261 13.5173 99.2471 13.7393C99.0752 13.9613 98.8675 14.1654 98.624 14.3516C98.3805 14.5378 98.1191 14.6989 97.8398 14.835ZM97.5176 14.1367C97.7396 14.0436 97.9401 13.9255 98.1191 13.7822C98.3053 13.639 98.4629 13.4814 98.5918 13.3096C98.7207 13.1377 98.821 12.9587 98.8926 12.7725C98.9642 12.5791 99 12.3857 99 12.1924C99 11.9775 98.9463 11.8164 98.8389 11.709C98.7314 11.5944 98.6061 11.5371 98.4629 11.5371C98.2695 11.5371 98.1048 11.5908 97.9688 11.6982C97.8327 11.8057 97.7217 11.9453 97.6357 12.1172C97.5498 12.2891 97.4854 12.4824 97.4424 12.6973C97.4066 12.9049 97.3887 13.1126 97.3887 13.3203C97.3887 13.4492 97.3994 13.5853 97.4209 13.7285C97.4495 13.8717 97.4818 14.0078 97.5176 14.1367ZM104.661 15.0605C104.769 14.8457 104.905 14.5807 105.069 14.2656C105.241 13.9434 105.417 13.6211 105.596 13.2988C105.782 12.9766 105.961 12.6722 106.133 12.3857C106.312 12.0993 106.462 11.8809 106.584 11.7305C106.792 11.4798 107.007 11.3008 107.229 11.1934C107.451 11.0859 107.655 11.0322 107.841 11.0322C108.027 11.0322 108.185 11.0716 108.313 11.1504C108.45 11.2292 108.561 11.3366 108.646 11.4727C108.732 11.6016 108.797 11.7555 108.84 11.9346C108.883 12.1064 108.904 12.2926 108.904 12.4932C108.904 12.6077 108.897 12.7581 108.883 12.9443C108.876 13.1305 108.865 13.3311 108.851 13.5459C108.843 13.7607 108.833 13.9827 108.818 14.2119C108.811 14.4411 108.804 14.6559 108.797 14.8564C108.904 14.6416 109.026 14.4053 109.162 14.1475C109.298 13.8825 109.434 13.6211 109.57 13.3633C109.714 13.1055 109.85 12.8656 109.979 12.6436C110.107 12.4144 110.226 12.2282 110.333 12.085C110.641 11.6624 110.927 11.3796 111.192 11.2363C111.465 11.0931 111.704 11.0215 111.912 11.0215C112.156 11.0215 112.356 11.068 112.514 11.1611C112.671 11.2471 112.793 11.3617 112.879 11.5049C112.972 11.641 113.036 11.7949 113.072 11.9668C113.108 12.1387 113.126 12.3034 113.126 12.4609C113.126 12.7044 113.108 12.9587 113.072 13.2236C113.036 13.4886 113.019 13.8037 113.019 14.1689C113.019 14.3193 113.026 14.4697 113.04 14.6201C113.054 14.7705 113.083 14.903 113.126 15.0176C113.176 15.1322 113.251 15.2253 113.352 15.2969C113.452 15.3685 113.588 15.4043 113.76 15.4043C113.946 15.4043 114.129 15.3577 114.308 15.2646C114.487 15.1644 114.659 15.0355 114.823 14.8779C114.988 14.7204 115.142 14.5413 115.285 14.3408C115.436 14.1403 115.572 13.9398 115.693 13.7393C115.815 13.5387 115.923 13.349 116.016 13.1699C116.109 12.9837 116.184 12.8262 116.241 12.6973C116.277 12.6185 116.327 12.5576 116.392 12.5146C116.456 12.4717 116.528 12.4502 116.606 12.4502C116.728 12.4502 116.825 12.4967 116.896 12.5898C116.975 12.6758 117.015 12.7689 117.015 12.8691C117.015 12.9193 117.004 12.9694 116.982 13.0195C116.954 13.0768 116.896 13.1986 116.811 13.3848C116.725 13.5638 116.61 13.7715 116.467 14.0078C116.324 14.237 116.155 14.4805 115.962 14.7383C115.776 14.9961 115.568 15.236 115.339 15.458C115.11 15.6729 114.863 15.8519 114.598 15.9951C114.333 16.1312 114.053 16.1992 113.76 16.1992C113.445 16.1992 113.187 16.1419 112.986 16.0273C112.793 15.9199 112.635 15.7731 112.514 15.5869C112.399 15.4007 112.32 15.1859 112.277 14.9424C112.234 14.6989 112.213 14.4447 112.213 14.1797C112.213 13.8288 112.231 13.5065 112.267 13.2129C112.302 12.9121 112.32 12.6794 112.32 12.5146C112.32 12.3356 112.302 12.1995 112.267 12.1064C112.238 12.0133 112.199 11.9489 112.148 11.9131C112.105 11.8701 112.062 11.8486 112.02 11.8486C111.977 11.8415 111.944 11.8379 111.923 11.8379C111.751 11.8379 111.568 11.9346 111.375 12.1279C111.189 12.3141 110.995 12.5648 110.795 12.8799C110.594 13.195 110.387 13.5531 110.172 13.9541C109.964 14.3551 109.753 14.7633 109.538 15.1787C109.416 15.4079 109.312 15.5977 109.227 15.748C109.148 15.8984 109.069 16.0166 108.99 16.1025C108.919 16.1885 108.847 16.2493 108.775 16.2852C108.704 16.321 108.625 16.3389 108.539 16.3389C108.353 16.3389 108.21 16.2744 108.109 16.1455C108.016 16.0166 107.97 15.8483 107.97 15.6406C107.97 15.5332 107.973 15.39 107.98 15.2109C107.988 15.0319 107.995 14.835 108.002 14.6201C108.009 14.4053 108.02 14.1833 108.034 13.9541C108.049 13.7249 108.059 13.5065 108.066 13.2988C108.074 13.084 108.081 12.8942 108.088 12.7295C108.095 12.5648 108.099 12.4395 108.099 12.3535C108.099 12.1673 108.066 12.0348 108.002 11.9561C107.938 11.8701 107.862 11.8271 107.776 11.8271C107.698 11.8271 107.608 11.8558 107.508 11.9131C107.415 11.9704 107.304 12.0814 107.175 12.2461C107.075 12.375 106.946 12.5648 106.788 12.8154C106.638 13.0589 106.477 13.3311 106.305 13.6318C106.133 13.9326 105.961 14.2406 105.789 14.5557C105.624 14.8708 105.481 15.1536 105.359 15.4043C105.209 15.7051 105.059 15.9092 104.908 16.0166C104.758 16.1312 104.611 16.1885 104.468 16.1885C104.26 16.1885 104.106 16.1276 104.006 16.0059C103.906 15.877 103.855 15.7087 103.855 15.501C103.855 15.4795 103.859 15.3506 103.866 15.1143C103.881 14.8779 103.895 14.5915 103.909 14.2549C103.924 13.9111 103.938 13.5459 103.952 13.1592C103.974 12.7725 103.992 12.4108 104.006 12.0742C104.013 11.8952 104.006 11.7305 103.984 11.5801C103.963 11.4297 103.934 11.3402 103.898 11.3115C103.841 11.3258 103.727 11.4583 103.555 11.709C103.39 11.9596 103.179 12.3965 102.921 13.0195C102.885 13.0983 102.831 13.1592 102.76 13.2021C102.688 13.2451 102.613 13.2666 102.534 13.2666C102.412 13.2666 102.316 13.2272 102.244 13.1484C102.173 13.0625 102.137 12.9658 102.137 12.8584C102.137 12.8083 102.147 12.7546 102.169 12.6973C102.491 11.931 102.799 11.3688 103.093 11.0107C103.386 10.6455 103.673 10.4629 103.952 10.4629C104.117 10.4629 104.253 10.5023 104.36 10.5811C104.475 10.6527 104.564 10.7493 104.629 10.8711C104.693 10.9857 104.74 11.1182 104.769 11.2686C104.797 11.4189 104.812 11.5658 104.812 11.709C104.812 12.3464 104.794 12.93 104.758 13.46C104.729 13.9899 104.697 14.5234 104.661 15.0605ZM121.204 14.835C121.025 14.835 120.868 14.8206 120.731 14.792C120.624 15.0068 120.495 15.2074 120.345 15.3936C120.194 15.5726 120.019 15.7301 119.818 15.8662C119.625 16.0023 119.407 16.1097 119.163 16.1885C118.92 16.2673 118.655 16.3066 118.368 16.3066C118.032 16.3066 117.724 16.2458 117.444 16.124C117.165 16.0094 116.922 15.8483 116.714 15.6406C116.506 15.4258 116.345 15.1715 116.23 14.8779C116.116 14.5771 116.059 14.2477 116.059 13.8896C116.059 13.4313 116.141 13.0339 116.306 12.6973C116.47 12.3535 116.66 12.0706 116.875 11.8486C117.09 11.6195 117.305 11.4512 117.52 11.3438C117.734 11.2292 117.896 11.1719 118.003 11.1719C118.125 11.1719 118.214 11.2041 118.271 11.2686C118.336 11.333 118.368 11.4189 118.368 11.5264C118.368 11.6481 118.329 11.7412 118.25 11.8057C118.178 11.863 118.085 11.9202 117.971 11.9775C117.856 12.0348 117.734 12.1172 117.605 12.2246C117.477 12.3249 117.355 12.4538 117.24 12.6113C117.133 12.7689 117.043 12.9551 116.972 13.1699C116.9 13.3848 116.864 13.6247 116.864 13.8896C116.864 14.126 116.9 14.348 116.972 14.5557C117.043 14.7562 117.147 14.9316 117.283 15.082C117.419 15.2253 117.58 15.3398 117.767 15.4258C117.953 15.5046 118.16 15.5439 118.39 15.5439C118.798 15.5439 119.134 15.4508 119.399 15.2646C119.672 15.0713 119.879 14.8278 120.022 14.5342C119.6 14.3122 119.253 13.9971 118.98 13.5889C118.708 13.1807 118.572 12.7223 118.572 12.2139C118.572 11.8057 118.669 11.4727 118.862 11.2148C119.063 10.957 119.324 10.8281 119.646 10.8281C119.84 10.8281 120.022 10.8747 120.194 10.9678C120.366 11.0609 120.517 11.2077 120.646 11.4082C120.782 11.6087 120.889 11.8665 120.968 12.1816C121.047 12.4967 121.086 12.8727 121.086 13.3096C121.086 13.5387 121.057 13.7786 121 14.0293C121.043 14.0365 121.086 14.04 121.129 14.04C121.172 14.04 121.218 14.04 121.269 14.04C121.512 14.04 121.73 14.0114 121.924 13.9541C122.117 13.8968 122.293 13.8109 122.45 13.6963C122.608 13.5817 122.747 13.4349 122.869 13.2559C122.998 13.0768 123.12 12.8691 123.234 12.6328C123.256 12.5898 123.302 12.5505 123.374 12.5146C123.446 12.4717 123.517 12.4502 123.589 12.4502C123.682 12.4502 123.768 12.4896 123.847 12.5684C123.933 12.64 123.976 12.7367 123.976 12.8584C123.976 12.9157 123.961 12.9801 123.933 13.0518C123.904 13.1162 123.875 13.1771 123.847 13.2344C123.725 13.4492 123.582 13.6569 123.417 13.8574C123.259 14.0508 123.07 14.2227 122.848 14.373C122.633 14.5163 122.389 14.6309 122.117 14.7168C121.845 14.8027 121.541 14.8421 121.204 14.835ZM119.367 12.1279C119.367 12.264 119.385 12.4072 119.421 12.5576C119.457 12.708 119.51 12.8584 119.582 13.0088C119.661 13.152 119.754 13.2917 119.861 13.4277C119.976 13.5566 120.108 13.6676 120.259 13.7607C120.28 13.6104 120.291 13.4635 120.291 13.3203C120.291 13.127 120.277 12.93 120.248 12.7295C120.219 12.529 120.176 12.3464 120.119 12.1816C120.069 12.0098 120.005 11.8737 119.926 11.7734C119.847 11.666 119.754 11.6123 119.646 11.6123C119.604 11.6123 119.546 11.6445 119.475 11.709C119.403 11.7734 119.367 11.9131 119.367 12.1279Z" fill="white"/>
</svg>
