<svg width="122" height="121" viewBox="0 0 122 121" fill="none" xmlns="http://www.w3.org/2000/svg">
<path d="M61.6484 60.101C62.249 55.8973 61.8987 18.314 61.6484 0.0478516" stroke="#4BBEDD" stroke-width="7"/>
<path d="M61.872 60.6231C64.6798 57.4375 85.0009 25.8198 94.8105 10.4092" stroke="#4BBEDD" stroke-width="7"/>
<path d="M61.7738 61.1809C65.8688 60.0574 100.202 44.766 116.857 37.2607" stroke="#4BBEDD" stroke-width="7"/>
<path d="M61.3839 61.5939C65.4243 62.9005 102.52 68.9462 120.562 71.8057" stroke="#4BBEDD" stroke-width="7"/>
<path d="M60.8333 61.7261C63.4951 65.0347 91.1967 90.4364 104.715 102.724" stroke="#4BBEDD" stroke-width="7"/>
<path d="M60.2969 61.5348C60.7077 65.7613 69.9381 102.195 74.502 119.884" stroke="#4BBEDD" stroke-width="7"/>
<path d="M59.9562 61.0809C57.9816 64.8402 45.716 100.367 39.8301 117.661" stroke="#4BBEDD" stroke-width="7"/>
<path d="M59.9209 60.5132C56.2079 62.5736 26.4656 85.5523 12.0586 96.7842" stroke="#4BBEDD" stroke-width="7"/>
<path d="M60.1999 60.0205C55.9651 59.7067 18.4922 62.6072 0.285156 64.0967" stroke="#4BBEDD" stroke-width="7"/>
<path d="M60.7069 59.7619C57.3381 57.1768 24.414 39.0486 8.37305 30.3076" stroke="#4BBEDD" stroke-width="7"/>
<path d="M61.2719 59.8223C59.8729 55.8129 42.2864 22.5964 33.668 6.48926" stroke="#4BBEDD" stroke-width="7"/>
<circle cx="60.7637" cy="60.9229" r="7.5" fill="#4BBEDD" stroke="#4BBEDD" stroke-width="2"/>
</svg>
