<svg width="60" height="61" viewBox="0 0 60 61" fill="none" xmlns="http://www.w3.org/2000/svg">
<path d="M0.755859 40.4544H8.93306C10.3169 39.5391 13.7639 38.1203 16.4813 39.7679C19.1986 41.4155 20.5489 44.2073 20.8844 45.3972C23.7778 46.6329 29.6654 49.4888 30.068 51.0265C30.4706 52.5643 30.5712 54.7794 30.5712 55.6947C30.5712 55.6947 23.2872 52.2638 18.6199 50.0654" stroke="#013A65"/>
<path d="M0 54.1846H7.67399L21.0091 60.5004H34.5959L43.4021 55.8322C43.9892 54.4592 44.3079 51.6858 40.886 51.5759C37.4642 51.4661 35.0991 52.8116 34.3443 53.4981" stroke="#013A65"/>
<path d="M59.2441 20.546H51.0669C49.6831 21.4614 46.2361 22.8801 43.5187 21.2325C40.8014 19.585 39.4511 16.7932 39.1156 15.6033C36.2222 14.3676 30.3346 11.5117 29.932 9.97398C29.5294 8.43623 29.4288 6.22113 29.4288 5.3058C29.4288 5.3058 36.7128 8.73671 41.3801 10.9351" stroke="#013A65"/>
<path d="M60 6.81588H52.326L38.9909 0.500106H25.4041L16.5979 5.16829C16.0108 6.54128 15.6921 9.31473 19.114 9.42457C22.5358 9.53441 24.9009 8.18888 25.6557 7.50238" stroke="#013A65"/>
<path d="M9.68595 35.9236C9.35048 30.8435 9.83692 19.887 14.4665 16.7017" stroke="#013A65"/>
<path d="M16.9834 13.6313C17.2227 13.6316 17.4893 13.8577 17.4893 14.23C17.4891 14.6022 17.2227 14.8284 16.9834 14.8286C16.744 14.8286 16.4767 14.6024 16.4766 14.23C16.4766 13.8574 16.744 13.6313 16.9834 13.6313Z" fill="#D9D9D9" stroke="#013A65"/>
<path d="M50.1949 25.7634C50.5304 30.8435 50.0439 41.8 45.4144 44.9854" stroke="#013A65"/>
<path d="M42.8994 48.0549C42.6601 48.0547 42.3936 47.8286 42.3936 47.4563C42.3937 47.0841 42.6601 46.8579 42.8994 46.8577C43.1388 46.8577 43.4061 47.0839 43.4062 47.4563C43.4062 47.8288 43.1388 48.0549 42.8994 48.0549Z" fill="#D9D9D9" stroke="#013A65"/>
<path d="M27.0488 40.729V33.7267H20.6328V27.1363H27.0488V20.8206H32.7099V27.5482H38.4969V33.7267H32.7099V40.729H27.0488Z" stroke="#013A65"/>
</svg>
