<svg width="61" height="62" viewBox="0 0 61 62" fill="none" xmlns="http://www.w3.org/2000/svg">
<path d="M0.0273438 31.2846C1.67727 31.2444 5.17029 29.9084 5.94294 24.8862C5.9027 26.8581 6.88461 30.8983 11.1342 31.2846C9.28304 32.3309 5.6532 35.1961 5.94294 38.2866C6.14415 36.0734 5.24273 31.5744 0.0273438 31.2846Z" stroke="#013A65"/>
<path d="M47.834 31.2846C49.4839 31.2444 52.9769 29.9084 53.7496 24.8862C53.7093 26.8581 54.6912 30.8983 58.9408 31.2846C57.0897 32.3309 53.4598 35.1961 53.7496 38.2866C53.9508 36.0734 53.0494 31.5744 47.834 31.2846Z" stroke="#013A65"/>
<path d="M44.9395 11.2446C46.5894 11.2043 50.0824 9.86832 50.8551 4.84619C50.8148 6.81802 51.7967 10.8583 56.0463 11.2446C54.1952 12.2909 50.5653 15.1561 50.8551 18.2466C51.0563 16.0333 50.1548 11.5343 44.9395 11.2446Z" stroke="#013A65"/>
<path d="M0.269531 44.8058C5.95372 42.3418 9.70789 40.7144 14.5153 38.6305M24.777 34.1821L25.9843 28.9909L27.9159 28.1577M24.777 34.1821L29.4853 46.2545M24.777 34.1821L19.1029 36.6418M29.4853 46.2545L18.9663 50.8185M29.4853 46.2545L34.4351 46.7959M0.269531 58.9306L18.9663 50.8185M19.1029 36.6418L22.2418 45.2887M19.1029 36.6418C17.4322 37.366 15.9282 38.0179 14.5153 38.6305M14.5153 38.6305L18.9663 50.8185M40.23 40.7012L44.9164 38.8903M44.9164 38.8903L46.387 42.2706L39.7471 45.7653M44.9164 38.8903C44.0244 36.8401 43.2677 35.1008 42.5528 33.4577M38.0569 35.3893L42.5528 33.4577M42.5528 33.4577C41.8244 31.7835 41.1395 30.2093 40.3993 28.508M36.1253 30.3189L40.3993 28.508M40.3993 28.508C39.7612 27.0413 39.082 25.4802 38.2984 23.6791L32.8657 26.0225M34.4351 46.7959L37.2118 47.0996L39.7471 45.7653M34.4351 46.7959L36.8497 52.4115L33.4693 57.2404L34.4351 60.5L49.1638 54.4638L47.8358 51.5664L42.0409 50.8185L39.7471 45.7653M32.8657 26.0225L31.417 23.6791C33.7108 21.3451 38.0811 15.7354 37.2118 11.9688M32.8657 26.0225L27.9159 28.1577M37.2118 11.9688L34.4351 4.2105M37.2118 11.9688C39.3849 10.8823 42.6445 8.10563 40.8336 4.9668C39.749 3.08687 36.246 3.61753 34.4351 4.2105M14.8774 21.0231C16.6883 22.8742 21.5898 26.3592 26.7086 25.4899L27.9159 28.1577M14.8774 21.0231L10.7649 12.331M14.8774 21.0231C12.3422 22.4718 7.39239 23.3169 6.42658 19.0915C5.79191 16.3149 8.72038 13.0553 10.7649 12.331M10.7649 12.331L9.56547 9.79577L10.2898 8.22636L31.0548 0.5H33.1071L34.4351 4.2105M29.9682 5.32897C31.5377 7.42153 33.7349 12.8863 29.9682 18.005" stroke="#013A65"/>
</svg>
