<svg width="58" height="60" viewBox="0 0 58 60" fill="none" xmlns="http://www.w3.org/2000/svg">
<path d="M53.0254 38.1784C53.0254 38.1784 54.7222 36.7848 54.8613 35.536C55.0816 33.5565 51.4055 31.7854 51.4055 31.7854H30.6711C31.535 30.6488 33.3925 27.2506 33.9108 22.7499C34.4292 18.2491 29.7352 16.0443 27.3234 15.5044C24.9524 18.8817 19.152 27.9779 14.9043 31.7854V55.9085L21.1678 59.1476L44.926 58.6362C44.926 58.6362 47.6445 57.4692 47.9498 55.9085C48.2797 54.2213 45.7899 52.0726 45.7899 52.0726M53.0254 38.1784H40.3904M53.0254 38.1784C53.0254 38.1784 57.664 39.9251 57.4531 42.27C57.2575 44.4436 53.0254 45.6796 53.0254 45.6796H50.4336M38.5545 45.6796H50.4336M50.4336 45.6796C50.4336 45.6796 51.8685 48.0411 51.4055 49.5154C50.9612 50.9304 48.5977 52.0726 48.5977 52.0726H45.7899M33.9108 52.0726H45.7899" stroke="#013A65"/>
<rect x="0.5" y="26.9153" width="13.9029" height="32.5848" rx="6.95143" stroke="#013A65"/>
<path d="M6.66895 9.06079C7.26951 8.29451 8.42971 8.29451 9.03027 9.06079L9.72363 9.94556C10.0488 10.3604 10.4972 10.6619 11.0039 10.8069L11.8496 11.0491C12.8849 11.3453 13.2806 12.6038 12.6006 13.4387L12.2363 13.886C11.8674 14.3388 11.6689 14.9064 11.6748 15.4905L11.6816 16.219C11.6917 17.2325 10.7148 17.9635 9.74512 17.6682L8.57812 17.3137C8.10316 17.169 7.59607 17.169 7.12109 17.3137L5.9541 17.6682C4.98439 17.9637 4.00753 17.2326 4.01758 16.219L4.02441 15.4905C4.03036 14.9065 3.83177 14.3388 3.46289 13.886L3.09863 13.4387C2.41852 12.6039 2.81339 11.3454 3.84863 11.0491L4.69531 10.8069C5.20191 10.6618 5.64954 10.3603 5.97461 9.94556L6.66895 9.06079Z" stroke="#013A65"/>
<path d="M25.5518 2.31738C26.1523 1.55111 27.3125 1.55111 27.9131 2.31738L28.6064 3.20215C28.9316 3.61698 29.38 3.91844 29.8867 4.06348L30.7324 4.30566C31.7677 4.60188 32.1634 5.86041 31.4834 6.69531L31.1191 7.14258C30.7502 7.5954 30.5517 8.163 30.5576 8.74707L30.5645 9.47559C30.5745 10.4891 29.5976 11.2201 28.6279 10.9248L27.4609 10.5703C26.986 10.4256 26.4789 10.4256 26.0039 10.5703L24.8369 10.9248C23.8672 11.2203 22.8903 10.4892 22.9004 9.47559L22.9072 8.74707C22.9132 8.16306 22.7146 7.59538 22.3457 7.14258L21.9814 6.69531C21.3013 5.86046 21.6962 4.60199 22.7314 4.30566L23.5781 4.06348C24.0847 3.91842 24.5324 3.61691 24.8574 3.20215L25.5518 2.31738Z" stroke="#013A65"/>
<path d="M44.4326 9.06079C45.0332 8.29451 46.1934 8.29451 46.7939 9.06079L47.4873 9.94556C47.8124 10.3604 48.2609 10.6619 48.7676 10.8069L49.6133 11.0491C50.6486 11.3453 51.0443 12.6038 50.3643 13.4387L50 13.886C49.6311 14.3388 49.4325 14.9064 49.4385 15.4905L49.4453 16.219C49.4554 17.2325 48.4784 17.9635 47.5088 17.6682L46.3418 17.3137C45.8668 17.169 45.3597 17.169 44.8848 17.3137L43.7178 17.6682C42.7481 17.9637 41.7712 17.2326 41.7812 16.219L41.7881 15.4905C41.794 14.9065 41.5954 14.3388 41.2266 13.886L40.8623 13.4387C40.1822 12.6039 40.5771 11.3454 41.6123 11.0491L42.459 10.8069C42.9656 10.6618 43.4132 10.3603 43.7383 9.94556L44.4326 9.06079Z" stroke="#013A65"/>
</svg>
