<svg width="61" height="61" viewBox="0 0 61 61" fill="none" xmlns="http://www.w3.org/2000/svg">
<path d="M9.09287 28.2768L5.26894 18.9203C4.78172 17.7282 3.43288 17.1418 2.2288 17.5988M13.6689 50.2645H26.284M13.6689 50.2645C13.6689 47.928 12.6946 45.6973 10.9806 44.1094L6.91629 40.3444C5.27341 38.8224 4.13421 36.8353 3.65094 34.6486L0.564008 20.6806C0.277131 19.3825 0.985892 18.0705 2.2288 17.5988M13.6689 50.2645C12.617 50.7251 11.9374 51.7646 11.9374 52.9129V59.3259C11.9374 59.6701 12.0884 59.9969 12.3504 60.22C12.5628 60.4009 12.8327 60.5002 13.1117 60.5002H26.3299C26.6169 60.5002 26.8918 60.3846 27.0926 60.1795C27.2878 59.98 27.3971 59.7121 27.3971 59.433V52.3695C27.3971 51.5269 26.9803 50.7389 26.284 50.2645M26.284 50.2645V40.9045C26.284 39.4915 26.0335 38.0707 25.2043 36.9266C23.4695 34.533 19.7816 30.9296 13.2979 27.7713M13.2979 27.7713L8.6252 15.48C7.8989 13.5695 6.51929 11.5523 4.52866 12.0159C2.50844 12.4864 1.93751 15.1753 2.18504 17.2347L2.2288 17.5988M13.2979 27.7713C9.16978 27.7921 9.73235 32.1126 12.9642 34.681L16.5135 37.5015" stroke="#013A65"/>
<path d="M51.036 28.2768L54.86 18.9203C55.3472 17.7282 56.696 17.1418 57.9001 17.5988M46.46 50.2645H33.8449M46.46 50.2645C46.46 47.928 47.4343 45.6973 49.1483 44.1094L53.2126 40.3444C54.8555 38.8224 55.9947 36.8353 56.478 34.6486L59.5649 20.6806C59.8518 19.3825 59.143 18.0705 57.9001 17.5988M46.46 50.2645C47.5119 50.7251 48.1915 51.7646 48.1915 52.9129V59.3259C48.1915 59.6701 48.0405 59.9969 47.7785 60.22C47.5661 60.4009 47.2962 60.5002 47.0172 60.5002H33.799C33.512 60.5002 33.2371 60.3846 33.0363 60.1795C32.8412 59.98 32.7319 59.7121 32.7319 59.433V52.3695C32.7319 51.5269 33.1486 50.7389 33.8449 50.2645M33.8449 50.2645V40.9045C33.8449 39.4915 34.0954 38.0707 34.9246 36.9266C36.6594 34.533 40.3473 30.9296 46.831 27.7713M46.831 27.7713L51.5037 15.48C52.23 13.5695 53.6096 11.5523 55.6003 12.0159C57.6205 12.4864 58.1914 15.1753 57.9439 17.2347L57.9001 17.5988M46.831 27.7713C50.9591 27.7921 50.3966 32.1126 47.1647 34.681L43.6154 37.5015" stroke="#013A65"/>
<path d="M44.4873 3.00246C43.7076 2.20911 42.7819 1.57976 41.763 1.15038C40.7441 0.721003 39.652 0.5 38.5492 0.5C37.4463 0.5 36.3542 0.721003 35.3353 1.15038C34.3165 1.57976 33.3907 2.20911 32.6111 3.00246L30.993 4.64818L29.3749 3.00246C27.8 1.40069 25.664 0.50083 23.4368 0.50083C21.2096 0.50083 19.0736 1.40069 17.4987 3.00246C15.9238 4.60423 15.0391 6.77669 15.0391 9.04194C15.0391 11.3072 15.9238 13.4796 17.4987 15.0814L30.993 28.8061L44.4873 15.0814C45.2673 14.2884 45.8861 13.3469 46.3082 12.3106C46.7304 11.2744 46.9477 10.1636 46.9477 9.04194C46.9477 7.92023 46.7304 6.80951 46.3082 5.77324C45.8861 4.73696 45.2673 3.79544 44.4873 3.00246Z" stroke="#013A65" stroke-linecap="round" stroke-linejoin="round"/>
<path d="M31.0324 8.5V19.1667M25.8711 13.8333H36.1937" stroke="#013A65" stroke-linecap="round" stroke-linejoin="round"/>
</svg>
