<svg width="29" height="28" viewBox="0 0 29 28" fill="none" xmlns="http://www.w3.org/2000/svg">
<path d="M17.2657 5.66058C18.5314 5.90644 19.6946 6.52272 20.6065 7.43056C21.5184 8.33839 22.1374 9.49648 22.3843 10.7566M17.2657 0.500061C19.8954 0.790903 22.3475 1.96329 24.2195 3.82474C26.0916 5.68618 27.2722 8.12603 27.5677 10.7437M26.2718 21.0389V24.9093C26.2733 25.2686 26.1994 25.6243 26.0548 25.9535C25.9102 26.2827 25.6982 26.5782 25.4322 26.8211C25.1663 27.064 24.8523 27.249 24.5105 27.3641C24.1686 27.4792 23.8063 27.5219 23.4469 27.4896C19.4594 27.0582 15.6291 25.7017 12.2638 23.5289C9.13282 21.5481 6.4783 18.9053 4.48875 15.7881C2.29875 12.4224 0.935869 8.59046 0.510518 4.60268C0.478136 4.24591 0.520723 3.88634 0.635567 3.54686C0.750412 3.20738 0.934998 2.89543 1.17757 2.63087C1.42015 2.3663 1.7154 2.15492 2.04452 2.01019C2.37365 1.86545 2.72944 1.79053 3.08924 1.79019H6.97676C7.60564 1.78403 8.21532 2.00574 8.69215 2.41401C9.16898 2.82228 9.48043 3.38924 9.56844 4.00922C9.73253 5.24783 10.0368 6.46398 10.4755 7.63448C10.6499 8.09625 10.6876 8.5981 10.5843 9.08056C10.4809 9.56303 10.2408 10.0059 9.8924 10.3567L8.24669 11.9951C10.0914 15.225 12.7775 17.8993 16.0217 19.7359L17.6674 18.0974C18.0198 17.7506 18.4646 17.5115 18.9492 17.4086C19.4338 17.3057 19.9379 17.3433 20.4017 17.5169C21.5774 17.9537 22.7989 18.2566 24.043 18.42C24.6725 18.5084 25.2473 18.824 25.6583 19.3069C26.0692 19.7898 26.2876 20.4062 26.2718 21.0389Z" stroke="#013A65" stroke-linecap="round" stroke-linejoin="round"/>
</svg>
