<svg width="135" height="135" viewBox="0 0 135 135" fill="none" xmlns="http://www.w3.org/2000/svg">
<path d="M12.316 92.0432C12.0622 91.4826 11.9325 90.923 11.9269 90.3642C11.9292 89.8019 12.0387 89.2767 12.2553 88.7886C12.472 88.3004 12.7731 87.8835 13.1588 87.5376L14.0291 88.3566C13.5571 88.8271 13.2619 89.3413 13.1434 89.8992C13.0364 90.4613 13.1115 91.0266 13.3689 91.5951C13.5262 91.9425 13.719 92.2214 13.9475 92.432C14.176 92.6425 14.4211 92.7741 14.6828 92.8268C14.956 92.8839 15.2268 92.8517 15.4953 92.7302C15.8663 92.5622 16.1102 92.3234 16.2269 92.0137C16.355 91.7083 16.3832 91.3293 16.3115 90.8766L16.0744 89.0289C15.9822 88.3001 16.0725 87.6694 16.3452 87.1369C16.6178 86.6044 17.0305 86.213 17.5831 85.9628C18.0648 85.7448 18.539 85.668 19.0058 85.7326C19.4841 85.8015 19.9188 85.9947 20.31 86.3123C20.7126 86.6343 21.0336 87.0597 21.2731 87.5887C21.5126 88.1177 21.6341 88.6383 21.6376 89.1504C21.6447 89.6704 21.5543 90.1537 21.3664 90.6003C21.1864 91.0433 20.9233 91.4288 20.5771 91.7567L19.7122 90.9496C20.1239 90.5349 20.3702 90.0809 20.4513 89.5875C20.5403 89.0906 20.4686 88.5856 20.2363 88.0724C20.0933 87.7566 19.9112 87.5013 19.6898 87.3066C19.48 87.1162 19.242 87.0003 18.976 86.959C18.7214 86.9221 18.4559 86.9661 18.1796 87.0912C17.8559 87.2378 17.6142 87.4709 17.4545 87.7905C17.2948 88.1102 17.2425 88.5096 17.2977 88.9888L17.5297 90.6676C17.6311 91.4589 17.5648 92.1215 17.3308 92.6555C17.0969 93.1895 16.6878 93.5888 16.1036 93.8533C15.622 94.0713 15.1384 94.138 14.653 94.0533C14.1711 93.9766 13.7235 93.7654 13.3102 93.4197C12.9083 93.0784 12.5769 92.6196 12.316 92.0432ZM16.3769 99.5859C16.0098 99.008 15.8176 98.4062 15.8002 97.7807C15.7874 97.1625 15.9339 96.5767 16.2394 96.0233C16.545 95.4699 16.9905 95.0073 17.5757 94.6356C18.1683 94.2592 18.7764 94.0527 19.3999 94.016C20.0234 93.9794 20.6122 94.0982 21.1663 94.3725C21.7251 94.6542 22.188 95.084 22.5551 95.662C22.8014 96.0497 22.9619 96.456 23.0366 96.8808C23.1113 97.3056 23.113 97.7204 23.0415 98.1251C22.97 98.5298 22.8142 98.8906 22.5739 99.2075L21.5565 98.5755C21.7755 98.2413 21.8895 97.8712 21.8985 97.465C21.9148 97.0543 21.8044 96.6623 21.5675 96.2892C21.3398 95.9308 21.0416 95.6633 20.6728 95.4868C20.3087 95.3177 19.9159 95.2488 19.4945 95.2804C19.073 95.3119 18.6575 95.4578 18.2478 95.718C17.8527 95.9689 17.5477 96.2807 17.3327 96.6534C17.1249 97.0215 17.0203 97.4062 17.0186 97.8077C17.0215 98.2165 17.1369 98.6002 17.3645 98.9586C17.6015 99.3317 17.9057 99.6005 18.2771 99.7651C18.6559 99.9249 19.0503 99.9721 19.4605 99.9067L19.5781 101.11C19.1965 101.188 18.8037 101.176 18.3996 101.073C18.0029 100.966 17.6281 100.788 17.2754 100.54C16.9227 100.292 16.6232 99.9736 16.3769 99.5859ZM19.2566 103.635L24.7165 99.243L25.458 100.165L24.4551 100.971L24.5155 100.756C24.9293 100.634 25.3165 100.646 25.6769 100.79C26.0441 100.928 26.3797 101.186 26.6839 101.564L26.9528 101.899L26.0614 102.616L25.6784 102.14C25.3688 101.755 24.9974 101.542 24.5642 101.501C24.1377 101.455 23.705 101.608 23.266 101.961L20.0143 104.577L19.2566 103.635ZM24.6739 109.868C24.1948 109.391 23.8719 108.85 23.705 108.243C23.5443 107.631 23.5459 107.015 23.71 106.396C23.874 105.776 24.2037 105.218 24.6989 104.72C25.1942 104.223 25.745 103.891 26.3513 103.724C26.9638 103.563 27.5766 103.562 28.1898 103.72C28.803 103.878 29.3522 104.198 29.8374 104.681C30.3165 105.158 30.6364 105.703 30.7972 106.315C30.964 106.922 30.9654 107.528 30.8013 108.135C30.6434 108.749 30.3137 109.307 29.8124 109.811C29.311 110.314 28.7479 110.646 28.1232 110.807C27.5046 110.962 26.8887 110.96 26.2755 110.802C25.6746 110.644 25.1407 110.333 24.6739 109.868ZM25.4994 109.039C25.8065 109.345 26.1593 109.543 26.5578 109.634C26.9625 109.731 27.37 109.715 27.7803 109.585C28.1968 109.462 28.5701 109.234 28.9002 108.903C29.2365 108.565 29.4594 108.194 29.5687 107.789C29.6904 107.384 29.7017 106.98 29.6027 106.575C29.516 106.171 29.3191 105.816 29.012 105.51C28.6987 105.199 28.3367 104.997 27.9259 104.906C27.5274 104.815 27.1229 104.828 26.7126 104.946C26.3084 105.057 25.9381 105.281 25.6019 105.619C25.2717 105.951 25.0458 106.325 24.9242 106.742C24.8026 107.159 24.7882 107.567 24.881 107.965C24.98 108.369 25.1861 108.727 25.4994 109.039ZM28.7877 113.61L34.9898 105.969L35.9285 106.731L29.7264 114.372L28.7877 113.61ZM31.5198 115.754L37.2448 107.75L38.2281 108.453L32.5031 116.457L31.5198 115.754ZM39.3951 120.68C38.809 120.38 38.3538 119.966 38.0296 119.44C37.7131 118.917 37.5464 118.34 37.5295 117.708C37.5125 117.076 37.6602 116.456 37.9725 115.846C38.2927 115.222 38.7123 114.735 39.2313 114.388C39.7543 114.033 40.3203 113.831 40.9293 113.783C41.546 113.739 42.1475 113.867 42.7336 114.167C43.2504 114.432 43.6519 114.779 43.9383 115.208C44.2287 115.63 44.3947 116.085 44.4363 116.574L44.1264 116.751L46.107 112.887L47.1944 113.444L42.7056 122.202L41.6528 121.662L42.3347 120.332L42.3787 120.588C41.9532 120.886 41.4749 121.04 40.9438 121.051C40.4204 121.065 39.9042 120.941 39.3951 120.68ZM40.0214 119.687C40.4147 119.888 40.815 119.972 41.2224 119.937C41.6297 119.902 42.0071 119.765 42.3544 119.524C42.7135 119.279 42.9997 118.949 43.2132 118.532C43.4306 118.108 43.5318 117.683 43.5167 117.256C43.5132 116.826 43.4067 116.436 43.197 116.085C42.9873 115.734 42.6858 115.457 42.2925 115.256C41.9069 115.058 41.5045 114.978 41.0855 115.017C40.6782 115.052 40.3009 115.189 39.9535 115.43C39.6101 115.663 39.3277 115.995 39.1063 116.427C38.8928 116.844 38.7878 117.267 38.7912 117.698C38.7986 118.12 38.9072 118.507 39.1169 118.858C39.3265 119.209 39.628 119.485 40.0214 119.687ZM47.8686 124.311C47.2279 124.095 46.6986 123.752 46.2806 123.282C45.8655 122.804 45.5944 122.251 45.4674 121.623C45.3405 120.995 45.3889 120.348 45.6129 119.683C45.8368 119.018 46.1838 118.476 46.6536 118.058C47.1317 117.643 47.6807 117.371 48.3004 117.241C48.9202 117.111 49.5545 117.155 50.2034 117.374C50.8441 117.59 51.372 117.936 51.7872 118.415C52.2051 118.884 52.4749 119.428 52.5964 120.045C52.7261 120.665 52.6776 121.311 52.4509 121.985C52.2242 122.658 51.8663 123.205 51.3772 123.626C50.8909 124.038 50.3379 124.31 49.7181 124.439C49.1093 124.564 48.4928 124.521 47.8686 124.311ZM48.2418 123.202C48.6525 123.34 49.0567 123.362 49.4544 123.267C49.8602 123.175 50.2185 122.98 50.529 122.682C50.8478 122.387 51.0819 122.018 51.2312 121.574C51.3832 121.122 51.4187 120.691 51.3377 120.28C51.2677 119.863 51.0989 119.495 50.8312 119.176C50.5745 118.852 50.2409 118.621 49.8302 118.483C49.4113 118.342 48.9975 118.321 48.5888 118.422C48.1912 118.516 47.8343 118.707 47.5183 118.994C47.205 119.273 46.9724 119.638 46.8203 120.09C46.671 120.533 46.6341 120.969 46.7096 121.397C46.7851 121.824 46.9525 122.196 47.212 122.512C47.4796 122.831 47.8229 123.061 48.2418 123.202ZM54.6959 126.002L53.4335 118.702L54.7555 118.914L55.7117 125.006L55.2517 124.919L58.0285 119.44L59.158 119.622L60.0778 125.695L59.6136 125.633L62.4438 120.15L63.753 120.361L60.2664 126.897L59.124 126.713L58.2299 120.645L58.5893 120.702L55.8382 126.185L54.6959 126.002ZM64.0898 127.362L64.0985 120.355L65.2815 120.357L65.2798 121.722L65.0849 121.605C65.2588 121.163 65.5366 120.821 65.9182 120.579C66.3085 120.328 66.7637 120.203 67.2837 120.203C67.7863 120.204 68.2325 120.317 68.6222 120.543C69.0206 120.769 69.3322 121.081 69.5571 121.48C69.7906 121.879 69.907 122.33 69.9064 122.833L69.9008 127.37L68.6788 127.368L68.6839 123.221C68.6844 122.831 68.6155 122.502 68.4772 122.233C68.3388 121.964 68.1397 121.756 67.8799 121.608C67.6288 121.452 67.3386 121.373 67.0092 121.373C66.6799 121.373 66.3851 121.45 66.1249 121.606C65.8734 121.753 65.6738 121.965 65.5261 122.242C65.3785 122.511 65.3044 122.836 65.3039 123.217L65.2988 127.364L64.0898 127.362ZM88.2289 123.739C87.6521 123.953 87.0848 124.044 86.527 124.011C85.9662 123.97 85.4498 123.824 84.9778 123.574C84.5058 123.325 84.1106 122.995 83.7922 122.587L84.6693 121.775C85.1061 122.278 85.5987 122.608 86.147 122.765C86.7005 122.911 87.2696 122.875 87.8545 122.657C88.2119 122.524 88.5035 122.351 88.7293 122.138C88.9551 121.924 89.1033 121.689 89.174 121.431C89.2498 121.163 89.2364 120.89 89.1336 120.614C88.9917 120.232 88.7702 119.973 88.4694 119.835C88.1736 119.686 87.7974 119.632 87.3408 119.672L85.4812 119.781C84.7477 119.823 84.1247 119.689 83.6123 119.38C83.0999 119.072 82.738 118.633 82.5265 118.064C82.3423 117.569 82.2984 117.09 82.3951 116.629C82.4968 116.157 82.7196 115.736 83.0635 115.368C83.4124 114.989 83.859 114.698 84.4033 114.495C84.9475 114.293 85.4752 114.208 85.9864 114.239C86.5057 114.268 86.9816 114.392 87.4141 114.61C87.8436 114.82 88.21 115.109 88.5133 115.477L87.6484 116.284C87.2631 115.845 86.8272 115.568 86.3406 115.453C85.851 115.33 85.3422 115.367 84.8142 115.563C84.4893 115.684 84.2221 115.848 84.0125 116.055C83.8081 116.252 83.6761 116.481 83.6166 116.743C83.5621 116.995 83.5877 117.263 83.6935 117.547C83.8173 117.88 84.0332 118.137 84.341 118.319C84.6489 118.5 85.0438 118.58 85.5257 118.558L87.2164 118.442C88.0128 118.396 88.6693 118.508 89.1859 118.778C89.7025 119.048 90.0725 119.484 90.296 120.085C90.4803 120.58 90.5135 121.067 90.3955 121.546C90.2856 122.021 90.044 122.453 89.6707 122.842C89.3025 123.219 88.8218 123.518 88.2289 123.739ZM96.0317 120.203C95.4302 120.53 94.8168 120.681 94.1916 120.656C93.5739 120.627 92.9994 120.441 92.4679 120.099C91.9365 119.756 91.5051 119.281 91.1739 118.672C90.8385 118.055 90.6737 117.434 90.6793 116.81C90.685 116.185 90.8434 115.606 91.1547 115.071C91.4735 114.533 91.9337 114.1 92.5352 113.773C92.9387 113.554 93.3549 113.421 93.7838 113.375C94.2127 113.33 94.6267 113.356 95.0256 113.455C95.4246 113.554 95.774 113.733 96.0739 113.995L95.3744 114.967C95.0558 114.726 94.6943 114.587 94.2897 114.55C93.881 114.506 93.4824 114.59 93.0941 114.801C92.7211 115.004 92.434 115.283 92.233 115.639C92.0395 115.991 91.9443 116.378 91.9472 116.801C91.9501 117.224 92.0675 117.648 92.2993 118.074C92.5229 118.486 92.8133 118.811 93.1706 119.051C93.5238 119.283 93.9006 119.414 94.301 119.442C94.7091 119.467 95.0996 119.378 95.4727 119.175C95.861 118.964 96.1498 118.679 96.3391 118.319C96.5243 117.952 96.5981 117.562 96.5606 117.148L97.7693 117.112C97.8214 117.498 97.7825 117.89 97.6526 118.286C97.5186 118.674 97.3159 119.036 97.0443 119.371C96.7727 119.706 96.4352 119.984 96.0317 120.203ZM100.266 117.605L96.2619 111.855L97.2327 111.179L97.9682 112.235L97.7575 112.16C97.6648 111.739 97.7027 111.354 97.8711 111.004C98.0345 110.647 98.3154 110.33 98.7137 110.053L99.0657 109.808L99.7195 110.747L99.2181 111.096C98.8127 111.378 98.5747 111.734 98.5041 112.163C98.4285 112.586 98.5517 113.028 98.8737 113.49L101.258 116.915L100.266 117.605ZM106.854 112.626C106.346 113.071 105.784 113.357 105.168 113.483C104.546 113.602 103.931 113.559 103.324 113.354C102.717 113.149 102.182 112.782 101.719 112.254C101.256 111.727 100.962 111.155 100.836 110.539C100.717 109.917 100.757 109.305 100.956 108.704C101.154 108.103 101.511 107.577 102.026 107.125C102.534 106.679 103.099 106.396 103.721 106.277C104.337 106.152 104.942 106.191 105.537 106.396C106.138 106.594 106.673 106.961 107.142 107.495C107.611 108.029 107.904 108.613 108.023 109.247C108.135 109.875 108.092 110.489 107.893 111.09C107.695 111.679 107.349 112.191 106.854 112.626ZM106.082 111.746C106.408 111.46 106.629 111.122 106.747 110.73C106.871 110.333 106.882 109.925 106.78 109.507C106.685 109.083 106.483 108.696 106.175 108.344C105.86 107.986 105.505 107.738 105.108 107.602C104.713 107.453 104.31 107.415 103.9 107.486C103.491 107.546 103.123 107.718 102.797 108.004C102.465 108.296 102.24 108.644 102.122 109.047C102.004 109.439 101.99 109.843 102.079 110.261C102.163 110.671 102.362 111.056 102.677 111.414C102.986 111.766 103.344 112.016 103.752 112.166C104.16 112.315 104.565 112.357 104.969 112.291C105.379 112.219 105.75 112.038 106.082 111.746ZM110.863 108.774L103.664 102.064L104.488 101.18L111.687 107.89L110.863 108.774ZM113.191 106.197L105.614 99.9172L106.385 98.9864L113.962 105.266L113.191 106.197ZM118.648 98.6795C118.308 99.2436 117.864 99.6693 117.316 99.9566C116.773 100.236 116.186 100.363 115.554 100.337C114.923 100.31 114.314 100.12 113.727 99.7668C113.126 99.4044 112.67 98.9524 112.359 98.4108C112.04 97.8647 111.878 97.2862 111.872 96.6753C111.87 96.057 112.039 95.4658 112.379 94.9016C112.679 94.4043 113.053 94.0275 113.5 93.7712C113.941 93.5105 114.406 93.3761 114.897 93.3682L115.052 93.6895L111.333 91.4483L111.964 90.4017L120.393 95.4813L119.782 96.4946L118.502 95.7229L118.761 95.6966C119.029 96.1416 119.15 96.6293 119.123 97.1599C119.101 97.683 118.943 98.1896 118.648 98.6795ZM117.699 97.9865C117.927 97.6079 118.038 97.2142 118.032 96.8055C118.025 96.3967 117.913 96.0108 117.697 95.6477C117.478 95.2728 117.168 94.9645 116.767 94.7229C116.359 94.4769 115.941 94.3467 115.515 94.3325C115.085 94.3064 114.688 94.3859 114.324 94.571C113.959 94.7561 113.663 95.0379 113.435 95.4165C113.211 95.7876 113.104 96.1835 113.114 96.6041C113.12 97.0129 113.232 97.3988 113.448 97.7619C113.657 98.1205 113.969 98.4251 114.385 98.6756C114.786 98.9172 115.201 99.051 115.63 99.0771C116.052 99.0987 116.446 99.017 116.81 98.8319C117.175 98.6469 117.471 98.365 117.699 97.9865ZM122.853 90.4759C122.594 91.1001 122.215 91.6044 121.718 91.9889C121.212 92.37 120.641 92.6022 120.006 92.6854C119.371 92.7686 118.729 92.6755 118.081 92.4061C117.433 92.1367 116.916 91.7531 116.532 91.2555C116.151 90.7498 115.917 90.1833 115.83 89.5561C115.744 88.9288 115.832 88.2991 116.095 87.6669C116.354 87.0426 116.737 86.54 117.242 86.1588C117.74 85.7744 118.301 85.5429 118.925 85.4643C119.552 85.3778 120.194 85.4709 120.85 85.7436C121.506 86.0164 122.027 86.4113 122.413 86.9282C122.791 87.4419 123.023 88.0124 123.11 88.6396C123.191 89.2556 123.106 89.8676 122.853 90.4759ZM121.773 90.0268C121.939 89.6267 121.989 89.225 121.922 88.8217C121.858 88.4104 121.688 88.0396 121.413 87.7091C121.14 87.3707 120.788 87.1117 120.356 86.9321C119.916 86.7491 119.488 86.6838 119.072 86.7362C118.651 86.7773 118.273 86.9203 117.936 87.1652C117.595 87.3989 117.341 87.7157 117.175 88.1159C117.005 88.524 116.957 88.9354 117.028 89.35C117.095 89.7533 117.261 90.1225 117.525 90.4576C117.781 90.7894 118.13 91.0467 118.57 91.2297C119.002 91.4093 119.434 91.4762 119.866 91.4305C120.298 91.3848 120.681 91.2435 121.014 91.0065C121.35 90.7615 121.603 90.435 121.773 90.0268ZM125.007 83.7801L117.639 84.5503L117.94 83.2455L124.082 82.6998L123.965 83.1529L118.684 80.0152L118.941 78.9004L125.062 78.3898L124.97 78.8487L119.688 75.6573L119.986 74.3652L126.274 78.2822L126.014 79.4096L119.899 79.8949L119.981 79.5402L125.267 82.6526L125.007 83.7801ZM127 74.4994L120.013 73.9782L120.101 72.7985L121.462 72.9L121.331 73.0858C120.903 72.8801 120.582 72.578 120.369 72.1797C120.147 71.7721 120.056 71.309 120.094 70.7905C120.132 70.2892 120.277 69.8525 120.531 69.4803C120.785 69.0995 121.12 68.8116 121.534 68.6165C121.949 68.4128 122.407 68.3297 122.908 68.367L127.433 68.7045L127.342 69.9231L123.206 69.6147C122.817 69.5857 122.484 69.6303 122.206 69.7486C121.927 69.8669 121.705 70.0502 121.539 70.2985C121.365 70.5376 121.265 70.8213 121.241 71.1497C121.216 71.4781 121.272 71.7778 121.408 72.0487C121.536 72.3103 121.733 72.5248 121.999 72.6924C122.256 72.8593 122.575 72.9569 122.955 72.9853L127.09 73.2938L127 74.4994Z" fill="white"/>
<path d="M120.723 39.4591C121.007 40.0049 121.167 40.5566 121.204 41.1142C121.232 41.6758 121.152 42.2062 120.963 42.7055C120.773 43.2048 120.495 43.6377 120.129 44.0043L119.215 43.2344C119.661 42.7386 119.927 42.209 120.015 41.6455C120.091 41.0783 119.985 40.5179 119.696 39.9645C119.52 39.6263 119.312 39.3584 119.072 39.1607C118.833 38.9631 118.581 38.8452 118.317 38.8069C118.041 38.7649 117.772 38.812 117.511 38.9481C117.149 39.1363 116.919 39.3882 116.82 39.7038C116.708 40.0157 116.701 40.3957 116.798 40.8438L117.136 42.6756C117.268 43.3983 117.213 44.033 116.97 44.5797C116.727 45.1264 116.336 45.5399 115.798 45.8201C115.329 46.0643 114.86 46.167 114.39 46.1283C113.909 46.0858 113.464 45.9168 113.056 45.6212C112.637 45.3219 112.293 44.9147 112.024 44.3997C111.756 43.8847 111.606 43.3716 111.575 42.8604C111.539 42.3416 111.603 41.8541 111.766 41.3978C111.921 40.9456 112.162 40.5462 112.49 40.1997L113.398 40.9581C113.01 41.3947 112.789 41.8616 112.735 42.3587C112.674 42.8598 112.773 43.3601 113.033 43.8597C113.193 44.1672 113.389 44.4121 113.621 44.5943C113.841 44.7729 114.085 44.8754 114.353 44.902C114.609 44.9249 114.872 44.8663 115.141 44.7262C115.456 44.5621 115.684 44.316 115.826 43.9881C115.968 43.6601 115.998 43.2584 115.917 42.783L115.593 41.1195C115.448 40.335 115.478 39.6697 115.682 39.1237C115.886 38.5776 116.273 38.1565 116.841 37.8602C117.31 37.616 117.79 37.5228 118.279 37.5806C118.764 37.6308 119.223 37.817 119.655 38.1394C120.075 38.4581 120.431 38.898 120.723 39.4591ZM116.253 32.1513C116.651 32.7082 116.877 33.2984 116.928 33.922C116.975 34.5385 116.861 35.1315 116.586 35.7009C116.312 36.2703 115.892 36.7567 115.329 37.1601C114.758 37.5685 114.162 37.8081 113.541 37.8791C112.921 37.95 112.326 37.8637 111.758 37.6203C111.184 37.3698 110.699 36.9661 110.3 36.4092C110.033 36.0356 109.85 35.6388 109.752 35.2187C109.654 34.7987 109.63 34.3846 109.679 33.9766C109.728 33.5685 109.864 33.1997 110.086 32.8701L111.137 33.4452C110.937 33.7909 110.843 34.1667 110.857 34.5727C110.863 34.9838 110.995 35.3691 111.252 35.7286C111.499 36.074 111.811 36.3246 112.189 36.4805C112.562 36.6294 112.958 36.6765 113.377 36.6218C113.796 36.5672 114.203 36.3986 114.598 36.1163C114.979 35.844 115.266 35.5159 115.46 35.1319C115.647 34.753 115.731 34.363 115.71 33.9621C115.685 33.5541 115.549 33.1774 115.302 32.832C115.044 32.4725 114.726 32.2208 114.346 32.077C113.959 31.9382 113.563 31.9127 113.157 32.0007L112.973 30.8054C113.35 30.7064 113.743 30.6971 114.152 30.7774C114.554 30.8628 114.938 31.0197 115.304 31.2482C115.669 31.4767 115.986 31.7777 116.253 32.1513ZM113.155 28.2671L107.945 32.9526L107.154 32.0729L108.111 31.2124L108.063 31.4307C107.656 31.5749 107.269 31.585 106.901 31.4612C106.527 31.3432 106.177 31.1037 105.853 30.7428L105.566 30.4239L106.417 29.6589L106.825 30.1132C107.156 30.4805 107.538 30.6726 107.973 30.6895C108.401 30.7122 108.825 30.5353 109.244 30.1586L112.347 27.3682L113.155 28.2671ZM107.403 22.341C107.908 22.7908 108.26 23.3138 108.46 23.9101C108.654 24.5127 108.686 25.1278 108.557 25.7552C108.427 26.3826 108.128 26.9584 107.661 27.4824C107.194 28.0064 106.662 28.3684 106.066 28.5683C105.464 28.7625 104.852 28.7976 104.231 28.6737C103.61 28.5497 103.044 28.2599 102.533 27.8044C102.028 27.3545 101.679 26.8283 101.485 26.2256C101.285 25.6294 101.25 25.0237 101.38 24.4085C101.504 23.7875 101.803 23.2118 102.275 22.6813C102.748 22.1508 103.292 21.7881 103.907 21.5933C104.516 21.4048 105.131 21.3726 105.752 21.4966C106.361 21.6212 106.911 21.9027 107.403 22.341ZM106.624 23.2144C106.301 22.926 105.938 22.7473 105.535 22.6784C105.125 22.6037 104.719 22.6423 104.317 22.7943C103.908 22.9406 103.548 23.1884 103.236 23.5377C102.919 23.8935 102.717 24.2765 102.63 24.6866C102.531 25.0975 102.542 25.502 102.663 25.9001C102.772 26.299 102.988 26.6426 103.311 26.931C103.641 27.2251 104.014 27.4063 104.429 27.4745C104.832 27.5435 105.235 27.5081 105.638 27.3683C106.036 27.235 106.393 26.9904 106.71 26.6346C107.022 26.2853 107.227 25.8991 107.325 25.476C107.424 25.053 107.416 24.6452 107.301 24.2528C107.18 23.8546 106.954 23.5085 106.624 23.2144ZM103.09 18.8316L97.3172 26.8019L96.338 26.0927L102.11 18.1225L103.09 18.8316ZM100.244 16.8409L94.9677 25.1481L93.9471 24.5L99.2231 16.1928L100.244 16.8409ZM92.1092 12.3553C92.711 12.623 93.1882 13.0108 93.5409 13.5187C93.8856 14.0231 94.0838 14.5903 94.1355 15.2203C94.1872 15.8504 94.0739 16.4782 93.7956 17.1038C93.5102 17.7452 93.118 18.2536 92.6189 18.6292C92.1163 19.0127 91.5623 19.2452 90.9568 19.3268C90.3435 19.4049 89.7359 19.3101 89.1341 19.0423C88.6036 18.8063 88.1835 18.4819 87.8739 18.0691C87.5608 17.6642 87.37 17.2188 87.3016 16.7331L87.6013 16.5391L85.8363 20.5062L84.7198 20.0095L88.72 11.0182L89.8009 11.4991L89.1932 12.865L89.1352 12.6115C89.5436 12.2905 90.0127 12.1103 90.5425 12.0709C91.0643 12.028 91.5865 12.1228 92.1092 12.3553ZM91.5386 13.382C91.1347 13.2023 90.7304 13.141 90.3256 13.1981C89.9208 13.2551 89.5516 13.4134 89.218 13.6728C88.8729 13.9367 88.6053 14.2824 88.415 14.71C88.2213 15.1455 88.1437 15.5758 88.1822 16.0008C88.2094 16.4303 88.3373 16.8144 88.5659 17.1533C88.7946 17.4922 89.1108 17.7514 89.5147 17.9311C89.9106 18.1072 90.3167 18.1646 90.7329 18.1031C91.1377 18.0461 91.5069 17.8878 91.8405 17.6284C92.1706 17.3768 92.4343 17.0293 92.6316 16.5859C92.8218 16.1583 92.9034 15.7298 92.8763 15.3004C92.8456 14.8789 92.716 14.4987 92.4873 14.1598C92.2586 13.8209 91.9424 13.5617 91.5386 13.382ZM83.4488 9.19686C84.1004 9.37693 84.6478 9.69005 85.0909 10.1362C85.5318 10.5908 85.8329 11.128 85.9942 11.7481C86.1555 12.3681 86.1427 13.0165 85.9557 13.6931C85.7687 14.3697 85.4521 14.9296 85.0059 15.3728C84.5514 15.8136 84.0183 16.1159 83.4066 16.2795C82.7949 16.4432 82.1591 16.4338 81.4992 16.2514C80.8476 16.0713 80.3014 15.754 79.8605 15.2995C79.4174 14.8533 79.1182 14.3256 78.9629 13.7162C78.7992 13.1045 78.8121 12.4561 79.0014 11.7711C79.1907 11.0862 79.5179 10.5202 79.9831 10.0733C80.446 9.63478 80.9833 9.33369 81.595 9.17006C82.196 9.01247 82.814 9.0214 83.4488 9.19686ZM83.1372 10.3246C82.7195 10.2091 82.3147 10.2097 81.9229 10.3262C81.5227 10.4404 81.1757 10.6547 80.882 10.9691C80.5799 11.2813 80.3665 11.6629 80.2419 12.114C80.1149 12.5734 80.1032 13.0063 80.2067 13.4125C80.2996 13.8248 80.4884 14.1827 80.7732 14.4862C81.0473 14.7958 81.3932 15.0082 81.8108 15.1237C82.2369 15.2414 82.6511 15.239 83.0537 15.1165C83.4455 15 83.7913 14.7898 84.0911 14.4861C84.3885 14.1906 84.6007 13.8132 84.7277 13.3537C84.8524 12.9026 84.8653 12.4656 84.7664 12.0427C84.6675 11.6197 84.4798 11.2576 84.2034 10.9564C83.9186 10.6529 83.5632 10.4423 83.1372 10.3246ZM76.5388 7.88397L78.2009 15.1033L76.8692 14.9639L75.5793 8.93374L76.0434 8.99541L73.5722 14.6186L72.4345 14.4995L71.1819 8.48632L71.6487 8.52213L69.1246 14.1529L67.8058 14.0148L70.9275 7.29634L72.0782 7.41685L73.3049 13.4273L72.9428 13.3894L75.3881 7.76346L76.5388 7.88397ZM67.0842 7.04209L67.4611 14.039L66.2798 14.1026L66.2064 12.7396L66.4074 12.8459C66.2581 13.2966 65.9996 13.6533 65.6319 13.9162C65.2559 14.1881 64.8084 14.3381 64.2891 14.366C63.7872 14.3931 63.3354 14.3046 62.9339 14.1005C62.5237 13.897 62.1953 13.6022 61.9489 13.2162C61.6938 12.8307 61.5527 12.387 61.5257 11.8851L61.2817 7.35463L62.5019 7.28891L62.7249 11.4299C62.7459 11.8193 62.8329 12.1445 62.9858 12.4053C63.1387 12.6661 63.3489 12.8631 63.6165 12.9962C63.8758 13.1385 64.1699 13.2008 64.4988 13.183C64.8276 13.1653 65.1177 13.0716 65.3689 12.9018C65.612 12.7412 65.7996 12.5184 65.9318 12.2336C66.0645 11.9574 66.1206 11.6289 66.1 11.2481L65.877 7.10712L67.0842 7.04209ZM43.1811 11.9886C43.7452 11.7428 44.3066 11.6209 44.8654 11.6232C45.4277 11.6334 45.9513 11.7502 46.4363 11.9737C46.9214 12.1971 47.3341 12.5041 47.6745 12.8946L46.8433 13.7533C46.3795 13.2748 45.8695 12.9724 45.3134 12.8461C44.7528 12.7312 44.1865 12.7984 43.6144 13.0477C43.2649 13.2001 42.9832 13.3891 42.7696 13.6146C42.5559 13.8401 42.4208 14.0833 42.3644 14.3442C42.3035 14.6166 42.3319 14.8879 42.4496 15.158C42.6124 15.5314 42.8478 15.7786 43.1558 15.8996C43.4593 16.032 43.8379 16.0655 44.2916 16.0001L46.1424 15.789C46.8725 15.7071 47.5018 15.8062 48.0305 16.0863C48.5591 16.3664 48.9446 16.7845 49.187 17.3406C49.3983 17.8252 49.4684 18.3005 49.3973 18.7664C49.3217 19.2437 49.1224 19.6756 48.7993 20.0623C48.4717 20.4603 48.0418 20.7754 47.5095 21.0074C46.9772 21.2394 46.455 21.3536 45.9429 21.3499C45.4228 21.3497 44.9408 21.2526 44.4969 21.0584C44.0565 20.8722 43.6747 20.6038 43.3517 20.253L44.1709 19.3995C44.5797 19.8169 45.0302 20.0696 45.5224 20.1576C46.018 20.2536 46.524 20.189 47.0404 19.9639C47.3582 19.8254 47.616 19.6468 47.8138 19.4282C48.0071 19.2211 48.1263 18.9848 48.1713 18.7193C48.2119 18.4653 48.1715 18.1993 48.0503 17.9212C47.9083 17.5955 47.6787 17.3505 47.3613 17.1863C47.0439 17.0221 46.6452 16.9643 46.1653 17.0127L44.4835 17.2211C43.6908 17.3114 43.0292 17.2358 42.4985 16.9944C41.9679 16.753 41.5744 16.3384 41.3181 15.7505C41.1069 15.2658 41.047 14.7814 41.1384 14.2972C41.222 13.8164 41.4394 13.3718 41.7908 12.9634C42.1377 12.5664 42.6012 12.2415 43.1811 11.9886ZM35.5847 15.9481C36.1673 15.5884 36.7714 15.4039 37.3971 15.3944C38.0154 15.3896 38.5993 15.5434 39.1488 15.856C39.6982 16.1687 40.1551 16.6199 40.5193 17.2099C40.8881 17.8072 41.0869 18.4179 41.1156 19.0418C41.1443 19.6657 41.018 20.253 40.7366 20.8036C40.4479 21.3587 40.0122 21.8161 39.4296 22.1758C39.0388 22.4171 38.6305 22.5724 38.2048 22.6417C37.779 22.711 37.3643 22.7074 36.9605 22.6308C36.5567 22.5541 36.1979 22.3937 35.8841 22.1494L36.5291 21.1401C36.8604 21.3634 37.2291 21.4821 37.635 21.4962C38.0456 21.5178 38.4389 21.4124 38.815 21.1802C39.1763 20.9572 39.4476 20.6624 39.6287 20.2959C39.8025 19.934 39.8763 19.5421 39.8502 19.1203C39.824 18.6985 39.6834 18.2811 39.4285 17.8681C39.1826 17.4699 38.8747 17.1609 38.5048 16.9411C38.1394 16.7288 37.756 16.6192 37.3546 16.6124C36.9458 16.6101 36.5607 16.7205 36.1993 16.9436C35.8232 17.1758 35.5506 17.4766 35.3814 17.8459C35.2167 18.2226 35.1644 18.6164 35.2247 19.0274L34.0197 19.1296C33.9465 18.747 33.9638 18.3544 34.0717 17.9517C34.1841 17.5564 34.3666 17.1839 34.6193 16.8344C34.8721 16.4848 35.1938 16.1894 35.5847 15.9481ZM31.4993 18.7747L35.814 24.2957L34.8819 25.0242L34.0894 24.0101L34.3039 24.0735C34.4197 24.489 34.4031 24.8759 34.2542 25.2343C34.1106 25.5995 33.8476 25.9315 33.4652 26.2304L33.1272 26.4945L32.4228 25.5931L32.9042 25.2169C33.2934 24.9127 33.5115 24.5443 33.5583 24.1117C33.6106 23.6859 33.4632 23.2511 33.1163 22.8072L30.5467 19.5192L31.4993 18.7747ZM25.1958 24.1096C25.6785 23.6363 26.2241 23.32 26.8324 23.1606C27.4468 23.0074 28.0626 23.0166 28.6799 23.1882C29.2972 23.3598 29.8515 23.6962 30.3429 24.1976C30.8344 24.6989 31.1598 25.2537 31.3192 25.862C31.4724 26.4764 31.4663 27.0892 31.3009 27.7004C31.1355 28.3116 30.8083 28.8568 30.3194 29.3361C29.8366 29.8093 29.2881 30.1226 28.6737 30.2758C28.0654 30.4352 27.4587 30.4292 26.8537 30.2577C26.2425 30.0923 25.6881 29.7558 25.1906 29.2483C24.6932 28.7408 24.3679 28.1738 24.2147 27.5471C24.0677 26.9267 24.0769 26.3108 24.2423 25.6996C24.4076 25.1007 24.7255 24.5707 25.1958 24.1096ZM26.0149 24.9451C25.7054 25.2484 25.5027 25.5988 25.4069 25.9962C25.3048 26.3997 25.3161 26.8073 25.4407 27.2192C25.5591 27.6371 25.7821 28.0132 26.1097 28.3474C26.4434 28.6878 26.8119 28.9151 27.2152 29.0294C27.6185 29.156 28.0228 29.1723 28.4282 29.0783C28.8335 28.9965 29.1909 28.804 29.5003 28.5006C29.816 28.1912 30.0218 27.8317 30.1178 27.422C30.2137 27.0246 30.2054 26.62 30.0931 26.2083C29.9868 25.8028 29.7668 25.4298 29.4332 25.0894C29.1055 24.7552 28.734 24.5247 28.3185 24.398C27.903 24.2713 27.4957 24.252 27.0964 24.3399C26.691 24.4339 26.3305 24.6357 26.0149 24.9451ZM21.4046 28.1756L28.9618 34.4791L28.1874 35.4075L20.6302 29.104L21.4046 28.1756ZM19.2221 30.8771L27.1331 36.7304L26.414 37.7023L18.503 31.849L19.2221 30.8771ZM14.1872 38.6834C14.4956 38.1014 14.9153 37.652 15.4462 37.335C15.973 37.0257 16.5525 36.8669 17.1846 36.8586C17.8168 36.8503 18.4353 37.0064 19.0403 37.327C19.6606 37.6558 20.1409 38.082 20.4813 38.6057C20.8293 39.1334 21.0233 39.7021 21.0631 40.3117C21.0989 40.929 20.9626 41.5286 20.6542 42.1106C20.3823 42.6237 20.0298 43.0205 19.5967 43.301C19.1712 43.5856 18.7138 43.7453 18.2245 43.7803L18.0516 43.468L21.8882 45.5012L21.3159 46.5809L12.6205 41.9727L13.1745 40.9274L14.4955 41.6275L14.2386 41.6679C13.9464 41.2384 13.7988 40.7581 13.7959 40.2269C13.7889 39.7033 13.9193 39.1888 14.1872 38.6834ZM15.1723 39.3232C14.9653 39.7137 14.8764 40.1129 14.9055 40.5207C14.9346 40.9284 15.0671 41.3076 15.3031 41.6583C15.5426 42.0206 15.8692 42.3114 16.2827 42.5305C16.7038 42.7537 17.1278 42.8607 17.5545 42.8514C17.9847 42.8538 18.3768 42.7526 18.7305 42.5478C19.0843 42.3429 19.3647 42.0452 19.5717 41.6547C19.7746 41.2718 19.8597 40.8706 19.827 40.4511C19.7979 40.0433 19.6653 39.6641 19.4294 39.3135C19.2011 38.9669 18.8725 38.68 18.4437 38.4527C18.0302 38.2336 17.6083 38.1228 17.178 38.1204C16.7554 38.122 16.3672 38.2252 16.0134 38.4301C15.6596 38.6349 15.3793 38.9326 15.1723 39.3232ZM10.4394 47.106C10.6641 46.4684 11.0143 45.944 11.4901 45.5328C11.974 45.1244 12.5308 44.8612 13.1605 44.7432C13.7903 44.6251 14.4362 44.6828 15.0982 44.9161C15.7603 45.1495 16.297 45.504 16.7082 45.9798C17.1166 46.4637 17.3812 47.0164 17.5022 47.638C17.6231 48.2595 17.5698 48.8931 17.3422 49.5389C17.1175 50.1764 16.7632 50.6994 16.2792 51.1078C15.8035 51.519 15.2563 51.781 14.6376 51.8938C14.0161 52.0147 13.3702 51.9571 12.6999 51.7208C12.0297 51.4846 11.4877 51.119 11.0741 50.624C10.6686 50.1319 10.4054 49.5751 10.2844 48.9535C10.1688 48.3431 10.2204 47.7272 10.4394 47.106ZM11.5429 47.4949C11.3988 47.9036 11.3713 48.3074 11.4605 48.7064C11.5467 49.1136 11.7365 49.4745 12.0299 49.7893C12.3204 50.1122 12.6863 50.3515 13.1277 50.507C13.5773 50.6655 14.0083 50.7071 14.4207 50.6319C14.8385 50.5678 15.2086 50.4042 15.531 50.1411C15.8588 49.889 16.0947 49.5587 16.2387 49.15C16.3856 48.7331 16.4119 48.3197 16.3175 47.9096C16.2284 47.5106 16.0427 47.1511 15.7603 46.8311C15.4862 46.5139 15.1243 46.2761 14.6748 46.1177C14.2334 45.9621 13.7983 45.919 13.3695 45.9884C12.9407 46.0578 12.5665 46.22 12.2469 46.475C11.9245 46.7381 11.6898 47.078 11.5429 47.4949ZM8.6569 53.9101L15.9715 52.7357L15.743 54.0551L9.63998 54.9379L9.73263 54.479L15.1775 57.3215L14.9824 58.4487L8.8988 59.2953L8.96582 58.832L14.4147 61.7279L14.1885 63.0345L7.69444 59.4694L7.89181 58.3294L13.971 57.5084L13.9089 57.8671L8.45953 55.0502L8.6569 53.9101ZM7.17748 63.2864L14.1832 63.4223L14.1602 64.6051L12.7955 64.5786L12.9162 64.386C13.3548 64.5678 13.6917 64.8517 13.9269 65.2377C14.1706 65.6325 14.2874 66.0899 14.2774 66.6098C14.2676 67.1123 14.1463 67.5564 13.9134 67.942C13.6804 68.3362 13.3624 68.6421 12.9595 68.8596C12.5563 69.0859 12.1035 69.1941 11.6009 69.1843L7.06476 69.0963L7.08847 67.8746L11.2347 67.955C11.6246 67.9626 11.9552 67.8996 12.2265 67.7662C12.4978 67.6328 12.7097 67.4375 12.862 67.1804C13.0229 66.9322 13.1065 66.6434 13.1129 66.3141C13.1193 65.9849 13.047 65.6887 12.8961 65.4258C12.7536 65.1716 12.5452 64.9682 12.2708 64.8155C12.005 64.663 11.6815 64.583 11.3003 64.5756L7.15403 64.4952L7.17748 63.2864Z" fill="white"/>
</svg>
