<svg width="17" height="14" viewBox="0 0 17 14" fill="none" xmlns="http://www.w3.org/2000/svg">
<path d="M2.1 0.5H14.9C15.78 0.5 16.5 1.23125 16.5 2.125V11.875C16.5 12.7688 15.78 13.5 14.9 13.5H2.1C1.22 13.5 0.5 12.7688 0.5 11.875V2.125C0.5 1.23125 1.22 0.5 2.1 0.5Z" fill="white"/>
<path d="M16.5 2.125L8.5 7.8125L0.5 2.125" fill="white"/>
<path d="M16.5 2.125C16.5 1.23125 15.78 0.5 14.9 0.5H2.1C1.22 0.5 0.5 1.23125 0.5 2.125M16.5 2.125V11.875C16.5 12.7688 15.78 13.5 14.9 13.5H2.1C1.22 13.5 0.5 12.7688 0.5 11.875V2.125M16.5 2.125L8.5 7.8125L0.5 2.125" stroke="#013A65" stroke-linecap="round" stroke-linejoin="round"/>
</svg>
