<svg width="17" height="21" viewBox="0 0 17 21" fill="none" xmlns="http://www.w3.org/2000/svg">
<path d="M16.5 8.68182C16.5 15.0455 8.5 20.5 8.5 20.5C8.5 20.5 0.5 15.0455 0.5 8.68182C0.5 6.51187 1.34285 4.43079 2.84315 2.8964C4.34344 1.36201 6.37827 0.5 8.5 0.5C10.6217 0.5 12.6566 1.36201 14.1569 2.8964C15.6571 4.43079 16.5 6.51187 16.5 8.68182Z" fill="white"/>
<path d="M8.5 11.4091C9.97276 11.4091 11.1667 10.188 11.1667 8.68182C11.1667 7.17559 9.97276 5.95455 8.5 5.95455C7.02724 5.95455 5.83333 7.17559 5.83333 8.68182C5.83333 10.188 7.02724 11.4091 8.5 11.4091Z" fill="white"/>
<path d="M16.5 8.68182C16.5 15.0455 8.5 20.5 8.5 20.5C8.5 20.5 0.5 15.0455 0.5 8.68182C0.5 6.51187 1.34285 4.43079 2.84315 2.8964C4.34344 1.36201 6.37827 0.5 8.5 0.5C10.6217 0.5 12.6566 1.36201 14.1569 2.8964C15.6571 4.43079 16.5 6.51187 16.5 8.68182Z" stroke="#013A65" stroke-linecap="round" stroke-linejoin="round"/>
<path d="M8.5 11.4091C9.97276 11.4091 11.1667 10.188 11.1667 8.68182C11.1667 7.17559 9.97276 5.95455 8.5 5.95455C7.02724 5.95455 5.83333 7.17559 5.83333 8.68182C5.83333 10.188 7.02724 11.4091 8.5 11.4091Z" stroke="#013A65" stroke-linecap="round" stroke-linejoin="round"/>
</svg>
