<svg width="47" height="50" viewBox="0 0 47 50" fill="none" xmlns="http://www.w3.org/2000/svg">
<path d="M23.7422 24.157C23.973 22.4692 23.8384 7.37969 23.7422 0.0458984" stroke="#81D8EF" stroke-width="7"/>
<path d="M23.8277 24.3667C24.9013 23.0877 32.6712 10.3934 36.4219 4.20605" stroke="#81D8EF" stroke-width="7"/>
<path d="M23.7902 24.5907C25.356 24.1396 38.4835 18.0001 44.8516 14.9868" stroke="#81D8EF" stroke-width="7"/>
<path d="M23.6425 24.7565C25.1873 25.2811 39.3709 27.7084 46.2695 28.8564" stroke="#81D8EF" stroke-width="7"/>
<path d="M23.4288 24.8097C24.4466 26.1381 35.0384 36.3367 40.207 41.27" stroke="#81D8EF" stroke-width="7"/>
<path d="M23.2249 24.7328C23.382 26.4297 26.9113 41.0578 28.6562 48.1597" stroke="#81D8EF" stroke-width="7"/>
<path d="M23.0937 24.5509C22.3387 26.0602 17.6489 40.3242 15.3984 47.2676" stroke="#81D8EF" stroke-width="7"/>
<path d="M23.0815 24.3226C21.6618 25.1498 10.2898 34.3757 4.78125 38.8853" stroke="#81D8EF" stroke-width="7"/>
<path d="M23.1859 24.1247C21.5667 23.9987 7.23886 25.1632 0.277344 25.7612" stroke="#81D8EF" stroke-width="7"/>
<path d="M23.381 24.0211C22.093 22.9832 9.50438 15.7048 3.37109 12.1953" stroke="#81D8EF" stroke-width="7"/>
<path d="M23.5974 24.0453C23.0625 22.4356 16.3382 9.09926 13.043 2.63232" stroke="#81D8EF" stroke-width="7"/>
<path d="M23.4023 22.0747C24.5995 22.0747 25.6523 23.1087 25.6523 24.4878C25.6522 25.8667 24.5994 26.8999 23.4023 26.8999C22.2053 26.8999 21.1525 25.8667 21.1523 24.4878C21.1523 23.1087 22.2052 22.0747 23.4023 22.0747Z" fill="#4BBEDD" stroke="#81D8EF" stroke-width="2"/>
</svg>
