<svg width="133" height="132" viewBox="0 0 133 132" fill="none" xmlns="http://www.w3.org/2000/svg">
<path d="M76.7883 105.844C82.2164 107.179 92.0581 107.285 88.0004 97.0342M88.0004 97.0342L65.5762 72.207M88.0004 97.0342C94.6742 97.7461 106.901 95.913 102.416 82.8854" stroke="#445F7B"/>
<path d="M12.1836 63.9303C5.59875 56.6334 -5.22182 38.409 4.17499 23.8865C13.5718 9.36391 25.8872 4.30949 30.8703 3.5976C38.167 2.52977 54.4157 3.43743 61.0362 15.6107M61.0362 15.6107C68.3329 9.55969 85.5426 -1.84833 96.0073 0.92804C109.088 4.39851 121.101 7.60204 130.177 25.4883C132.758 34.031 133.861 53.9461 117.631 65.2652M61.0362 15.6107L50.358 30.0266L72.7822 40.7049L82.3926 30.0266L117.631 65.2652M117.631 65.2652C118.698 72.74 116.99 86.7286 101.613 82.8844L78.6552 58.8581" stroke="#445F7B"/>
<rect x="0.706872" y="0.0179965" width="30.2247" height="21.9287" rx="10.9643" transform="matrix(0.724869 -0.688887 0.688876 0.72488 1.15474 76.3249)" stroke="#445F7B"/>
<rect x="0.706872" y="0.0179965" width="30.2247" height="19.0878" rx="9.54388" transform="matrix(0.724869 -0.688887 0.688876 0.72488 16.1001 93.9421)" stroke="#445F7B"/>
<rect x="0.706872" y="0.0179965" width="30.2247" height="19.0878" rx="9.54388" transform="matrix(0.724869 -0.688887 0.688876 0.72488 29.9868 107.824)" stroke="#445F7B"/>
<rect x="0.706872" y="0.0179965" width="30.2247" height="19.0878" rx="9.54388" transform="matrix(0.724869 -0.688887 0.688876 0.72488 46.0024 117.431)" stroke="#445F7B"/>
</svg>
