<svg width="19" height="16" viewBox="0 0 19 16" fill="none" xmlns="http://www.w3.org/2000/svg">
<path d="M16.5654 1.61254C16.1334 1.18058 15.6205 0.83791 15.056 0.604121C14.4916 0.370332 13.8865 0.25 13.2755 0.25C12.6644 0.25 12.0594 0.370332 11.4949 0.604121C10.9304 0.83791 10.4175 1.18058 9.98554 1.61254L9.08906 2.5086L8.19258 1.61254C7.32004 0.74041 6.13661 0.250452 4.90265 0.250452C3.66869 0.250452 2.48527 0.74041 1.61273 1.61254C0.740189 2.48467 0.25 3.66753 0.25 4.90091C0.25 6.13429 0.740189 7.31715 1.61273 8.18928L9.08906 15.6621L16.5654 8.18928C16.9976 7.75752 17.3404 7.24488 17.5743 6.68065C17.8082 6.11642 17.9286 5.51166 17.9286 4.90091C17.9286 4.29016 17.8082 3.6854 17.5743 3.12117C17.3404 2.55694 16.9976 2.0443 16.5654 1.61254Z" stroke="#013A65" stroke-width="0.5" stroke-linecap="round" stroke-linejoin="round"/>
<path d="M3.87695 7.95604H7.05003L8.40992 4.32967L10.4498 11.5824L11.8096 7.95604H14.5294" stroke="#013A65" stroke-width="0.5"/>
</svg>
