<svg width="19" height="15" viewBox="0 0 19 15" fill="none" xmlns="http://www.w3.org/2000/svg">
<path d="M0.300367 8.78629V12.8026C0.27561 12.9544 0.322648 13.2746 0.70886 13.3409C1.09507 13.4071 2.57802 13.3685 3.27122 13.3409C3.40738 13.3133 3.67229 13.167 3.64258 12.8026C3.61287 12.4382 3.6302 7.70975 3.64258 5.39106C3.54355 5.28064 3.32321 5.0681 3.23408 5.10122C3.14496 5.13434 1.46395 5.11502 0.634583 5.10122C0.523178 5.15643 0.300367 5.32482 0.300367 5.55669C0.300367 5.78856 0.300367 6.84026 0.300367 7.33712" stroke="#013A65" stroke-width="0.589286"/>
<path d="M3.82422 6.6749H5.60673L8.87468 7.91706H12.0312L12.514 8.66236L12.254 9.53187H8.57759C8.19386 9.60088 7.44867 10.0453 7.53779 11.2709" stroke="#013A65" stroke-width="0.589286"/>
<path d="M12.2913 9.44891L17.2675 7.7927L17.9731 8.24816V9.44891L10.3231 14.2519L4.82702 12.1403H3.63867" stroke="#013A65" stroke-width="0.589286"/>
<path d="M14.8659 0.858361C14.7062 0.679645 14.5166 0.537875 14.3079 0.441149C14.0992 0.344424 13.8755 0.29464 13.6496 0.29464C13.4237 0.29464 13.2 0.344424 12.9913 0.441149C12.7826 0.537875 12.593 0.679645 12.4333 0.858361L12.1018 1.22909L11.7704 0.858361C11.4478 0.497536 11.0103 0.294827 10.5541 0.294827C10.0979 0.294827 9.66038 0.497536 9.3378 0.858361C9.01521 1.21919 8.83398 1.70857 8.83398 2.21885C8.83398 2.72914 9.01521 3.21852 9.3378 3.57935L12.1018 6.67106L14.8659 3.57935C15.0257 3.40071 15.1524 3.18862 15.2389 2.95518C15.3254 2.72175 15.3699 2.47154 15.3699 2.21885C15.3699 1.96617 15.3254 1.71596 15.2389 1.48252C15.1524 1.24909 15.0257 1.03699 14.8659 0.858361Z" stroke="#013A65" stroke-width="0.589286" stroke-linecap="round" stroke-linejoin="round"/>
</svg>
