<svg width="18" height="19" viewBox="0 0 18 19" fill="none" xmlns="http://www.w3.org/2000/svg">
<path d="M0.220703 12.0669H2.63007C3.03781 11.7972 4.05345 11.3792 4.8541 11.8646C5.65475 12.3501 6.0526 13.1727 6.15145 13.5233C7.00399 13.8873 8.73874 14.7288 8.85735 15.1819C8.97597 15.635 9.00562 16.2876 9.00562 16.5573C9.00562 16.5573 6.85943 15.5464 5.48424 14.8987" stroke="#013A65" stroke-width="0.589286"/>
<path d="M0 16.1123H2.2611L6.19022 17.9732H10.1935L12.7882 16.5978C12.9612 16.1933 13.0551 15.3761 12.0468 15.3437C11.0386 15.3114 10.3417 15.7078 10.1193 15.9101" stroke="#013A65" stroke-width="0.589286"/>
<path d="M17.457 6.20096H15.0477C14.6399 6.47065 13.6243 6.88867 12.8236 6.40323C12.023 5.91778 11.6251 5.09521 11.5263 4.74461C10.6737 4.38052 8.939 3.53908 8.82038 3.08599C8.70177 2.63291 8.67211 1.98025 8.67211 1.71055C8.67211 1.71055 10.8183 2.72144 12.1935 3.36917" stroke="#013A65" stroke-width="0.589286"/>
<path d="M17.6777 2.15553H15.4166L11.4875 0.294644H7.48426L4.88956 1.67008C4.71658 2.07462 4.62268 2.8918 5.6309 2.92416C6.63913 2.95652 7.33599 2.56007 7.5584 2.3578" stroke="#013A65" stroke-width="0.589286"/>
<path d="M2.85299 10.7319C2.75414 9.23512 2.89747 6.00689 4.26154 5.06835" stroke="#013A65" stroke-width="0.589286"/>
<mask id="path-6-inside-1_1265_254" fill="white">
<ellipse cx="5.00357" cy="4.34003" rx="0.296537" ry="0.323633"/>
</mask>
<ellipse cx="5.00357" cy="4.34003" rx="0.296537" ry="0.323633" fill="#D9D9D9"/>
<path d="M5.30011 4.34003H4.71082C4.71082 4.24287 4.79445 4.07437 5.00357 4.07437V4.66366V5.25295C5.54024 5.25295 5.88939 4.79466 5.88939 4.34003H5.30011ZM5.00357 4.66366V4.07437C5.21269 4.07437 5.29632 4.24287 5.29632 4.34003H4.70703H4.11775C4.11775 4.79466 4.4669 5.25295 5.00357 5.25295V4.66366ZM4.70703 4.34003H5.29632C5.29632 4.43718 5.21269 4.60568 5.00357 4.60568V4.0164V3.42711C4.4669 3.42711 4.11775 3.8854 4.11775 4.34003H4.70703ZM5.00357 4.0164V4.60568C4.79445 4.60568 4.71082 4.43718 4.71082 4.34003H5.30011H5.88939C5.88939 3.8854 5.54024 3.42711 5.00357 3.42711V4.0164Z" fill="#013A65" mask="url(#path-6-inside-1_1265_254)"/>
<path d="M14.7896 7.73827C14.8884 9.23507 14.7451 12.4633 13.381 13.4018" stroke="#013A65" stroke-width="0.589286"/>
<mask id="path-9-inside-2_1265_254" fill="white">
<ellipse cx="12.6429" cy="14.13" rx="0.296537" ry="0.323633" transform="rotate(180 12.6429 14.13)"/>
</mask>
<ellipse cx="12.6429" cy="14.13" rx="0.296537" ry="0.323633" transform="rotate(180 12.6429 14.13)" fill="#D9D9D9"/>
<path d="M12.3464 14.13H12.9357C12.9357 14.2271 12.852 14.3956 12.6429 14.3956V13.8063V13.217C12.1062 13.217 11.7571 13.6753 11.7571 14.13H12.3464ZM12.6429 13.8063V14.3956C12.4338 14.3956 12.3502 14.2271 12.3502 14.13H12.9395H13.5287C13.5287 13.6753 13.1796 13.217 12.6429 13.217V13.8063ZM12.9395 14.13H12.3502C12.3502 14.0328 12.4338 13.8643 12.6429 13.8643V14.4536V15.0429C13.1796 15.0429 13.5287 14.5846 13.5287 14.13H12.9395ZM12.6429 14.4536V13.8643C12.852 13.8643 12.9357 14.0328 12.9357 14.13H12.3464H11.7571C11.7571 14.5846 12.1062 15.0429 12.6429 15.0429V14.4536Z" fill="#013A65" mask="url(#path-9-inside-2_1265_254)"/>
<path d="M7.9705 12.1477V10.0846H6.08008V8.14279H7.9705V6.28191H9.63853V8.26416H11.3436V10.0846H9.63853V12.1477H7.9705Z" stroke="#013A65" stroke-width="0.589286"/>
</svg>
