<svg width="19" height="18" viewBox="0 0 19 18" fill="none" xmlns="http://www.w3.org/2000/svg">
<path d="M7.64721 14.4459C6.9157 14.6257 5.58939 14.6401 6.13622 13.2588M6.13622 13.2588L9.1582 9.91364M6.13622 13.2588C5.23682 13.3548 3.58912 13.1078 4.19352 11.3524" stroke="#013A65" stroke-width="0.5"/>
<path d="M16.3532 8.79847C17.2406 7.8153 18.6988 5.35975 17.4325 3.40299C16.1661 1.44622 14.5064 0.765192 13.8349 0.669273C12.8516 0.525393 10.6618 0.647691 9.76962 2.28792M9.76962 2.28792C8.48263 1.05526 7.05624 -0.017498 5.05677 0.309577C2.85763 0.669314 1.67503 1.20883 0.451845 3.61881C0.104077 4.76985 -0.0446236 7.45321 2.14272 8.97833M9.76962 2.28792L11.2087 4.2303L8.18668 5.6691L6.89154 4.2303L2.14272 8.97833M2.14272 8.97833C1.99881 9.98549 2.22906 11.8703 4.30127 11.3523L7.39521 8.11505" stroke="#013A65" stroke-width="0.5"/>
<rect x="-0.353469" y="0.00899908" width="3.70761" height="2.58967" rx="1.29483" transform="matrix(-0.724932 -0.68882 -0.688942 0.724817 17.2637 10.1611)" stroke="#013A65" stroke-width="0.5"/>
<rect x="-0.353469" y="0.00899908" width="3.70761" height="2.20685" rx="1.10343" transform="matrix(-0.724932 -0.68882 -0.688942 0.724817 15.2481 12.5349)" stroke="#013A65" stroke-width="0.5"/>
<rect x="-0.353469" y="0.00899908" width="3.70761" height="2.20685" rx="1.10343" transform="matrix(-0.724932 -0.68882 -0.688942 0.724817 13.377 14.4053)" stroke="#013A65" stroke-width="0.5"/>
<rect x="-0.353469" y="0.00899908" width="3.70761" height="2.20685" rx="1.10343" transform="matrix(-0.724932 -0.68882 -0.688942 0.724817 11.2188 15.6999)" stroke="#013A65" stroke-width="0.5"/>
</svg>
