<svg width="32" height="32" viewBox="0 0 32 32" fill="none" xmlns="http://www.w3.org/2000/svg">
<path d="M18.9367 12.2648L13.9357 17.2652M29.4188 0.648757C29.577 0.594176 29.7473 0.585194 29.9104 0.622837C30.0734 0.660479 30.2226 0.743228 30.3408 0.861626C30.459 0.980023 30.5416 1.12929 30.579 1.29238C30.6164 1.45546 30.6072 1.62577 30.5524 1.78386L20.677 30.003C20.618 30.1717 20.5095 30.3187 20.3658 30.4251C20.2221 30.5314 20.0498 30.5921 19.8712 30.5993C19.6926 30.6064 19.5159 30.5598 19.3642 30.4654C19.2124 30.3709 19.0925 30.2331 19.02 30.0697L13.654 17.9986C13.5643 17.7974 13.4034 17.6365 13.2022 17.5469L1.12981 12.1798C0.966937 12.1071 0.829611 11.9872 0.735573 11.8356C0.641534 11.6841 0.595106 11.5078 0.602285 11.3296C0.609465 11.1514 0.669922 10.9794 0.775846 10.8359C0.881771 10.6925 1.0283 10.584 1.19649 10.5246L29.4188 0.648757Z" stroke="#013A65" stroke-width="1.2" stroke-linecap="round" stroke-linejoin="round"/>
</svg>
