<svg width="47" height="47" viewBox="0 0 47 47" fill="none" xmlns="http://www.w3.org/2000/svg">
<path d="M7.08585 21.7955L4.15417 14.6223C3.78063 13.7083 2.74652 13.2588 1.82339 13.6091M10.5942 38.6527H20.2657M10.5942 38.6527C10.5942 36.8614 9.84719 35.1512 8.53309 33.9338L6.00589 31.5927C4.363 30.0707 3.22379 28.0836 2.74051 25.8969L0.547056 15.9718C0.327117 14.9766 0.870499 13.9707 1.82339 13.6091M10.5942 38.6527C9.7877 39.0058 9.26668 39.8027 9.26668 40.6831V45.5997C9.26668 45.8636 9.38243 46.1141 9.58331 46.2852C9.74616 46.4238 9.95306 46.5 10.1669 46.5H20.3009C20.5209 46.5 20.7317 46.4114 20.8856 46.2541C21.0353 46.1012 21.1191 45.8958 21.1191 45.6818V40.2665C21.1191 39.6205 20.7996 39.0163 20.2657 38.6527M20.2657 38.6527V31.9759C20.2657 30.5629 20.011 29.1388 19.1367 28.0288C17.702 26.2071 14.9329 23.66 10.3097 21.408M10.3097 21.408L6.7273 11.9847C6.17047 10.52 5.11277 8.9735 3.58662 9.3289C2.03779 9.68959 1.60007 11.7511 1.78985 13.33L1.82339 13.6091M10.3097 21.408C7.14482 21.4239 7.57612 24.7363 10.0539 26.7054L12.775 28.8678" stroke="#013A65"/>
<path d="M39.2423 21.7955L42.174 14.6223C42.5475 13.7083 43.5816 13.2588 44.5047 13.6091M35.734 38.6527H26.0624M35.734 38.6527C35.734 36.8614 36.4809 35.1512 37.795 33.9338L40.3222 31.5927C41.9651 30.0707 43.1043 28.0836 43.5876 25.8969L45.7811 15.9718C46.001 14.9766 45.4576 13.9707 44.5047 13.6091M35.734 38.6527C36.5404 39.0058 37.0614 39.8027 37.0614 40.6831V45.5997C37.0614 45.8636 36.9457 46.1141 36.7448 46.2852C36.582 46.4238 36.3751 46.5 36.1612 46.5H26.0272C25.8072 46.5 25.5964 46.4114 25.4425 46.2541C25.2929 46.1012 25.2091 45.8958 25.2091 45.6818V40.2665C25.2091 39.6205 25.5285 39.0163 26.0624 38.6527M26.0624 38.6527V31.9759C26.0624 30.5629 26.3172 29.1388 27.1914 28.0288C28.6262 26.2071 31.3952 23.66 36.0184 21.408M36.0184 21.408L39.6008 11.9847C40.1577 10.52 41.2154 8.9735 42.7415 9.3289C44.2903 9.68959 44.7281 11.7511 44.5383 13.33L44.5047 13.6091M36.0184 21.408C39.1833 21.4239 38.752 24.7363 36.2742 26.7054L33.5531 28.8678" stroke="#013A65"/>
<path d="M34.2215 2.41854C33.6237 1.81031 32.914 1.32782 32.1329 0.998625C31.3517 0.669435 30.5145 0.5 29.6689 0.5C28.8234 0.5 27.9861 0.669435 27.205 0.998625C26.4239 1.32782 25.7142 1.81031 25.1164 2.41854L23.8759 3.68025L22.6353 2.41854C21.4279 1.19053 19.7903 0.500637 18.0828 0.500637C16.3753 0.500637 14.7377 1.19053 13.5303 2.41854C12.3228 3.64656 11.6445 5.31211 11.6445 7.04878C11.6445 8.78546 12.3228 10.451 13.5303 11.679L23.8759 22.2012L34.2215 11.679C34.8195 11.0711 35.2939 10.3492 35.6176 9.55477C35.9412 8.7603 36.1078 7.90875 36.1078 7.04878C36.1078 6.18881 35.9412 5.33727 35.6176 4.54279C35.2939 3.74832 34.8195 3.02649 34.2215 2.41854Z" stroke="#013A65" stroke-linecap="round" stroke-linejoin="round"/>
<path d="M23.9062 6.6333V14.811M19.9492 10.7222H27.8632" stroke="#013A65" stroke-linecap="round" stroke-linejoin="round"/>
</svg>
