<svg width="45" height="46" viewBox="0 0 45 46" fill="none" xmlns="http://www.w3.org/2000/svg">
<path d="M40.6043 29.2361C40.6043 29.2361 41.9037 28.1689 42.0102 27.2125C42.1789 25.6968 39.3638 24.3404 39.3638 24.3404H23.4859C24.1475 23.4701 25.5699 20.8678 25.9669 17.4213C26.3638 13.9747 22.7692 12.2863 20.9223 11.8729C19.1067 14.4591 14.6649 21.4248 11.4121 24.3404V42.8133L16.2086 45.2938L34.402 44.9021C34.402 44.9021 36.4838 44.0085 36.7175 42.8133C36.9702 41.5213 35.0636 39.8759 35.0636 39.8759M40.6043 29.2361H30.9287M40.6043 29.2361C40.6043 29.2361 44.1565 30.5736 43.9949 32.3693C43.8451 34.0338 40.6043 34.9803 40.6043 34.9803H38.6196M29.5229 34.9803H38.6196M38.6196 34.9803C38.6196 34.9803 39.7184 36.7887 39.3638 37.9177C39.0236 39.0013 37.2137 39.8759 37.2137 39.8759H35.0636M25.9669 39.8759H35.0636" stroke="#013A65"/>
<rect x="0.5" y="20.7281" width="10.4122" height="24.7184" rx="5.20612" stroke="#013A65"/>
<path d="M4.83203 7.48138C5.4326 6.71511 6.5928 6.71511 7.19336 7.48138L7.28223 7.59467C7.59399 7.99245 8.02389 8.28173 8.50977 8.42084L8.70117 8.47552C9.57544 8.72566 9.90939 9.78914 9.33496 10.4941C8.99929 10.9061 8.81982 11.4274 8.8252 11.955C8.8345 12.8807 7.94221 13.5538 7.07617 13.29L6.74121 13.1874C6.26636 13.0427 5.75906 13.0428 5.28418 13.1874L4.94824 13.29C4.08233 13.5535 3.18992 12.8806 3.19922 11.955C3.20459 11.4275 3.02596 10.906 2.69043 10.4941C2.11608 9.78923 2.44924 8.72584 3.32324 8.47552L3.51465 8.42084C4.00069 8.28178 4.43034 7.99256 4.74219 7.59467L4.83203 7.48138Z" stroke="#013A65"/>
<path d="M19.2891 2.31738C19.8896 1.55111 21.0498 1.55111 21.6504 2.31738L21.7393 2.43066C22.051 2.82845 22.4809 3.11773 22.9668 3.25684L23.1582 3.31152C24.0325 3.56166 24.3664 4.62514 23.792 5.33008C23.4563 5.74206 23.2769 6.2634 23.2822 6.79102C23.2915 7.7167 22.3992 8.38985 21.5332 8.12598L21.1982 8.02344C20.7234 7.87874 20.2161 7.87884 19.7412 8.02344L19.4053 8.12598C18.5394 8.38951 17.647 7.71655 17.6562 6.79102C17.6616 6.26351 17.483 5.74202 17.1475 5.33008C16.5731 4.62523 16.9063 3.56184 17.7803 3.31152L17.9717 3.25684C18.4577 3.11778 18.8874 2.82856 19.1992 2.43066L19.2891 2.31738Z" stroke="#013A65"/>
<path d="M33.75 7.48138C34.3506 6.71511 35.5108 6.71511 36.1113 7.48138L36.2002 7.59467C36.512 7.99245 36.9419 8.28173 37.4277 8.42084L37.6191 8.47552C38.4934 8.72566 38.8274 9.78914 38.2529 10.4941C37.9173 10.9061 37.7378 11.4274 37.7432 11.955C37.7525 12.8807 36.8602 13.5538 35.9941 13.29L35.6592 13.1874C35.1843 13.0427 34.677 13.0428 34.2021 13.1874L33.8662 13.29C33.0003 13.5535 32.1079 12.8806 32.1172 11.955C32.1226 11.4275 31.9439 10.906 31.6084 10.4941C31.034 9.78923 31.3672 8.72584 32.2412 8.47552L32.4326 8.42084C32.9187 8.28178 33.3483 7.99256 33.6602 7.59467L33.75 7.48138Z" stroke="#013A65"/>
</svg>
