<svg width="16" height="15" viewBox="0 0 16 15" fill="none" xmlns="http://www.w3.org/2000/svg">
<path d="M14.3434 1.67638C13.9768 1.30343 13.5417 1.00759 13.0627 0.805739C12.5837 0.603891 12.0704 0.5 11.5519 0.5C11.0335 0.5 10.5201 0.603891 10.0411 0.805739C9.56215 1.00759 9.12698 1.30343 8.76046 1.67638L7.99981 2.45002L7.23916 1.67638C6.49882 0.923407 5.4947 0.50039 4.44771 0.50039C3.40071 0.50039 2.39659 0.923407 1.65626 1.67638C0.915918 2.42936 0.5 3.45061 0.5 4.51547C0.5 5.58034 0.915918 6.60159 1.65626 7.35457L7.99981 13.8064L14.3434 7.35457C14.71 6.9818 15.0009 6.5392 15.1994 6.05206C15.3979 5.56491 15.5 5.04278 15.5 4.51547C15.5 3.98817 15.3979 3.46603 15.1994 2.97889C15.0009 2.49175 14.71 2.04915 14.3434 1.67638Z" stroke="#013A65" stroke-linecap="round" stroke-linejoin="round"/>
<path d="M7.83253 4.08737V9.10166M5.40625 6.59452H7.83253H10.2588" stroke="#013A65" stroke-linecap="round" stroke-linejoin="round"/>
</svg>
