<svg width="20" height="20" viewBox="0 0 20 20" fill="none" xmlns="http://www.w3.org/2000/svg">
<path d="M5.55556 9.09909C5.78491 9.09909 5.98469 9.00938 6.15492 8.82996C6.32514 8.65053 6.41025 8.43995 6.41025 8.1982C6.41025 7.95645 6.32514 7.74586 6.15492 7.56644C5.98469 7.38701 5.78491 7.2973 5.55556 7.2973C5.3262 7.2973 5.12642 7.38701 4.95619 7.56644C4.78597 7.74586 4.70086 7.95645 4.70086 8.1982C4.70086 8.43995 4.78597 8.65053 4.95619 8.82996C5.12642 9.00938 5.3262 9.09909 5.55556 9.09909ZM10 9.09909C10.2294 9.09909 10.4291 9.00938 10.5994 8.82996C10.7696 8.65053 10.8547 8.43995 10.8547 8.1982C10.8547 7.95645 10.7696 7.74586 10.5994 7.56644C10.4291 7.38701 10.2294 7.2973 10 7.2973C9.77065 7.2973 9.57086 7.38701 9.40064 7.56644C9.23042 7.74586 9.14531 7.95645 9.14531 8.1982C9.14531 8.43995 9.23042 8.65053 9.40064 8.82996C9.57086 9.00938 9.77065 9.09909 10 9.09909ZM14.4444 9.09909C14.6738 9.09909 14.8736 9.00938 15.0438 8.82996C15.214 8.65053 15.2991 8.43995 15.2991 8.1982C15.2991 7.95645 15.214 7.74586 15.0438 7.56644C14.8736 7.38701 14.6738 7.2973 14.4444 7.2973C14.2151 7.2973 14.0153 7.38701 13.8451 7.56644C13.6749 7.74586 13.5898 7.95645 13.5898 8.1982C13.5898 8.43995 13.6749 8.65053 13.8451 8.82996C14.0153 9.00938 14.2151 9.09909 14.4444 9.09909ZM0 20V1.89188C0 1.35285 0.171296 0.902778 0.513889 0.541667C0.856481 0.180556 1.28347 0 1.79486 0H18.2051C18.7165 0 19.1435 0.180556 19.4861 0.541667C19.8287 0.902778 20 1.35285 20 1.89188V14.5045C20 15.0435 19.8287 15.4936 19.4861 15.8547C19.1435 16.2158 18.7165 16.3964 18.2051 16.3964H3.41881L0 20ZM2.94444 15.2252H18.2051C18.3761 15.2252 18.5328 15.1502 18.6752 15C18.8177 14.8498 18.8889 14.6847 18.8889 14.5045V1.89188C18.8889 1.71171 18.8177 1.54655 18.6752 1.39639C18.5328 1.24624 18.3761 1.17117 18.2051 1.17117H1.79486C1.62394 1.17117 1.46724 1.24624 1.32478 1.39639C1.18233 1.54655 1.11111 1.71171 1.11111 1.89188V17.1509L2.94444 15.2252Z" fill="#013A65"/>
</svg>
