<svg width="20" height="20" viewBox="0 0 20 20" fill="none" xmlns="http://www.w3.org/2000/svg">
<path d="M11.0899 8.91015V2.69601H12.3327V6.78777L19.1205 0L20 0.879549L13.2122 7.66732H17.304V8.91015H11.0899ZM18.5564 20C16.4611 20 14.3132 19.4754 12.1128 18.4261C9.91234 17.3769 7.86805 15.9043 5.9799 14.0081C4.09175 12.112 2.62307 10.0677 1.57386 7.87524C0.524619 5.68277 0 3.53889 0 1.44361C0 1.06392 0.124283 0.747529 0.372849 0.494427C0.621414 0.241304 0.932121 0.114744 1.30497 0.114744H4.37858C4.71638 0.114744 5.01116 0.221098 5.26291 0.433809C5.51467 0.646519 5.68515 0.919382 5.77437 1.2524L6.391 4.21608C6.44837 4.56343 6.43802 4.86697 6.35993 5.1267C6.28186 5.38641 6.14404 5.59912 5.94647 5.76483L3.21939 8.30784C3.72928 9.23361 4.29295 10.0936 4.91038 10.8879C5.5278 11.6822 6.18625 12.4347 6.88574 13.1453C7.60755 13.8671 8.38432 14.5383 9.21604 15.1589C10.0478 15.7796 10.9608 16.3655 11.955 16.9168L14.6128 14.2113C14.8152 13.993 15.0426 13.8492 15.2951 13.7799C15.5477 13.7106 15.8269 13.6966 16.1329 13.738L18.7476 14.2734C19.0854 14.3563 19.3595 14.5264 19.5698 14.7837C19.7801 15.041 19.8853 15.3362 19.8853 15.6692V18.695C19.8853 19.0679 19.7587 19.3786 19.5056 19.6272C19.2525 19.8757 18.9361 20 18.5564 20ZM2.63623 7.14151L5.02149 4.94742C5.10116 4.88368 5.15294 4.79606 5.17685 4.68453C5.20075 4.57299 5.19677 4.46942 5.16492 4.37383L4.61279 1.73999C4.58093 1.61252 4.52517 1.51691 4.4455 1.45318C4.36584 1.38944 4.26227 1.35757 4.1348 1.35757H1.58461C1.48901 1.35757 1.40935 1.38944 1.34561 1.45318C1.28187 1.51691 1.25001 1.59658 1.25001 1.69217C1.27391 2.54144 1.40695 3.42816 1.64914 4.35232C1.89133 5.27647 2.22035 6.2062 2.63623 7.14151ZM13.1381 17.5C13.9778 17.9159 14.8729 18.2234 15.8233 18.4226C16.7738 18.6217 17.602 18.7285 18.3078 18.7428C18.4034 18.7428 18.4831 18.711 18.5468 18.6472C18.6106 18.5835 18.6424 18.5038 18.6424 18.4082V15.913C18.6424 15.7855 18.6106 15.682 18.5468 15.6023C18.4831 15.5226 18.3875 15.4669 18.26 15.435L15.9608 14.9642C15.8652 14.9323 15.7815 14.9283 15.7098 14.9522C15.6381 14.9761 15.5624 15.0279 15.4828 15.1076L13.1381 17.5Z" fill="#013A65"/>
</svg>
