<svg width="46" height="46" viewBox="0 0 46 46" fill="none" xmlns="http://www.w3.org/2000/svg">
<path d="M0.0273438 23.4909C1.25957 23.4609 3.86827 22.4631 4.44531 18.7124C4.41525 20.185 5.14858 23.2024 8.3223 23.4909C6.93981 24.2723 4.22892 26.4121 4.44531 28.7203C4.59558 27.0673 3.92237 23.7073 0.0273438 23.4909Z" stroke="#013A65"/>
<path d="M35.7305 23.4909C36.9627 23.4609 39.5714 22.4631 40.1484 18.7124C40.1184 20.185 40.8517 23.2024 44.0254 23.4909C42.6429 24.2723 39.932 26.4121 40.1484 28.7203C40.2987 27.0673 39.6255 23.7073 35.7305 23.4909Z" stroke="#013A65"/>
<path d="M33.5664 8.52444C34.7986 8.49439 37.4073 7.49661 37.9844 3.74591C37.9543 5.21854 38.6876 8.23593 41.8614 8.52444C40.4789 9.30584 37.768 11.4457 37.9844 13.7538C38.1346 12.1008 37.4614 8.74083 33.5664 8.52444Z" stroke="#013A65"/>
<path d="M0.207031 33.5891C4.45217 31.7488 7.25591 30.5335 10.8462 28.9771M18.51 25.6549L19.4117 21.778L20.8543 21.1557M18.51 25.6549L22.0264 34.671M18.51 25.6549L14.2724 27.4919M22.0264 34.671L14.1704 38.0795M22.0264 34.671L25.723 35.0753M0.207031 44.1379L14.1704 38.0795M14.2724 27.4919L16.6166 33.9497M14.2724 27.4919C13.0247 28.0328 11.9015 28.5197 10.8462 28.9771M10.8462 28.9771L14.1704 38.0795M30.0508 30.5236L33.5508 29.1712M33.5508 29.1712L34.6491 31.6957L29.6902 34.3056M33.5508 29.1712C32.8846 27.64 32.3195 26.341 31.7856 25.1139M28.4279 26.5565L31.7856 25.1139M31.7856 25.1139C31.2416 23.8636 30.7301 22.6879 30.1773 21.4173M26.9853 22.7698L30.1773 21.4173M30.1773 21.4173C29.7007 20.3219 29.1935 19.156 28.6082 17.8109L24.5509 19.5611M25.723 35.0753L27.7968 35.3021L29.6902 34.3056M25.723 35.0753L27.5263 39.2692L25.0017 42.8756L25.723 45.31L36.7229 40.8019L35.7311 38.6381L31.4033 38.0795L29.6902 34.3056M24.5509 19.5611L23.469 17.8109C25.1821 16.0678 28.4459 11.8783 27.7968 9.06529M24.5509 19.5611L20.8543 21.1557M27.7968 9.06529L25.723 3.27112M27.7968 9.06529C29.4197 8.25384 31.8541 6.18014 30.5016 3.83596C29.6916 2.43196 27.0755 2.82827 25.723 3.27112M11.1167 15.8274C12.4691 17.2098 16.1297 19.8125 19.9526 19.1633L20.8543 21.1557M11.1167 15.8274L8.04536 9.33577M11.1167 15.8274C9.22329 16.9093 5.52662 17.5404 4.80532 14.3848C4.33132 12.3111 6.51841 9.87674 8.04536 9.33577M8.04536 9.33577L7.14955 7.44239L7.69052 6.2703L23.1985 0.5H24.7312L25.723 3.27112M22.387 4.10644C23.5591 5.66923 25.2001 9.75051 22.387 13.5733" stroke="#013A65"/>
</svg>
