<svg width="123" height="36" viewBox="0 0 123 36" fill="none" xmlns="http://www.w3.org/2000/svg">
<path d="M70.5215 9.47321C71.7747 9.47322 72.8947 9.70642 73.8809 10.1734C74.8669 10.6404 75.699 11.2852 76.377 12.108C77.0549 12.9085 77.5687 13.8314 77.918 14.8765C78.2878 15.9217 78.4727 17.0339 78.4727 18.2125C78.4727 18.5015 78.4619 18.8016 78.4414 19.1129C78.4209 19.424 78.38 19.7133 78.3184 19.98H65.9111C65.9508 20.7541 66.1091 21.4547 66.3916 22.0816C66.823 22.9934 67.4195 23.7049 68.1797 24.2164C68.9602 24.7277 69.8432 24.9839 70.8291 24.9839C71.8358 24.9839 72.6892 24.7388 73.3877 24.2496C74.1064 23.7605 74.6712 23.1271 75.082 22.3492L77.918 23.8502C77.5893 24.695 77.0752 25.4617 76.377 26.1509C75.699 26.8181 74.8767 27.3522 73.9111 27.7525C72.9661 28.1305 71.9287 28.3199 70.7988 28.3199C69.1348 28.3199 67.6556 27.9082 66.3613 27.0855C65.0876 26.2405 64.0911 25.1063 63.3721 23.6832C62.653 22.2377 62.293 20.6253 62.293 18.8463C62.293 17.0227 62.653 15.4103 63.3721 14.0093C64.1116 12.6086 65.0976 11.5081 66.3301 10.7076C67.5628 9.88478 68.9601 9.47321 70.5215 9.47321ZM113.727 9.47321C115.37 9.47321 116.839 9.88478 118.134 10.7076C119.448 11.5081 120.486 12.6196 121.246 14.0425C122.027 15.4435 122.417 17.056 122.417 18.8795C122.417 20.703 122.027 22.3264 121.246 23.7496C120.465 25.1728 119.417 26.2959 118.103 27.1187C116.788 27.9192 115.329 28.3199 113.727 28.3199C112.124 28.3198 110.656 27.9081 109.32 27.0855C108.005 26.2627 106.957 25.1395 106.177 23.7164C105.396 22.2931 105.006 20.6807 105.006 18.8795C105.006 17.056 105.396 15.4435 106.177 14.0425C106.957 12.6195 108.006 11.5081 109.32 10.7076C110.635 9.88487 112.104 9.47325 113.727 9.47321ZM90.9043 9.8736H94.6943V13.2759H90.9043V21.8482C90.9043 22.4709 90.9967 23.005 91.1816 23.4498C91.3665 23.8721 91.6645 24.2052 92.0752 24.4498C92.4861 24.6721 93.0203 24.7838 93.6777 24.7838C93.8421 24.7837 94.027 24.7728 94.2324 24.7505C94.4376 24.7283 94.6327 24.7064 94.8174 24.6841V27.9195C94.5299 27.9639 94.2114 28.0079 93.8623 28.0523C93.5133 28.0967 93.2054 28.1197 92.9385 28.1197C91.1922 28.1197 89.8357 27.5855 88.8701 26.5181C87.9046 25.4507 87.4219 23.9498 87.4219 22.0152V13.2759H84.4941V9.8736H84.9561C85.7368 9.8736 86.343 9.62846 86.7744 9.13922C87.2058 8.65004 87.4218 7.98313 87.4219 7.13824V5.73688H90.9043V9.8736ZM46.1641 14.0093H56.7959V9.71832L60.4014 12.8091V27.9195H56.7959V17.5123H46.1641V27.9195H42.5273V3.06891H46.1641V14.0093ZM83.5039 27.9195H80.0215V2.66852H83.5039V27.9195ZM105.15 13.0757H103.702C102.552 13.0757 101.617 13.4645 100.897 14.2427C100.199 14.9988 99.8496 16.089 99.8496 17.5123V27.9195H96.3672V9.8736H99.6953V12.1793C100.059 11.4079 100.552 10.8278 101.175 10.44C101.996 9.90645 102.983 9.64025 104.133 9.6402H105.15V13.0757ZM113.727 12.9752C112.761 12.9752 111.888 13.2313 111.107 13.7427C110.347 14.2542 109.741 14.9548 109.289 15.8443C108.858 16.7337 108.642 17.7454 108.642 18.8795C108.642 20.0136 108.858 21.037 109.289 21.9488C109.741 22.8382 110.347 23.5389 111.107 24.0504C111.888 24.5617 112.761 24.8169 113.727 24.817C114.713 24.817 115.587 24.5618 116.347 24.0504C117.107 23.5389 117.702 22.8382 118.134 21.9488C118.586 21.037 118.812 20.0136 118.812 18.8795C118.812 17.7455 118.586 16.7337 118.134 15.8443C117.702 14.9549 117.107 14.2542 116.347 13.7427C115.587 13.2313 114.713 12.9752 113.727 12.9752ZM70.5215 12.6422C69.597 12.6422 68.7747 12.8973 68.0557 13.4088C67.3367 13.8979 66.7819 14.6097 66.3916 15.5435C66.2063 15.9763 66.0769 16.455 65.998 16.9781H74.7891C74.7674 16.4284 74.6613 15.917 74.4658 15.4439C74.1371 14.5766 73.6233 13.898 72.9248 13.4088C72.2469 12.8975 71.4458 12.6422 70.5215 12.6422ZM60.4014 9.40582L56.7959 6.31403V3.06891H60.4014V9.40582Z" fill="#013A65"/>
<path d="M6.46727 17.3456V12.5088H11.8567V0H15.8602V17.3456H6.46727Z" fill="#013A65"/>
<path d="M17.2687 7.3385H21.7342V13.1759H33.2829V17.5123H17.2687V7.3385Z" fill="#013A65"/>
<path d="M16.0142 28.3533H11.5487V22.5159H0V18.1795H16.0142V28.3533Z" fill="#013A65"/>
<path d="M26.639 18.0127V22.8494H21.2496V35.3582H17.2461V18.0127H26.639Z" fill="#013A65"/>
</svg>
