<svg width="20" height="20" viewBox="0 0 20 20" fill="none" xmlns="http://www.w3.org/2000/svg">
<path d="M10 9.06979C8.82143 9.06979 7.8125 8.62575 6.97321 7.73767C6.13393 6.84959 5.71429 5.782 5.71429 4.53491C5.71429 3.2878 6.13393 2.2202 6.97321 1.33212C7.8125 0.44404 8.82143 0 10 0C11.1786 0 12.1875 0.44404 13.0268 1.33212C13.8661 2.2202 14.2857 3.2878 14.2857 4.53491C14.2857 5.782 13.8661 6.84959 13.0268 7.73767C12.1875 8.62575 11.1786 9.06979 10 9.06979ZM0 20V17.5116C0 16.8876 0.171703 16.3038 0.515107 15.7602C0.858512 15.2166 1.32051 14.7946 1.90111 14.4942C3.24908 13.8101 4.59798 13.297 5.94779 12.9549C7.29762 12.6129 8.64836 12.4418 10 12.4418C11.3516 12.4418 12.7024 12.6129 14.0522 12.9549C15.402 13.297 16.7509 13.8101 18.0989 14.4942C18.6795 14.7946 19.1415 15.2166 19.4849 15.7602C19.8283 16.3038 20 16.8876 20 17.5116V20H0ZM1.42857 18.4883H18.5714V17.5116C18.5714 17.1763 18.4693 16.8614 18.2651 16.5668C18.0609 16.2723 17.7784 16.0232 17.4176 15.8198C16.2418 15.217 15.0294 14.7553 13.7806 14.4346C12.5317 14.1138 11.2715 13.9535 10 13.9535C8.72845 13.9535 7.46826 14.1138 6.21943 14.4346C4.97057 14.7553 3.75824 15.217 2.58243 15.8198C2.22162 16.0232 1.93911 16.2723 1.73489 16.5668C1.53068 16.8614 1.42857 17.1763 1.42857 17.5116V18.4883ZM10 7.55816C10.7857 7.55816 11.4583 7.26213 12.0179 6.67008C12.5774 6.07803 12.8571 5.36631 12.8571 4.53491C12.8571 3.70352 12.5774 2.9918 12.0179 2.39974C11.4583 1.80769 10.7857 1.51166 10 1.51166C9.21429 1.51166 8.54167 1.80769 7.98214 2.39974C7.42262 2.9918 7.14286 3.70352 7.14286 4.53491C7.14286 5.36631 7.42262 6.07803 7.98214 6.67008C8.54167 7.26213 9.21429 7.55816 10 7.55816Z" fill="#013A65"/>
</svg>
