<svg width="68" height="57" viewBox="0 0 68 57" fill="none" xmlns="http://www.w3.org/2000/svg">
<path d="M52.5469 1.64766V15.7195H46.3014V7.89316H31.6283V49.1068H38.5084V55.3523H18.5027V49.1068H25.3717V7.89316H10.6986V15.7195H4.45311V1.64766H52.5469ZM52.6582 0H4.34178C3.49569 0 2.81659 0.679102 2.81659 1.5252V15.8309C2.81659 16.677 3.49569 17.3561 4.34178 17.3561H10.8211C11.6672 17.3561 12.3463 16.677 12.3463 15.8309V9.52969H23.7351V47.4592H18.3914C17.5453 47.4592 16.8662 48.1383 16.8662 48.9844V55.4637C16.8662 56.3098 17.5453 56.9889 18.3914 56.9889H38.6197C39.4658 56.9889 40.1449 56.3098 40.1449 55.4637V48.9844C40.1449 48.1383 39.4658 47.4592 38.6197 47.4592H33.276V9.52969H44.6648V15.8309C44.6648 16.677 45.3439 17.3561 46.19 17.3561H52.6582C53.5043 17.3561 54.1834 16.677 54.1834 15.8309V1.5252C54.1945 0.679102 53.5043 0 52.6582 0Z" fill="black"/>
<path d="M65.8125 29.8094V36.7219H62.7445V32.8773H55.5367V53.1227H58.9164V56.1906H49.0891V53.1227H52.4633V32.8773H45.2555V36.7219H42.1875V29.8094H65.8125ZM65.8672 29H42.1328C41.7172 29 41.3836 29.3336 41.3836 29.7492V36.7766C41.3836 37.1922 41.7172 37.5258 42.1328 37.5258H45.3156C45.7313 37.5258 46.0649 37.1922 46.0649 36.7766V33.6812H51.6594V52.3133H49.0344C48.6188 52.3133 48.2852 52.6469 48.2852 53.0625V56.2453C48.2852 56.6609 48.6188 56.9945 49.0344 56.9945H58.9711C59.3867 56.9945 59.7203 56.6609 59.7203 56.2453V53.0625C59.7203 52.6469 59.3867 52.3133 58.9711 52.3133H56.3461V33.6812H61.9406V36.7766C61.9406 37.1922 62.2742 37.5258 62.6899 37.5258H65.8672C66.2828 37.5258 66.6164 37.1922 66.6164 36.7766V29.7492C66.6219 29.3336 66.2828 29 65.8672 29Z" fill="black"/>
</svg>
