<svg width="57" height="57" viewBox="0 0 57 57" fill="none" xmlns="http://www.w3.org/2000/svg">
<path fill-rule="evenodd" clip-rule="evenodd" d="M22.9267 25.6483L25.5107 32.2891C25.7878 33.0027 26.3686 33.588 27.1252 33.9161C27.8818 34.2443 28.7522 34.2886 29.545 34.0391C30.3378 33.7897 30.9881 33.267 31.3527 32.586C31.7174 31.905 31.7665 31.1216 31.4894 30.408L20.9285 3.25189C20.5584 2.30147 19.8692 1.47804 18.9565 0.895479C18.0437 0.312917 16.9523 0 15.8334 0C14.7144 0 13.6231 0.312917 12.7103 0.895479C11.7975 1.47804 11.1084 2.30147 10.7382 3.25189L0.177392 30.408C-0.099759 31.1216 -0.050612 31.905 0.314021 32.586C0.678654 33.267 1.3289 33.7897 2.12172 34.0391C2.91454 34.2886 3.78499 34.2443 4.54157 33.9161C5.29815 33.588 5.8789 33.0027 6.15605 32.2891L8.73688 25.6483H22.9267ZM20.71 19.948L15.8334 7.40454L10.9567 19.948H20.71ZM45.9167 14.2477C47.8452 14.2477 49.6533 14.6895 51.2367 15.4676C51.6211 14.9684 52.1729 14.593 52.8112 14.3962C53.4496 14.1994 54.1412 14.1914 54.785 14.3735C55.4288 14.5556 55.991 14.9182 56.3895 15.4084C56.788 15.8985 57.0019 16.4905 57 17.0979V31.3486C56.9997 31.955 56.7846 32.5455 56.3859 33.0343C55.9871 33.5231 55.4255 33.8847 54.7828 34.0666C54.14 34.2484 53.4496 34.2409 52.8118 34.0453C52.1741 33.8497 51.6223 33.4761 51.2367 32.9789C49.7546 33.7071 48.1074 34.1209 46.4206 34.1888C44.7337 34.2566 43.052 33.9767 41.5037 33.3704C39.9554 32.764 38.5815 31.8473 37.4869 30.6902C36.3923 29.5331 35.6059 28.1662 35.1877 26.6938C34.7695 25.2214 34.7306 23.6825 35.074 22.1946C35.4174 20.7066 36.1339 19.3089 37.169 18.1082C38.204 16.9075 39.5302 15.9355 41.0463 15.2665C42.5623 14.5974 44.2282 14.249 45.9167 14.2477ZM45.9167 28.4984C47.1764 28.4984 48.3846 28.048 49.2754 27.2463C50.1662 26.4445 50.6667 25.3571 50.6667 24.2232C50.6667 23.0894 50.1662 22.002 49.2754 21.2002C48.3846 20.3984 47.1764 19.948 45.9167 19.948C44.6569 19.948 43.4487 20.3984 42.5579 21.2002C41.6671 22.002 41.1667 23.0894 41.1667 24.2232C41.1667 25.3571 41.6671 26.4445 42.5579 27.2463C43.4487 28.048 44.6569 28.4984 45.9167 28.4984Z" fill="black"/>
<path d="M3.16666 39.8992C2.32681 39.8992 1.52136 40.1995 0.927494 40.734C0.333629 41.2685 0 41.9934 0 42.7493C0 43.5052 0.333629 44.2302 0.927494 44.7647C1.52136 45.2992 2.32681 45.5995 3.16666 45.5995H53.8333C54.6731 45.5995 55.4786 45.2992 56.0724 44.7647C56.6663 44.2302 56.9999 43.5052 56.9999 42.7493C56.9999 41.9934 56.6663 41.2685 56.0724 40.734C55.4786 40.1995 54.6731 39.8992 53.8333 39.8992H3.16666ZM3.16666 51.2997C2.32681 51.2997 1.52136 51.6 0.927494 52.1345C0.333629 52.669 0 53.394 0 54.1499C0 54.9058 0.333629 55.6307 0.927494 56.1652C1.52136 56.6997 2.32681 57 3.16666 57H41.1666C42.0065 57 42.8119 56.6997 43.4058 56.1652C43.9996 55.6307 44.3333 54.9058 44.3333 54.1499C44.3333 53.394 43.9996 52.669 43.4058 52.1345C42.8119 51.6 42.0065 51.2997 41.1666 51.2997H3.16666Z" fill="black"/>
</svg>
