<svg width="18" height="18" viewBox="0 0 18 18" fill="none" xmlns="http://www.w3.org/2000/svg">
<path d="M0 2C0 1.42028 0.193895 0.942017 0.581669 0.565217C0.969442 0.1884 1.47357 0 2.09401 0C2.70338 0 3.1964 0.185496 3.57311 0.556522C3.96088 0.93913 4.15478 1.43767 4.15478 2.05217C4.15478 2.6087 3.96643 3.07245 3.58973 3.44348C3.20195 3.82609 2.6923 4.01739 2.06077 4.01739H2.04415C1.43478 4.01739 0.941755 3.82609 0.56505 3.44348C0.188344 3.06087 0 2.5797 0 2ZM0.216048 17.2174V5.6H3.90549V17.2174H0.216048ZM5.94964 17.2174H9.63908V10.7304C9.63908 10.3246 9.6834 10.0116 9.77203 9.7913C9.92714 9.3971 10.1626 9.06376 10.4783 8.7913C10.7941 8.51884 11.1902 8.38261 11.6666 8.38261C12.9075 8.38261 13.528 9.25797 13.528 11.0087V17.2174H17.2174V10.5565C17.2174 8.84057 16.8296 7.53913 16.0541 6.65217C15.2785 5.76522 14.2537 5.32174 12.9795 5.32174C11.5503 5.32174 10.4368 5.96522 9.63908 7.25217V7.28696H9.62246L9.63908 7.25217V5.6H5.94964C5.97179 5.97101 5.98288 7.12463 5.98288 9.06087C5.98288 10.9971 5.97179 13.7159 5.94964 17.2174Z" fill="#020E0D"/>
</svg>
