<svg width="32" height="42" viewBox="0 0 32 42" fill="none" xmlns="http://www.w3.org/2000/svg">
<path d="M2.10258 40.6H29.1026M21.5985 15.9843C21.5985 19.3829 18.9122 22.138 15.5985 22.138C12.2848 22.138 9.59851 19.3829 9.59851 15.9843C9.59851 12.5857 12.2848 9.83057 15.5985 9.83057C18.9122 9.83057 21.5985 12.5857 21.5985 15.9843ZM30.6016 15.9843C30.6016 29.8301 15.6016 40.5991 15.6016 40.5991C15.6016 40.5991 0.601562 29.8301 0.601562 15.9843C0.601562 11.9041 2.18192 7.99107 4.99496 5.10596C7.80801 2.22085 11.6233 0.600006 15.6016 0.600006C19.5798 0.600006 23.3951 2.22085 26.2082 5.10596C29.0212 7.99107 30.6016 11.9041 30.6016 15.9843Z" stroke="#013A65" stroke-width="1.2" stroke-linecap="round" stroke-linejoin="round"/>
</svg>
